{"glyphs":{"0":{"ha":969,"x_min":75,"x_max":894,"o":"m 485 -19 q 706 47 614 -19 q 846 228 797 113 q 894 494 894 344 q 843 756 894 644 q 700 930 792 868 q 485 992 608 992 q 272 930 364 992 q 127 756 179 868 q 75 494 75 644 q 124 228 75 344 q 265 47 173 113 q 485 -19 356 -19 m 485 100 q 339 146 399 100 q 247 280 278 192 q 215 494 215 368 q 292 778 215 684 q 485 872 368 872 q 681 778 608 872 q 754 494 754 684 q 723 280 754 368 q 631 146 691 192 q 485 100 571 100 "},"1":{"ha":453,"x_min":47,"x_max":342,"o":"m 214 0 l 342 0 l 342 972 l 251 972 q 197 910 231 940 q 124 857 163 880 q 47 821 85 833 l 69 697 q 131 724 99 707 q 214 782 164 742 l 214 0 "},"2":{"ha":728,"x_min":79,"x_max":654,"o":"m 79 1 l 654 1 l 654 121 l 314 121 l 461 343 q 547 483 513 421 q 599 604 582 546 q 617 726 617 662 q 586 862 617 801 q 495 958 556 922 q 346 993 435 993 q 195 965 263 993 q 79 899 127 938 l 96 760 q 204 840 145 810 q 332 869 263 869 q 443 827 402 869 q 483 713 483 785 q 467 625 483 671 q 419 524 451 578 q 344 404 388 470 l 79 1 "},"3":{"ha":751,"x_min":56,"x_max":668,"o":"m 333 -19 q 504 15 428 -19 q 624 114 580 49 q 668 267 668 178 q 606 439 668 376 q 433 522 544 501 l 433 490 q 582 575 527 510 q 638 735 638 640 q 605 868 638 810 q 509 959 572 926 q 356 992 446 992 q 220 975 282 992 q 104 928 158 958 l 126 793 q 227 849 176 826 q 338 872 278 872 q 453 834 413 872 q 493 718 493 797 q 441 602 493 644 q 299 560 388 560 l 238 560 l 238 440 l 299 440 q 472 392 417 440 q 528 263 528 343 q 477 145 528 191 q 335 100 426 100 q 205 121 263 100 q 88 176 147 142 l 56 54 q 184 1 115 22 q 333 -19 253 -19 "},"4":{"ha":803,"x_min":28,"x_max":765,"o":"m 507 0 l 640 0 l 640 251 l 765 251 l 765 364 l 640 364 l 640 972 l 544 972 l 28 251 l 507 251 l 507 0 m 222 326 l 531 760 l 507 799 l 507 364 l 199 364 l 222 326 "},"5":{"ha":751,"x_min":71,"x_max":688,"o":"m 342 -19 q 518 20 440 -19 q 642 131 597 59 q 688 301 688 203 q 649 462 688 391 q 538 573 610 533 q 361 614 465 614 q 291 610 326 614 q 225 600 256 606 l 254 543 l 290 847 l 635 847 l 640 972 l 182 972 l 122 478 q 218 498 172 490 q 318 506 265 506 q 481 453 418 506 q 543 301 543 401 q 485 161 543 213 q 335 108 428 108 q 210 128 265 108 q 103 176 154 149 l 71 54 q 194 1 123 21 q 342 -19 265 -19 "},"6":{"ha":789,"x_min":86,"x_max":729,"o":"m 410 -19 q 577 20 505 -19 q 689 129 649 60 q 729 289 729 199 q 692 440 729 373 q 590 545 656 506 q 440 583 525 583 q 279 544 348 583 q 176 439 210 506 l 221 364 q 241 504 221 437 q 298 631 261 571 q 382 741 334 690 q 488 834 431 792 q 607 907 545 876 l 517 992 q 364 888 440 951 q 225 741 288 825 q 124 557 162 658 q 86 342 86 456 q 124 153 86 234 q 235 26 163 72 q 410 -19 308 -19 m 410 94 q 276 148 326 94 q 225 283 225 201 q 276 416 225 363 q 410 469 326 469 q 543 416 493 469 q 593 285 593 363 q 543 150 593 205 q 410 94 493 94 "},"7":{"ha":699,"x_min":56,"x_max":685,"o":"m 125 0 l 264 0 l 685 972 l 56 972 l 56 847 l 553 847 l 517 907 l 125 0 "},"8":{"ha":842,"x_min":83,"x_max":758,"o":"m 421 -19 q 600 18 524 -19 q 717 123 676 56 q 758 278 758 190 q 716 435 758 368 q 598 540 674 503 q 421 578 522 578 q 244 540 320 578 q 126 435 168 503 q 83 278 83 368 q 124 123 83 190 q 241 18 165 56 q 421 -19 317 -19 m 421 100 q 272 149 325 100 q 219 278 219 198 q 272 415 219 361 q 421 469 325 469 q 569 415 517 469 q 622 278 622 361 q 569 149 622 198 q 421 100 517 100 m 421 476 q 573 509 508 476 q 673 598 638 541 q 708 729 708 655 q 680 853 708 793 q 588 953 651 914 q 421 992 525 992 q 252 953 317 992 q 158 853 188 914 q 128 729 128 793 q 167 598 128 655 q 273 509 207 541 q 421 476 340 476 m 421 585 q 302 627 344 585 q 260 729 260 670 q 302 833 260 793 q 421 872 344 872 q 537 833 498 872 q 576 729 576 793 q 537 627 576 670 q 421 585 498 585 "},"9":{"ha":789,"x_min":60,"x_max":703,"o":"m 286 0 q 434 101 360 39 q 568 243 508 163 q 666 422 629 324 q 703 631 703 519 q 665 819 703 738 q 554 946 626 901 q 379 992 481 992 q 212 952 284 992 q 100 843 140 913 q 60 683 60 774 q 97 533 60 599 q 199 427 133 466 q 349 389 264 389 q 510 428 442 389 q 613 533 579 467 l 568 608 q 548 473 568 538 q 492 351 528 408 q 410 244 457 294 q 308 155 363 194 q 196 85 253 115 l 286 0 m 379 503 q 246 556 296 503 q 196 688 196 610 q 246 823 196 768 q 379 878 296 878 q 513 825 463 878 q 564 689 564 772 q 513 556 564 610 q 379 503 463 503 "},"A":{"ha":856,"x_min":10,"x_max":846,"o":"m 636 263 l 636 382 l 219 382 l 219 263 l 636 263 m 408 843 l 707 0 l 846 0 l 497 972 l 358 972 l 10 0 l 149 0 l 447 843 l 408 843 "},"Á":{"ha":856,"x_min":10,"x_max":846,"o":"m 636 263 l 636 382 l 219 382 l 219 263 l 636 263 m 408 843 l 707 0 l 846 0 l 497 972 l 358 972 l 10 0 l 149 0 l 447 843 l 408 843 m 299 1061 l 558 1142 l 558 1274 l 299 1142 l 299 1061 "},"Ă":{"ha":856,"x_min":10,"x_max":846,"o":"m 636 263 l 636 382 l 219 382 l 219 263 l 636 263 m 408 843 l 707 0 l 846 0 l 497 972 l 358 972 l 10 0 l 149 0 l 447 843 l 408 843 m 428 1061 q 542 1085 497 1061 q 609 1147 587 1108 q 631 1228 631 1185 l 519 1228 q 492 1167 519 1188 q 428 1147 465 1147 q 363 1167 390 1147 q 336 1228 336 1188 l 225 1228 q 247 1147 225 1185 q 314 1085 269 1108 q 428 1061 358 1061 "},"Ắ":{"ha":856,"x_min":10,"x_max":846,"o":"m 636 263 l 636 382 l 219 382 l 219 263 l 636 263 m 408 843 l 707 0 l 846 0 l 497 972 l 358 972 l 10 0 l 149 0 l 447 843 l 408 843 m 428 1061 q 542 1085 497 1061 q 609 1147 587 1108 q 631 1228 631 1185 l 519 1228 q 492 1167 519 1188 q 428 1147 465 1147 q 363 1167 390 1147 q 336 1228 336 1188 l 225 1228 q 247 1147 225 1185 q 314 1085 269 1108 q 428 1061 358 1061 m 299 1289 l 558 1369 l 558 1501 l 299 1369 l 299 1289 "},"Ặ":{"ha":856,"x_min":10,"x_max":846,"o":"m 636 263 l 636 382 l 219 382 l 219 263 l 636 263 m 408 843 l 707 0 l 846 0 l 497 972 l 358 972 l 10 0 l 149 0 l 447 843 l 408 843 m 428 1092 q 542 1117 497 1092 q 609 1182 587 1142 q 631 1268 631 1222 l 519 1268 q 492 1205 519 1226 q 428 1183 465 1183 q 363 1205 390 1183 q 336 1268 336 1226 l 225 1268 q 247 1182 225 1222 q 314 1117 269 1142 q 428 1092 358 1092 "},"Ằ":{"ha":856,"x_min":10,"x_max":846,"o":"m 636 263 l 636 382 l 219 382 l 219 263 l 636 263 m 408 843 l 707 0 l 846 0 l 497 972 l 358 972 l 10 0 l 149 0 l 447 843 l 408 843 m 428 1060 q 542 1083 497 1060 q 609 1145 587 1107 q 631 1226 631 1183 l 519 1226 q 492 1166 519 1186 q 428 1146 465 1146 q 363 1166 390 1146 q 336 1226 336 1186 l 225 1226 q 247 1145 225 1183 q 314 1083 269 1107 q 428 1060 358 1060 m 557 1288 l 557 1368 l 297 1500 l 297 1368 l 557 1288 "},"Ẳ":{"ha":856,"x_min":10,"x_max":846,"o":"m 636 263 l 636 382 l 219 382 l 219 263 l 636 263 m 408 843 l 707 0 l 846 0 l 497 972 l 358 972 l 10 0 l 149 0 l 447 843 l 408 843 m 428 1061 q 542 1085 497 1061 q 609 1147 587 1108 q 631 1228 631 1185 l 519 1228 q 492 1167 519 1188 q 428 1147 465 1147 q 363 1167 390 1147 q 336 1228 336 1188 l 225 1228 q 247 1147 225 1185 q 314 1085 269 1108 q 428 1061 358 1061 m 440 1250 q 530 1293 502 1264 q 557 1368 557 1322 q 517 1447 557 1419 q 419 1475 477 1475 q 359 1468 388 1475 q 308 1449 331 1461 l 332 1378 q 376 1397 354 1390 q 419 1404 398 1404 q 461 1393 446 1404 q 476 1360 476 1383 q 464 1327 476 1340 q 428 1306 452 1314 l 440 1250 "},"Ẵ":{"ha":856,"x_min":10,"x_max":846,"o":"m 636 263 l 636 382 l 219 382 l 219 263 l 636 263 m 408 843 l 707 0 l 846 0 l 497 972 l 358 972 l 10 0 l 149 0 l 447 843 l 408 843 m 428 1061 q 542 1085 497 1061 q 609 1147 587 1108 q 631 1228 631 1185 l 519 1228 q 492 1167 519 1188 q 428 1147 465 1147 q 363 1167 390 1147 q 336 1228 336 1188 l 225 1228 q 247 1147 225 1185 q 314 1085 269 1108 q 428 1061 358 1061 m 543 1293 q 618 1329 591 1293 q 644 1432 644 1365 l 554 1432 q 507 1382 554 1382 q 448 1396 481 1382 q 380 1425 415 1410 q 313 1439 344 1439 q 238 1403 265 1439 q 211 1300 211 1368 l 301 1300 q 349 1350 301 1350 q 408 1336 375 1350 q 476 1307 441 1322 q 543 1293 511 1293 "},"Â":{"ha":856,"x_min":10,"x_max":846,"o":"m 636 263 l 636 382 l 219 382 l 219 263 l 636 263 m 408 843 l 707 0 l 846 0 l 497 972 l 358 972 l 10 0 l 149 0 l 447 843 l 408 843 m 251 1046 l 428 1138 l 604 1046 l 604 1131 l 428 1256 l 251 1131 l 251 1046 "},"Ấ":{"ha":856,"x_min":10,"x_max":846,"o":"m 636 263 l 636 382 l 219 382 l 219 263 l 636 263 m 408 843 l 707 0 l 846 0 l 497 972 l 358 972 l 10 0 l 149 0 l 447 843 l 408 843 m 251 1046 l 428 1138 l 604 1046 l 604 1131 l 428 1256 l 251 1131 l 251 1046 m 532 1249 l 624 1249 l 760 1411 l 624 1411 l 532 1249 "},"Ậ":{"ha":856,"x_min":10,"x_max":846,"o":"m 636 263 l 636 382 l 219 382 l 219 263 l 636 263 m 408 843 l 707 0 l 846 0 l 497 972 l 358 972 l 10 0 l 149 0 l 447 843 l 408 843 m 251 1075 l 428 1186 l 604 1075 l 604 1160 l 428 1313 l 251 1160 l 251 1075 "},"Ầ":{"ha":856,"x_min":10,"x_max":846,"o":"m 636 263 l 636 382 l 219 382 l 219 263 l 636 263 m 408 843 l 707 0 l 846 0 l 497 972 l 358 972 l 10 0 l 149 0 l 447 843 l 408 843 m 251 1046 l 428 1138 l 604 1046 l 604 1131 l 428 1256 l 251 1131 l 251 1046 m 551 1249 l 640 1249 l 563 1411 l 431 1411 l 551 1249 "},"Ẩ":{"ha":856,"x_min":10,"x_max":846,"o":"m 636 263 l 636 382 l 219 382 l 219 263 l 636 263 m 408 843 l 707 0 l 846 0 l 497 972 l 358 972 l 10 0 l 149 0 l 447 843 l 408 843 m 251 1046 l 428 1138 l 604 1046 l 604 1131 l 428 1256 l 251 1131 l 251 1046 m 561 1211 q 650 1254 623 1225 q 678 1329 678 1283 q 638 1408 678 1381 q 540 1436 598 1436 q 480 1429 508 1436 q 429 1410 452 1422 l 453 1339 q 497 1358 475 1351 q 540 1365 519 1365 q 582 1355 567 1365 q 597 1321 597 1344 q 585 1288 597 1301 q 549 1267 573 1275 l 561 1211 "},"Ẫ":{"ha":856,"x_min":10,"x_max":846,"o":"m 636 263 l 636 382 l 219 382 l 219 263 l 636 263 m 408 843 l 707 0 l 846 0 l 497 972 l 358 972 l 10 0 l 149 0 l 447 843 l 408 843 m 251 1046 l 428 1138 l 604 1046 l 604 1131 l 428 1256 l 251 1131 l 251 1046 m 543 1313 q 618 1348 591 1313 q 644 1451 644 1384 l 554 1451 q 507 1401 554 1401 q 448 1416 481 1401 q 380 1444 415 1430 q 313 1458 344 1458 q 238 1423 265 1458 q 211 1319 211 1388 l 301 1319 q 349 1369 301 1369 q 408 1355 375 1369 q 476 1327 441 1341 q 543 1313 511 1313 "},"Ȁ":{"ha":856,"x_min":10,"x_max":846,"o":"m 636 263 l 636 382 l 219 382 l 219 263 l 636 263 m 408 843 l 707 0 l 846 0 l 497 972 l 358 972 l 10 0 l 149 0 l 447 843 l 408 843 m 572 1094 l 492 1299 l 356 1299 l 481 1094 l 572 1094 m 378 1094 l 290 1299 l 154 1299 l 286 1094 l 378 1094 "},"Ä":{"ha":856,"x_min":10,"x_max":846,"o":"m 636 263 l 636 382 l 219 382 l 219 263 l 636 263 m 408 843 l 707 0 l 846 0 l 497 972 l 358 972 l 10 0 l 149 0 l 447 843 l 408 843 m 235 1103 l 354 1103 l 354 1207 l 235 1207 l 235 1103 m 501 1103 l 621 1103 l 621 1207 l 501 1207 l 501 1103 "},"Ạ":{"ha":856,"x_min":10,"x_max":846,"o":"m 636 263 l 636 382 l 219 382 l 219 263 l 636 263 m 408 843 l 707 0 l 846 0 l 497 972 l 358 972 l 10 0 l 149 0 l 447 843 l 408 843 "},"À":{"ha":856,"x_min":10,"x_max":846,"o":"m 636 263 l 636 382 l 219 382 l 219 263 l 636 263 m 408 843 l 707 0 l 846 0 l 497 972 l 358 972 l 10 0 l 149 0 l 447 843 l 408 843 m 557 1061 l 557 1142 l 297 1274 l 297 1142 l 557 1061 "},"Ả":{"ha":856,"x_min":10,"x_max":846,"o":"m 636 263 l 636 382 l 219 382 l 219 263 l 636 263 m 408 843 l 707 0 l 846 0 l 497 972 l 358 972 l 10 0 l 149 0 l 447 843 l 408 843 m 426 1056 q 516 1099 488 1069 q 543 1174 543 1128 q 503 1253 543 1225 q 406 1281 463 1281 q 345 1274 374 1281 q 294 1254 317 1267 l 318 1183 q 362 1202 340 1195 q 406 1210 384 1210 q 447 1199 432 1210 q 463 1165 463 1188 q 450 1133 463 1146 q 414 1111 438 1119 l 426 1056 "},"Ȃ":{"ha":856,"x_min":10,"x_max":846,"o":"m 636 263 l 636 382 l 219 382 l 219 263 l 636 263 m 408 843 l 707 0 l 846 0 l 497 972 l 358 972 l 10 0 l 149 0 l 447 843 l 408 843 m 428 1249 q 314 1225 358 1249 q 247 1163 269 1201 q 225 1082 225 1125 l 336 1082 q 363 1143 336 1123 q 428 1163 390 1163 q 492 1143 465 1163 q 519 1082 519 1123 l 631 1082 q 609 1163 631 1125 q 542 1225 587 1201 q 428 1249 497 1249 "},"Ā":{"ha":856,"x_min":10,"x_max":846,"o":"m 636 263 l 636 382 l 219 382 l 219 263 l 636 263 m 408 843 l 707 0 l 846 0 l 497 972 l 358 972 l 10 0 l 149 0 l 447 843 l 408 843 m 206 1101 l 650 1101 l 650 1196 l 206 1196 l 206 1101 "},"Ą":{"ha":856,"x_min":10,"x_max":886,"o":"m 636 263 l 636 382 l 219 382 l 219 263 l 636 263 m 408 843 l 707 0 l 846 0 l 497 972 l 358 972 l 10 0 l 149 0 l 447 843 l 408 843 m 746 0 q 667 -69 704 -24 q 631 -169 631 -114 q 672 -258 631 -228 q 771 -289 713 -289 q 838 -281 808 -289 q 886 -262 867 -273 l 865 -194 q 823 -212 844 -206 q 778 -218 802 -218 q 730 -200 748 -218 q 711 -147 711 -183 q 741 -73 711 -108 q 819 0 771 -37 l 746 0 "},"Å":{"ha":856,"x_min":10,"x_max":846,"o":"m 636 263 l 636 382 l 219 382 l 219 263 l 636 263 m 408 843 l 707 0 l 846 0 l 497 972 l 358 972 l 10 0 l 149 0 l 447 843 l 408 843 m 428 1050 q 536 1092 501 1050 q 572 1186 572 1133 q 536 1280 572 1238 q 428 1322 500 1322 q 320 1280 357 1322 q 283 1186 283 1238 q 320 1092 283 1133 q 428 1050 356 1050 m 428 1111 q 376 1131 399 1111 q 353 1186 353 1151 q 375 1240 353 1219 q 428 1261 398 1261 q 481 1240 458 1261 q 503 1186 503 1219 q 480 1131 503 1151 q 428 1111 457 1111 "},"Ǻ":{"ha":856,"x_min":10,"x_max":846,"o":"m 636 263 l 636 382 l 219 382 l 219 263 l 636 263 m 408 843 l 707 0 l 846 0 l 497 972 l 358 972 l 10 0 l 149 0 l 447 843 l 408 843 m 428 1050 q 536 1092 501 1050 q 572 1186 572 1133 q 536 1280 572 1238 q 428 1322 500 1322 q 320 1280 357 1322 q 283 1186 283 1238 q 320 1092 283 1133 q 428 1050 356 1050 m 428 1111 q 376 1131 399 1111 q 353 1186 353 1151 q 375 1240 353 1219 q 428 1261 398 1261 q 481 1240 458 1261 q 503 1186 503 1219 q 480 1131 503 1151 q 428 1111 457 1111 m 299 1368 l 558 1449 l 558 1581 l 299 1449 l 299 1368 "},"Ã":{"ha":856,"x_min":10,"x_max":846,"o":"m 636 263 l 636 382 l 219 382 l 219 263 l 636 263 m 408 843 l 707 0 l 846 0 l 497 972 l 358 972 l 10 0 l 149 0 l 447 843 l 408 843 m 543 1094 q 618 1130 591 1094 q 644 1233 644 1166 l 554 1233 q 507 1183 554 1183 q 448 1198 481 1183 q 380 1226 415 1212 q 313 1240 344 1240 q 238 1205 265 1240 q 211 1101 211 1169 l 301 1101 q 349 1151 301 1151 q 408 1137 375 1151 q 476 1109 441 1123 q 543 1094 511 1094 "},"Æ":{"ha":1203,"x_min":-10,"x_max":1150,"o":"m -10 0 l 119 0 l 544 849 l 544 0 l 1150 0 l 1150 119 l 703 119 l 703 449 l 1038 449 l 1038 568 l 703 568 l 703 851 l 1136 851 l 1136 972 l 465 972 l -10 0 m 215 250 l 567 250 l 567 378 l 215 378 l 215 250 "},"Ǽ":{"ha":1203,"x_min":-10,"x_max":1150,"o":"m -10 0 l 119 0 l 544 849 l 544 0 l 1150 0 l 1150 119 l 703 119 l 703 449 l 1038 449 l 1038 568 l 703 568 l 703 851 l 1136 851 l 1136 972 l 465 972 l -10 0 m 215 250 l 567 250 l 567 378 l 215 378 l 215 250 m 672 1061 l 932 1142 l 932 1274 l 672 1142 l 672 1061 "},"B":{"ha":829,"x_min":111,"x_max":788,"o":"m 111 0 l 478 0 q 705 75 623 0 q 788 278 788 150 q 732 452 788 388 q 575 533 676 517 l 556 511 q 662 592 626 530 q 697 735 697 653 q 623 914 697 855 q 418 972 549 972 l 111 972 l 111 0 m 243 119 l 243 449 l 467 449 q 594 411 545 449 q 643 282 643 374 q 595 160 643 200 q 467 119 547 119 l 243 119 m 243 568 l 243 854 l 401 854 q 517 825 472 854 q 561 711 561 797 q 517 597 561 625 q 401 568 472 568 l 243 568 "},"C":{"ha":856,"x_min":54,"x_max":810,"o":"m 544 -19 q 692 -3 627 -19 q 810 36 758 13 l 796 158 q 680 116 741 131 q 546 100 618 100 q 355 152 432 100 q 238 291 277 203 q 199 486 199 378 q 239 681 199 594 q 356 820 278 769 q 549 872 434 872 q 681 855 619 872 q 796 813 744 838 l 810 935 q 692 976 759 960 q 550 992 624 992 q 295 930 407 992 q 118 754 183 867 q 54 486 54 640 q 118 218 54 332 q 292 43 181 105 q 544 -19 403 -19 "},"Ć":{"ha":856,"x_min":54,"x_max":810,"o":"m 544 -19 q 692 -3 627 -19 q 810 36 758 13 l 796 158 q 680 116 741 131 q 546 100 618 100 q 355 152 432 100 q 238 291 277 203 q 199 486 199 378 q 239 681 199 594 q 356 820 278 769 q 549 872 434 872 q 681 855 619 872 q 796 813 744 838 l 810 935 q 692 976 759 960 q 550 992 624 992 q 295 930 407 992 q 118 754 183 867 q 54 486 54 640 q 118 218 54 332 q 292 43 181 105 q 544 -19 403 -19 m 393 1061 l 653 1142 l 653 1274 l 393 1142 l 393 1061 "},"Č":{"ha":856,"x_min":54,"x_max":810,"o":"m 544 -19 q 692 -3 627 -19 q 810 36 758 13 l 796 158 q 680 116 741 131 q 546 100 618 100 q 355 152 432 100 q 238 291 277 203 q 199 486 199 378 q 239 681 199 594 q 356 820 278 769 q 549 872 434 872 q 681 855 619 872 q 796 813 744 838 l 810 935 q 692 976 759 960 q 550 992 624 992 q 295 930 407 992 q 118 754 183 867 q 54 486 54 640 q 118 218 54 332 q 292 43 181 105 q 544 -19 403 -19 "},"Ç":{"ha":856,"x_min":54,"x_max":810,"o":"m 544 -19 q 692 -3 627 -19 q 810 36 758 13 l 796 158 q 680 116 741 131 q 546 100 618 100 q 355 152 432 100 q 238 291 277 203 q 199 486 199 378 q 239 681 199 594 q 356 820 278 769 q 549 872 434 872 q 681 855 619 872 q 796 813 744 838 l 810 935 q 692 976 759 960 q 550 992 624 992 q 295 930 407 992 q 118 754 183 867 q 54 486 54 640 q 118 218 54 332 q 292 43 181 105 q 544 -19 403 -19 m 536 -110 l 571 0 l 501 0 l 465 -146 q 499 -137 483 -140 q 529 -135 514 -135 q 582 -150 565 -135 q 599 -190 599 -165 q 581 -230 599 -216 q 532 -243 563 -243 q 487 -237 508 -243 q 444 -219 465 -231 l 424 -287 q 469 -306 442 -298 q 532 -314 497 -314 q 636 -281 594 -314 q 679 -187 679 -249 q 647 -105 679 -135 q 558 -75 615 -75 q 523 -79 540 -75 q 490 -89 507 -83 l 536 -110 "},"Ḉ":{"ha":856,"x_min":54,"x_max":810,"o":"m 544 -19 q 692 -3 627 -19 q 810 36 758 13 l 796 158 q 680 116 741 131 q 546 100 618 100 q 355 152 432 100 q 238 291 277 203 q 199 486 199 378 q 239 681 199 594 q 356 820 278 769 q 549 872 434 872 q 681 855 619 872 q 796 813 744 838 l 810 935 q 692 976 759 960 q 550 992 624 992 q 295 930 407 992 q 118 754 183 867 q 54 486 54 640 q 118 218 54 332 q 292 43 181 105 q 544 -19 403 -19 m 536 -110 l 571 0 l 501 0 l 465 -146 q 499 -137 483 -140 q 529 -135 514 -135 q 582 -150 565 -135 q 599 -190 599 -165 q 581 -230 599 -216 q 532 -243 563 -243 q 487 -237 508 -243 q 444 -219 465 -231 l 424 -287 q 469 -306 442 -298 q 532 -314 497 -314 q 636 -281 594 -314 q 679 -187 679 -249 q 647 -105 679 -135 q 558 -75 615 -75 q 523 -79 540 -75 q 490 -89 507 -83 l 536 -110 m 393 1061 l 653 1142 l 653 1274 l 393 1142 l 393 1061 "},"Ĉ":{"ha":856,"x_min":54,"x_max":810,"o":"m 544 -19 q 692 -3 627 -19 q 810 36 758 13 l 796 158 q 680 116 741 131 q 546 100 618 100 q 355 152 432 100 q 238 291 277 203 q 199 486 199 378 q 239 681 199 594 q 356 820 278 769 q 549 872 434 872 q 681 855 619 872 q 796 813 744 838 l 810 935 q 692 976 759 960 q 550 992 624 992 q 295 930 407 992 q 118 754 183 867 q 54 486 54 640 q 118 218 54 332 q 292 43 181 105 q 544 -19 403 -19 m 346 1046 l 522 1138 l 699 1046 l 699 1131 l 522 1256 l 346 1131 l 346 1046 "},"Ċ":{"ha":856,"x_min":54,"x_max":810,"o":"m 544 -19 q 692 -3 627 -19 q 810 36 758 13 l 796 158 q 680 116 741 131 q 546 100 618 100 q 355 152 432 100 q 238 291 277 203 q 199 486 199 378 q 239 681 199 594 q 356 820 278 769 q 549 872 434 872 q 681 855 619 872 q 796 813 744 838 l 810 935 q 692 976 759 960 q 550 992 624 992 q 295 930 407 992 q 118 754 183 867 q 54 486 54 640 q 118 218 54 332 q 292 43 181 105 q 544 -19 403 -19 m 456 1099 l 589 1099 l 589 1224 l 456 1224 l 456 1099 "},"D":{"ha":1010,"x_min":111,"x_max":954,"o":"m 111 0 l 471 0 q 721 58 612 0 q 892 224 830 115 q 954 486 954 333 q 892 748 954 640 q 721 915 830 857 q 471 972 612 972 l 111 972 l 111 0 m 243 119 l 243 853 l 471 853 q 657 807 582 853 q 771 678 733 760 q 810 486 810 595 q 771 294 810 377 q 657 166 733 212 q 471 119 582 119 l 243 119 "},"Ǆ":{"ha":1743,"x_min":111,"x_max":1733,"o":"m 111 0 l 471 0 q 721 58 612 0 q 892 224 830 115 q 954 486 954 333 q 892 748 954 640 q 721 915 830 857 q 471 972 612 972 l 111 972 l 111 0 m 243 119 l 243 853 l 471 853 q 657 807 582 853 q 771 678 733 760 q 810 486 810 595 q 771 294 810 377 q 657 166 733 212 q 471 119 582 119 l 243 119 "},"Ð":{"ha":1013,"x_min":25,"x_max":957,"o":"m 122 0 l 478 0 q 725 58 617 0 q 895 224 833 115 q 957 486 957 333 q 895 748 957 640 q 725 915 833 857 q 478 972 617 972 l 122 972 l 122 551 l 25 551 l 25 435 l 122 435 l 122 0 m 247 121 l 247 435 l 432 435 l 432 551 l 247 551 l 247 853 l 478 853 q 731 752 646 853 q 815 486 815 652 q 731 221 815 321 q 478 121 646 121 l 247 121 "},"Ď":{"ha":1010,"x_min":111,"x_max":954,"o":"m 111 0 l 471 0 q 721 58 612 0 q 892 224 830 115 q 954 486 954 333 q 892 748 954 640 q 721 915 830 857 q 471 972 612 972 l 111 972 l 111 0 m 243 119 l 243 853 l 471 853 q 657 807 582 853 q 771 678 733 760 q 810 486 810 595 q 771 294 810 377 q 657 166 733 212 q 471 119 582 119 l 243 119 "},"Đ":{"ha":1013,"x_min":25,"x_max":957,"o":"m 122 0 l 478 0 q 725 58 617 0 q 895 224 833 115 q 957 486 957 333 q 895 748 957 640 q 725 915 833 857 q 478 972 617 972 l 122 972 l 122 551 l 25 551 l 25 435 l 122 435 l 122 0 m 247 121 l 247 435 l 432 435 l 432 551 l 247 551 l 247 853 l 478 853 q 731 752 646 853 q 815 486 815 652 q 731 221 815 321 q 478 121 646 121 l 247 121 "},"Ḍ":{"ha":1010,"x_min":111,"x_max":954,"o":"m 111 0 l 471 0 q 721 58 612 0 q 892 224 830 115 q 954 486 954 333 q 892 748 954 640 q 721 915 830 857 q 471 972 612 972 l 111 972 l 111 0 m 243 119 l 243 853 l 471 853 q 657 807 582 853 q 771 678 733 760 q 810 486 810 595 q 771 294 810 377 q 657 166 733 212 q 471 119 582 119 l 243 119 "},"Ḏ":{"ha":1010,"x_min":111,"x_max":954,"o":"m 111 0 l 471 0 q 721 58 612 0 q 892 224 830 115 q 954 486 954 333 q 892 748 954 640 q 721 915 830 857 q 471 972 612 972 l 111 972 l 111 0 m 243 119 l 243 853 l 471 853 q 657 807 582 853 q 771 678 733 760 q 810 486 810 595 q 771 294 810 377 q 657 166 733 212 q 471 119 582 119 l 243 119 "},"ǅ":{"ha":1656,"x_min":111,"x_max":1621,"o":"m 111 0 l 471 0 q 721 58 612 0 q 892 224 830 115 q 954 486 954 333 q 892 748 954 640 q 721 915 830 857 q 471 972 612 972 l 111 972 l 111 0 m 243 119 l 243 853 l 471 853 q 657 807 582 853 q 771 678 733 760 q 810 486 810 595 q 771 294 810 377 q 657 166 733 212 q 471 119 582 119 l 243 119 "},"E":{"ha":769,"x_min":111,"x_max":717,"o":"m 111 0 l 717 0 l 717 119 l 243 119 l 243 449 l 610 449 l 610 568 l 243 568 l 243 853 l 704 853 l 704 972 l 111 972 l 111 0 "},"É":{"ha":769,"x_min":111,"x_max":717,"o":"m 111 0 l 717 0 l 717 119 l 243 119 l 243 449 l 610 449 l 610 568 l 243 568 l 243 853 l 704 853 l 704 972 l 111 972 l 111 0 m 293 1061 l 553 1142 l 553 1274 l 293 1142 l 293 1061 "},"Ĕ":{"ha":769,"x_min":111,"x_max":717,"o":"m 111 0 l 717 0 l 717 119 l 243 119 l 243 449 l 610 449 l 610 568 l 243 568 l 243 853 l 704 853 l 704 972 l 111 972 l 111 0 m 422 1061 q 536 1085 492 1061 q 603 1147 581 1108 q 625 1228 625 1185 l 514 1228 q 487 1167 514 1188 q 422 1147 460 1147 q 358 1167 385 1147 q 331 1228 331 1188 l 219 1228 q 241 1147 219 1185 q 308 1085 263 1108 q 422 1061 353 1061 "},"Ě":{"ha":769,"x_min":111,"x_max":717,"o":"m 111 0 l 717 0 l 717 119 l 243 119 l 243 449 l 610 449 l 610 568 l 243 568 l 243 853 l 704 853 l 704 972 l 111 972 l 111 0 "},"Ḝ":{"ha":769,"x_min":111,"x_max":717,"o":"m 111 0 l 717 0 l 717 119 l 243 119 l 243 449 l 610 449 l 610 568 l 243 568 l 243 853 l 704 853 l 704 972 l 111 972 l 111 0 m 429 -110 l 464 0 l 394 0 l 358 -146 q 392 -137 376 -140 q 422 -135 407 -135 q 475 -150 458 -135 q 492 -190 492 -165 q 474 -230 492 -216 q 425 -243 456 -243 q 380 -237 401 -243 q 338 -219 358 -231 l 317 -287 q 363 -306 335 -298 q 425 -314 390 -314 q 530 -281 487 -314 q 572 -187 572 -249 q 540 -105 572 -135 q 451 -75 508 -75 q 416 -79 433 -75 q 383 -89 400 -83 l 429 -110 m 422 1061 q 536 1085 492 1061 q 603 1147 581 1108 q 625 1228 625 1185 l 514 1228 q 487 1167 514 1188 q 422 1147 460 1147 q 358 1167 385 1147 q 331 1228 331 1188 l 219 1228 q 241 1147 219 1185 q 308 1085 263 1108 q 422 1061 353 1061 "},"Ê":{"ha":769,"x_min":111,"x_max":717,"o":"m 111 0 l 717 0 l 717 119 l 243 119 l 243 449 l 610 449 l 610 568 l 243 568 l 243 853 l 704 853 l 704 972 l 111 972 l 111 0 m 246 1046 l 422 1138 l 599 1046 l 599 1131 l 422 1256 l 246 1131 l 246 1046 "},"Ế":{"ha":769,"x_min":111,"x_max":754,"o":"m 111 0 l 717 0 l 717 119 l 243 119 l 243 449 l 610 449 l 610 568 l 243 568 l 243 853 l 704 853 l 704 972 l 111 972 l 111 0 m 246 1046 l 422 1138 l 599 1046 l 599 1131 l 422 1256 l 246 1131 l 246 1046 m 526 1249 l 618 1249 l 754 1411 l 618 1411 l 526 1249 "},"Ệ":{"ha":769,"x_min":111,"x_max":717,"o":"m 111 0 l 717 0 l 717 119 l 243 119 l 243 449 l 610 449 l 610 568 l 243 568 l 243 853 l 704 853 l 704 972 l 111 972 l 111 0 m 246 1046 l 422 1138 l 599 1046 l 599 1131 l 422 1256 l 246 1131 l 246 1046 "},"Ề":{"ha":769,"x_min":111,"x_max":717,"o":"m 111 0 l 717 0 l 717 119 l 243 119 l 243 449 l 610 449 l 610 568 l 243 568 l 243 853 l 704 853 l 704 972 l 111 972 l 111 0 m 246 1046 l 422 1138 l 599 1046 l 599 1131 l 422 1256 l 246 1131 l 246 1046 m 546 1249 l 635 1249 l 557 1411 l 425 1411 l 546 1249 "},"Ể":{"ha":769,"x_min":111,"x_max":717,"o":"m 111 0 l 717 0 l 717 119 l 243 119 l 243 449 l 610 449 l 610 568 l 243 568 l 243 853 l 704 853 l 704 972 l 111 972 l 111 0 m 246 1046 l 422 1138 l 599 1046 l 599 1131 l 422 1256 l 246 1131 l 246 1046 m 556 1211 q 645 1254 617 1225 q 672 1329 672 1283 q 632 1408 672 1381 q 535 1436 592 1436 q 475 1429 503 1436 q 424 1410 447 1422 l 447 1339 q 491 1358 469 1351 q 535 1365 513 1365 q 576 1355 561 1365 q 592 1321 592 1344 q 580 1288 592 1301 q 543 1267 567 1275 l 556 1211 "},"Ễ":{"ha":769,"x_min":111,"x_max":717,"o":"m 111 0 l 717 0 l 717 119 l 243 119 l 243 449 l 610 449 l 610 568 l 243 568 l 243 853 l 704 853 l 704 972 l 111 972 l 111 0 m 246 1046 l 422 1138 l 599 1046 l 599 1131 l 422 1256 l 246 1131 l 246 1046 m 538 1313 q 612 1348 585 1313 q 639 1451 639 1384 l 549 1451 q 501 1401 549 1401 q 442 1416 475 1401 q 374 1444 409 1430 q 307 1458 339 1458 q 232 1423 259 1458 q 206 1319 206 1388 l 296 1319 q 343 1369 296 1369 q 402 1355 369 1369 q 470 1327 435 1341 q 538 1313 506 1313 "},"Ȅ":{"ha":769,"x_min":111,"x_max":717,"o":"m 111 0 l 717 0 l 717 119 l 243 119 l 243 449 l 610 449 l 610 568 l 243 568 l 243 853 l 704 853 l 704 972 l 111 972 l 111 0 m 567 1094 l 486 1299 l 350 1299 l 475 1094 l 567 1094 m 372 1094 l 285 1299 l 149 1299 l 281 1094 l 372 1094 "},"Ë":{"ha":769,"x_min":111,"x_max":717,"o":"m 111 0 l 717 0 l 717 119 l 243 119 l 243 449 l 610 449 l 610 568 l 243 568 l 243 853 l 704 853 l 704 972 l 111 972 l 111 0 m 229 1103 l 349 1103 l 349 1207 l 229 1207 l 229 1103 m 496 1103 l 615 1103 l 615 1207 l 496 1207 l 496 1103 "},"Ė":{"ha":769,"x_min":111,"x_max":717,"o":"m 111 0 l 717 0 l 717 119 l 243 119 l 243 449 l 610 449 l 610 568 l 243 568 l 243 853 l 704 853 l 704 972 l 111 972 l 111 0 m 356 1099 l 489 1099 l 489 1224 l 356 1224 l 356 1099 "},"Ẹ":{"ha":769,"x_min":111,"x_max":717,"o":"m 111 0 l 717 0 l 717 119 l 243 119 l 243 449 l 610 449 l 610 568 l 243 568 l 243 853 l 704 853 l 704 972 l 111 972 l 111 0 "},"È":{"ha":769,"x_min":111,"x_max":717,"o":"m 111 0 l 717 0 l 717 119 l 243 119 l 243 449 l 610 449 l 610 568 l 243 568 l 243 853 l 704 853 l 704 972 l 111 972 l 111 0 m 551 1061 l 551 1142 l 292 1274 l 292 1142 l 551 1061 "},"Ẻ":{"ha":769,"x_min":111,"x_max":717,"o":"m 111 0 l 717 0 l 717 119 l 243 119 l 243 449 l 610 449 l 610 568 l 243 568 l 243 853 l 704 853 l 704 972 l 111 972 l 111 0 m 421 1056 q 510 1099 483 1069 q 538 1174 538 1128 q 498 1253 538 1225 q 400 1281 458 1281 q 340 1274 368 1281 q 289 1254 312 1267 l 313 1183 q 357 1202 335 1195 q 400 1210 378 1210 q 442 1199 426 1210 q 457 1165 457 1188 q 445 1133 457 1146 q 408 1111 433 1119 l 421 1056 "},"Ȇ":{"ha":769,"x_min":111,"x_max":717,"o":"m 111 0 l 717 0 l 717 119 l 243 119 l 243 449 l 610 449 l 610 568 l 243 568 l 243 853 l 704 853 l 704 972 l 111 972 l 111 0 m 422 1249 q 308 1225 353 1249 q 241 1163 263 1201 q 219 1082 219 1125 l 331 1082 q 358 1143 331 1123 q 422 1163 385 1163 q 487 1143 460 1163 q 514 1082 514 1123 l 625 1082 q 603 1163 625 1125 q 536 1225 581 1201 q 422 1249 492 1249 "},"Ē":{"ha":769,"x_min":111,"x_max":717,"o":"m 111 0 l 717 0 l 717 119 l 243 119 l 243 449 l 610 449 l 610 568 l 243 568 l 243 853 l 704 853 l 704 972 l 111 972 l 111 0 m 200 1101 l 644 1101 l 644 1196 l 200 1196 l 200 1101 "},"Ḗ":{"ha":769,"x_min":111,"x_max":717,"o":"m 111 0 l 717 0 l 717 119 l 243 119 l 243 449 l 610 449 l 610 568 l 243 568 l 243 853 l 704 853 l 704 972 l 111 972 l 111 0 m 200 1101 l 644 1101 l 644 1196 l 200 1196 l 200 1101 m 293 1300 l 553 1381 l 553 1513 l 293 1381 l 293 1300 "},"Ḕ":{"ha":769,"x_min":111,"x_max":717,"o":"m 111 0 l 717 0 l 717 119 l 243 119 l 243 449 l 610 449 l 610 568 l 243 568 l 243 853 l 704 853 l 704 972 l 111 972 l 111 0 m 200 1101 l 644 1101 l 644 1196 l 200 1196 l 200 1101 m 551 1300 l 551 1381 l 292 1513 l 292 1381 l 551 1300 "},"Ę":{"ha":769,"x_min":111,"x_max":783,"o":"m 111 0 l 717 0 l 717 119 l 243 119 l 243 449 l 610 449 l 610 568 l 243 568 l 243 853 l 704 853 l 704 972 l 111 972 l 111 0 m 643 0 q 565 -69 601 -24 q 528 -169 528 -114 q 569 -258 528 -228 q 668 -289 610 -289 q 735 -281 706 -289 q 783 -262 764 -273 l 763 -194 q 720 -212 742 -206 q 675 -218 699 -218 q 627 -200 645 -218 q 608 -147 608 -183 q 638 -73 608 -108 q 717 0 668 -37 l 643 0 "},"Ẽ":{"ha":769,"x_min":111,"x_max":717,"o":"m 111 0 l 717 0 l 717 119 l 243 119 l 243 449 l 610 449 l 610 568 l 243 568 l 243 853 l 704 853 l 704 972 l 111 972 l 111 0 m 538 1094 q 612 1130 585 1094 q 639 1233 639 1166 l 549 1233 q 501 1183 549 1183 q 442 1198 475 1183 q 374 1226 409 1212 q 307 1240 339 1240 q 232 1205 259 1240 q 206 1101 206 1169 l 296 1101 q 343 1151 296 1151 q 402 1137 369 1151 q 470 1109 435 1123 q 538 1094 506 1094 "},"F":{"ha":726,"x_min":111,"x_max":704,"o":"m 111 0 l 243 0 l 243 449 l 599 449 l 599 568 l 243 568 l 243 853 l 704 853 l 704 972 l 111 972 l 111 0 "},"G":{"ha":933,"x_min":54,"x_max":863,"o":"m 531 -19 q 721 2 636 -19 q 863 54 806 23 l 863 488 l 578 488 l 578 368 l 731 368 l 731 126 q 646 106 692 111 q 568 100 599 100 q 360 150 442 100 q 238 288 278 201 q 199 486 199 375 q 238 681 199 594 q 357 820 276 769 q 561 872 437 872 q 697 858 633 872 q 818 821 761 843 l 831 936 q 707 975 778 959 q 557 992 635 992 q 298 930 411 992 q 119 754 184 867 q 54 488 54 641 q 117 219 54 333 q 288 43 180 105 q 531 -19 396 -19 "},"Ğ":{"ha":933,"x_min":54,"x_max":863,"o":"m 531 -19 q 721 2 636 -19 q 863 54 806 23 l 863 488 l 578 488 l 578 368 l 731 368 l 731 126 q 646 106 692 111 q 568 100 599 100 q 360 150 442 100 q 238 288 278 201 q 199 486 199 375 q 238 681 199 594 q 357 820 276 769 q 561 872 437 872 q 697 858 633 872 q 818 821 761 843 l 831 936 q 707 975 778 959 q 557 992 635 992 q 298 930 411 992 q 119 754 184 867 q 54 488 54 641 q 117 219 54 333 q 288 43 180 105 q 531 -19 396 -19 m 560 1061 q 674 1085 629 1061 q 741 1147 719 1108 q 763 1228 763 1185 l 651 1228 q 624 1167 651 1188 q 560 1147 597 1147 q 495 1167 522 1147 q 468 1228 468 1188 l 357 1228 q 379 1147 357 1185 q 445 1085 401 1108 q 560 1061 490 1061 "},"Ǧ":{"ha":933,"x_min":54,"x_max":863,"o":"m 531 -19 q 721 2 636 -19 q 863 54 806 23 l 863 488 l 578 488 l 578 368 l 731 368 l 731 126 q 646 106 692 111 q 568 100 599 100 q 360 150 442 100 q 238 288 278 201 q 199 486 199 375 q 238 681 199 594 q 357 820 276 769 q 561 872 437 872 q 697 858 633 872 q 818 821 761 843 l 831 936 q 707 975 778 959 q 557 992 635 992 q 298 930 411 992 q 119 754 184 867 q 54 488 54 641 q 117 219 54 333 q 288 43 180 105 q 531 -19 396 -19 "},"Ĝ":{"ha":933,"x_min":54,"x_max":863,"o":"m 531 -19 q 721 2 636 -19 q 863 54 806 23 l 863 488 l 578 488 l 578 368 l 731 368 l 731 126 q 646 106 692 111 q 568 100 599 100 q 360 150 442 100 q 238 288 278 201 q 199 486 199 375 q 238 681 199 594 q 357 820 276 769 q 561 872 437 872 q 697 858 633 872 q 818 821 761 843 l 831 936 q 707 975 778 959 q 557 992 635 992 q 298 930 411 992 q 119 754 184 867 q 54 488 54 641 q 117 219 54 333 q 288 43 180 105 q 531 -19 396 -19 m 383 1046 l 560 1138 l 736 1046 l 736 1131 l 560 1256 l 383 1131 l 383 1046 "},"Ģ":{"ha":933,"x_min":54,"x_max":863,"o":"m 531 -19 q 721 2 636 -19 q 863 54 806 23 l 863 488 l 578 488 l 578 368 l 731 368 l 731 126 q 646 106 692 111 q 568 100 599 100 q 360 150 442 100 q 238 288 278 201 q 199 486 199 375 q 238 681 199 594 q 357 820 276 769 q 561 872 437 872 q 697 858 633 872 q 818 821 761 843 l 831 936 q 707 975 778 959 q 557 992 635 992 q 298 930 411 992 q 119 754 184 867 q 54 488 54 641 q 117 219 54 333 q 288 43 180 105 q 531 -19 396 -19 m 554 -422 l 626 -260 l 626 -126 l 476 -126 l 476 -274 l 525 -274 l 475 -422 l 554 -422 "},"Ġ":{"ha":933,"x_min":54,"x_max":863,"o":"m 531 -19 q 721 2 636 -19 q 863 54 806 23 l 863 488 l 578 488 l 578 368 l 731 368 l 731 126 q 646 106 692 111 q 568 100 599 100 q 360 150 442 100 q 238 288 278 201 q 199 486 199 375 q 238 681 199 594 q 357 820 276 769 q 561 872 437 872 q 697 858 633 872 q 818 821 761 843 l 831 936 q 707 975 778 959 q 557 992 635 992 q 298 930 411 992 q 119 754 184 867 q 54 488 54 641 q 117 219 54 333 q 288 43 180 105 q 531 -19 396 -19 m 493 1099 l 626 1099 l 626 1224 l 493 1224 l 493 1099 "},"Ḡ":{"ha":933,"x_min":54,"x_max":863,"o":"m 531 -19 q 721 2 636 -19 q 863 54 806 23 l 863 488 l 578 488 l 578 368 l 731 368 l 731 126 q 646 106 692 111 q 568 100 599 100 q 360 150 442 100 q 238 288 278 201 q 199 486 199 375 q 238 681 199 594 q 357 820 276 769 q 561 872 437 872 q 697 858 633 872 q 818 821 761 843 l 831 936 q 707 975 778 959 q 557 992 635 992 q 298 930 411 992 q 119 754 184 867 q 54 488 54 641 q 117 219 54 333 q 288 43 180 105 q 531 -19 396 -19 m 338 1101 l 782 1101 l 782 1196 l 338 1196 l 338 1101 "},"H":{"ha":981,"x_min":111,"x_max":869,"o":"m 111 0 l 243 0 l 243 446 l 738 446 l 738 0 l 869 0 l 869 972 l 738 972 l 738 571 l 243 571 l 243 972 l 111 972 l 111 0 "},"Ħ":{"ha":1036,"x_min":14,"x_max":1022,"o":"m 111 0 l 243 0 l 243 446 l 793 446 l 793 0 l 925 0 l 925 972 l 793 972 l 793 571 l 243 571 l 243 972 l 111 972 l 111 0 m 14 694 l 1022 694 l 1022 783 l 14 783 l 14 694 "},"Ḫ":{"ha":981,"x_min":111,"x_max":869,"o":"m 111 0 l 243 0 l 243 446 l 738 446 l 738 0 l 869 0 l 869 972 l 738 972 l 738 571 l 243 571 l 243 972 l 111 972 l 111 0 "},"Ĥ":{"ha":981,"x_min":111,"x_max":869,"o":"m 111 0 l 243 0 l 243 446 l 738 446 l 738 0 l 869 0 l 869 972 l 738 972 l 738 571 l 243 571 l 243 972 l 111 972 l 111 0 m 314 1046 l 490 1138 l 667 1046 l 667 1131 l 490 1256 l 314 1131 l 314 1046 "},"Ḥ":{"ha":981,"x_min":111,"x_max":869,"o":"m 111 0 l 243 0 l 243 446 l 738 446 l 738 0 l 869 0 l 869 972 l 738 972 l 738 571 l 243 571 l 243 972 l 111 972 l 111 0 "},"I":{"ha":354,"x_min":111,"x_max":243,"o":"m 111 0 l 243 0 l 243 972 l 111 972 l 111 0 "},"Ĳ":{"ha":950,"x_min":100,"x_max":850,"o":"m 238 339 l 106 321 q 216 71 124 162 q 475 -19 308 -19 q 685 33 602 -19 q 809 182 769 85 q 850 413 850 279 l 850 972 l 718 972 l 718 449 q 709 320 718 383 q 674 208 699 258 q 601 129 649 158 q 475 100 553 100 q 343 132 392 100 q 269 219 294 165 q 238 339 245 273 m 100 449 l 232 449 l 232 972 l 100 972 l 100 449 "},"Í":{"ha":354,"x_min":49,"x_max":308,"o":"m 111 0 l 243 0 l 243 972 l 111 972 l 111 0 m 49 1061 l 308 1142 l 308 1274 l 49 1142 l 49 1061 "},"Ĭ":{"ha":354,"x_min":-25,"x_max":381,"o":"m 111 0 l 243 0 l 243 972 l 111 972 l 111 0 m 178 1061 q 292 1085 247 1061 q 359 1147 337 1108 q 381 1228 381 1185 l 269 1228 q 242 1167 269 1188 q 178 1147 215 1147 q 113 1167 140 1147 q 86 1228 86 1188 l -25 1228 q -3 1147 -25 1185 q 64 1085 19 1108 q 178 1061 108 1061 "},"Î":{"ha":354,"x_min":1,"x_max":354,"o":"m 111 0 l 243 0 l 243 972 l 111 972 l 111 0 m 1 1046 l 178 1138 l 354 1046 l 354 1131 l 178 1256 l 1 1131 l 1 1046 "},"Ȉ":{"ha":354,"x_min":-96,"x_max":322,"o":"m 111 0 l 243 0 l 243 972 l 111 972 l 111 0 m 322 1094 l 242 1299 l 106 1299 l 231 1094 l 322 1094 m 128 1094 l 40 1299 l -96 1299 l 36 1094 l 128 1094 "},"Ï":{"ha":354,"x_min":-15,"x_max":371,"o":"m 111 0 l 243 0 l 243 972 l 111 972 l 111 0 m -15 1103 l 104 1103 l 104 1207 l -15 1207 l -15 1103 m 251 1103 l 371 1103 l 371 1207 l 251 1207 l 251 1103 "},"Ḯ":{"ha":354,"x_min":-15,"x_max":371,"o":"m 111 0 l 243 0 l 243 972 l 111 972 l 111 0 m -15 1103 l 104 1103 l 104 1207 l -15 1207 l -15 1103 m 251 1103 l 371 1103 l 371 1207 l 251 1207 l 251 1103 m 49 1283 l 308 1364 l 308 1496 l 49 1364 l 49 1283 "},"İ":{"ha":354,"x_min":111,"x_max":244,"o":"m 111 0 l 243 0 l 243 972 l 111 972 l 111 0 m 111 1099 l 244 1099 l 244 1224 l 111 1224 l 111 1099 "},"Ị":{"ha":354,"x_min":111,"x_max":244,"o":"m 111 0 l 243 0 l 243 972 l 111 972 l 111 0 "},"Ì":{"ha":354,"x_min":47,"x_max":307,"o":"m 111 0 l 243 0 l 243 972 l 111 972 l 111 0 m 307 1061 l 307 1142 l 47 1274 l 47 1142 l 307 1061 "},"Ỉ":{"ha":354,"x_min":44,"x_max":293,"o":"m 111 0 l 243 0 l 243 972 l 111 972 l 111 0 m 176 1056 q 266 1099 238 1069 q 293 1174 293 1128 q 253 1253 293 1225 q 156 1281 213 1281 q 95 1274 124 1281 q 44 1254 67 1267 l 68 1183 q 112 1202 90 1195 q 156 1210 134 1210 q 197 1199 182 1210 q 213 1165 213 1188 q 200 1133 213 1146 q 164 1111 188 1119 l 176 1056 "},"Ȋ":{"ha":354,"x_min":-25,"x_max":381,"o":"m 111 0 l 243 0 l 243 972 l 111 972 l 111 0 m 178 1249 q 64 1225 108 1249 q -3 1163 19 1201 q -25 1082 -25 1125 l 86 1082 q 113 1143 86 1123 q 178 1163 140 1163 q 242 1143 215 1163 q 269 1082 269 1123 l 381 1082 q 359 1163 381 1125 q 292 1225 337 1201 q 178 1249 247 1249 "},"Ī":{"ha":354,"x_min":-44,"x_max":400,"o":"m 111 0 l 243 0 l 243 972 l 111 972 l 111 0 m -44 1101 l 400 1101 l 400 1196 l -44 1196 l -44 1101 "},"Į":{"ha":354,"x_min":54,"x_max":310,"o":"m 111 0 l 243 0 l 243 972 l 111 972 l 111 0 m 169 0 q 91 -69 128 -24 q 54 -169 54 -114 q 95 -258 54 -228 q 194 -289 136 -289 q 261 -281 232 -289 q 310 -262 290 -273 l 289 -194 q 247 -212 268 -206 q 201 -218 226 -218 q 153 -200 172 -218 q 135 -147 135 -183 q 165 -73 135 -108 q 243 0 194 -37 l 169 0 "},"Ĩ":{"ha":354,"x_min":-39,"x_max":394,"o":"m 111 0 l 243 0 l 243 972 l 111 972 l 111 0 m 293 1094 q 368 1130 341 1094 q 394 1233 394 1166 l 304 1233 q 257 1183 304 1183 q 198 1198 231 1183 q 130 1226 165 1212 q 63 1240 94 1240 q -12 1205 15 1240 q -39 1101 -39 1169 l 51 1101 q 99 1151 51 1151 q 158 1137 125 1151 q 226 1109 191 1123 q 293 1094 261 1094 "},"J":{"ha":354,"x_min":-28,"x_max":243,"o":"m -10 -239 l 26 -239 q 190 -186 136 -239 q 243 -19 243 -134 l 243 972 l 111 972 l 111 11 q 79 -92 111 -60 q -28 -125 47 -125 l -10 -239 "},"Ĵ":{"ha":354,"x_min":-28,"x_max":354,"o":"m -10 -239 l 26 -239 q 190 -186 136 -239 q 243 -19 243 -134 l 243 972 l 111 972 l 111 11 q 79 -92 111 -60 q -28 -125 47 -125 l -10 -239 m 1 1046 l 178 1138 l 354 1046 l 354 1131 l 178 1256 l 1 1131 l 1 1046 "},"K":{"ha":786,"x_min":111,"x_max":781,"o":"m 617 0 l 781 0 l 407 518 l 776 972 l 617 972 l 257 515 l 617 0 m 111 0 l 243 0 l 243 972 l 111 972 l 111 0 "},"Ķ":{"ha":786,"x_min":111,"x_max":781,"o":"m 617 0 l 781 0 l 407 518 l 776 972 l 617 972 l 257 515 l 617 0 m 111 0 l 243 0 l 243 972 l 111 972 l 111 0 m 454 -422 l 526 -260 l 526 -126 l 376 -126 l 376 -274 l 425 -274 l 375 -422 l 454 -422 "},"L":{"ha":696,"x_min":111,"x_max":689,"o":"m 111 0 l 689 0 l 689 119 l 243 119 l 243 972 l 111 972 l 111 0 "},"Ǉ":{"ha":1050,"x_min":111,"x_max":939,"o":"m 111 0 l 689 0 l 689 119 l 243 119 l 243 972 l 111 972 l 111 0 m 686 -239 l 722 -239 q 885 -186 832 -239 q 939 -19 939 -134 l 939 972 l 807 972 l 807 11 q 775 -92 807 -60 q 668 -125 743 -125 l 686 -239 "},"Ĺ":{"ha":696,"x_min":49,"x_max":689,"o":"m 111 0 l 689 0 l 689 119 l 243 119 l 243 972 l 111 972 l 111 0 m 49 1061 l 308 1142 l 308 1274 l 49 1142 l 49 1061 "},"Ľ":{"ha":696,"x_min":111,"x_max":689,"o":"m 111 0 l 689 0 l 689 119 l 243 119 l 243 972 l 111 972 l 111 0 m 558 740 l 650 740 l 689 972 l 558 972 l 558 740 "},"Ļ":{"ha":696,"x_min":111,"x_max":689,"o":"m 111 0 l 689 0 l 689 119 l 243 119 l 243 972 l 111 972 l 111 0 m 404 -422 l 476 -260 l 476 -126 l 326 -126 l 326 -274 l 375 -274 l 325 -422 l 404 -422 "},"Ŀ":{"ha":696,"x_min":111,"x_max":689,"o":"m 111 0 l 689 0 l 689 119 l 243 119 l 243 972 l 111 972 l 111 0 m 454 463 l 596 463 l 596 604 l 454 604 l 454 463 "},"Ḷ":{"ha":696,"x_min":111,"x_max":689,"o":"m 111 0 l 689 0 l 689 119 l 243 119 l 243 972 l 111 972 l 111 0 "},"ǈ":{"ha":990,"x_min":111,"x_max":906,"o":"m 111 0 l 689 0 l 689 119 l 243 119 l 243 972 l 111 972 l 111 0 m 693 -336 l 735 -329 q 810 -306 770 -324 q 877 -251 849 -289 q 906 -149 906 -214 l 906 681 l 781 681 l 781 -101 q 772 -185 781 -156 q 742 -225 764 -213 q 679 -240 720 -236 l 693 -336 m 781 833 l 906 833 l 906 972 l 781 972 l 781 833 "},"Ḻ":{"ha":696,"x_min":111,"x_max":689,"o":"m 111 0 l 689 0 l 689 119 l 243 119 l 243 972 l 111 972 l 111 0 "},"Ł":{"ha":696,"x_min":14,"x_max":689,"o":"m 111 0 l 689 0 l 689 119 l 243 119 l 243 972 l 111 972 l 111 0 m 14 503 l 536 644 l 536 738 l 14 596 l 14 503 "},"M":{"ha":1128,"x_min":67,"x_max":1061,"o":"m 67 0 l 206 0 l 304 793 l 269 788 l 567 231 l 858 788 l 824 793 l 922 0 l 1061 0 l 932 972 l 818 972 l 565 490 l 310 972 l 197 972 l 67 0 "},"Ṃ":{"ha":1128,"x_min":67,"x_max":1061,"o":"m 67 0 l 206 0 l 304 793 l 269 788 l 567 231 l 858 788 l 824 793 l 922 0 l 1061 0 l 932 972 l 818 972 l 565 490 l 310 972 l 197 972 l 67 0 "},"N":{"ha":978,"x_min":111,"x_max":867,"o":"m 111 0 l 243 0 l 243 768 l 754 0 l 867 0 l 867 972 l 733 972 l 733 244 l 254 972 l 111 972 l 111 0 "},"Ǌ":{"ha":1332,"x_min":111,"x_max":1221,"o":"m 111 0 l 243 0 l 243 768 l 754 0 l 867 0 l 867 972 l 733 972 l 733 244 l 254 972 l 111 972 l 111 0 m 968 -239 l 1004 -239 q 1167 -186 1114 -239 q 1221 -19 1221 -134 l 1221 972 l 1089 972 l 1089 11 q 1057 -92 1089 -60 q 950 -125 1025 -125 l 968 -239 "},"Ń":{"ha":978,"x_min":111,"x_max":867,"o":"m 111 0 l 243 0 l 243 768 l 754 0 l 867 0 l 867 972 l 733 972 l 733 244 l 254 972 l 111 972 l 111 0 m 365 1061 l 625 1142 l 625 1274 l 365 1142 l 365 1061 "},"Ň":{"ha":978,"x_min":111,"x_max":867,"o":"m 111 0 l 243 0 l 243 768 l 754 0 l 867 0 l 867 972 l 733 972 l 733 244 l 254 972 l 111 972 l 111 0 "},"Ņ":{"ha":978,"x_min":111,"x_max":867,"o":"m 111 0 l 243 0 l 243 768 l 754 0 l 867 0 l 867 972 l 733 972 l 733 244 l 254 972 l 111 972 l 111 0 m 503 -422 l 575 -260 l 575 -126 l 425 -126 l 425 -274 l 474 -274 l 424 -422 l 503 -422 "},"Ṅ":{"ha":978,"x_min":111,"x_max":867,"o":"m 111 0 l 243 0 l 243 768 l 754 0 l 867 0 l 867 972 l 733 972 l 733 244 l 254 972 l 111 972 l 111 0 m 428 1099 l 561 1099 l 561 1224 l 428 1224 l 428 1099 "},"Ṇ":{"ha":978,"x_min":111,"x_max":867,"o":"m 111 0 l 243 0 l 243 768 l 754 0 l 867 0 l 867 972 l 733 972 l 733 244 l 254 972 l 111 972 l 111 0 "},"Ŋ":{"ha":985,"x_min":111,"x_max":896,"o":"m 896 69 l 896 639 q 856 824 896 744 q 736 948 816 903 q 538 992 657 992 q 370 963 449 992 q 232 879 292 935 l 224 972 l 111 972 l 111 0 l 244 0 l 244 772 q 350 845 284 817 q 508 872 417 872 q 699 808 635 872 q 763 625 763 744 l 763 56 q 712 -89 763 -41 q 578 -137 661 -137 q 526 -134 552 -137 q 475 -125 500 -131 l 457 -242 q 569 -257 512 -257 q 738 -221 665 -257 q 854 -113 812 -185 q 896 69 896 -41 "},"ǋ":{"ha":1260,"x_min":111,"x_max":1175,"o":"m 111 0 l 243 0 l 243 768 l 754 0 l 867 0 l 867 972 l 733 972 l 733 244 l 254 972 l 111 972 l 111 0 m 963 -336 l 1004 -329 q 1079 -306 1040 -324 q 1147 -251 1119 -289 q 1175 -149 1175 -214 l 1175 681 l 1050 681 l 1050 -101 q 1042 -185 1050 -156 q 1011 -225 1033 -213 q 949 -240 990 -236 l 963 -336 m 1050 833 l 1175 833 l 1175 972 l 1050 972 l 1050 833 "},"Ṉ":{"ha":978,"x_min":111,"x_max":867,"o":"m 111 0 l 243 0 l 243 768 l 754 0 l 867 0 l 867 972 l 733 972 l 733 244 l 254 972 l 111 972 l 111 0 "},"Ñ":{"ha":978,"x_min":111,"x_max":867,"o":"m 111 0 l 243 0 l 243 768 l 754 0 l 867 0 l 867 972 l 733 972 l 733 244 l 254 972 l 111 972 l 111 0 m 610 1094 q 684 1130 658 1094 q 711 1233 711 1166 l 621 1233 q 574 1183 621 1183 q 514 1198 547 1183 q 446 1226 481 1212 q 379 1240 411 1240 q 305 1205 331 1240 q 278 1101 278 1169 l 368 1101 q 415 1151 368 1151 q 475 1137 442 1151 q 543 1109 508 1123 q 610 1094 578 1094 "},"O":{"ha":1069,"x_min":56,"x_max":1014,"o":"m 535 -19 q 782 43 674 -19 q 952 218 890 105 q 1014 486 1014 332 q 952 754 1014 640 q 782 930 890 867 q 535 992 674 992 q 288 930 396 992 q 117 754 179 867 q 56 486 56 640 q 117 218 56 332 q 288 43 179 105 q 535 -19 396 -19 m 535 108 q 348 159 423 108 q 235 295 273 209 q 197 486 197 381 q 235 677 197 592 q 348 814 273 763 q 535 864 423 864 q 722 814 647 864 q 834 677 797 763 q 872 486 872 592 q 834 295 872 381 q 722 159 797 209 q 535 108 647 108 "},"Ó":{"ha":1069,"x_min":56,"x_max":1014,"o":"m 535 -19 q 782 43 674 -19 q 952 218 890 105 q 1014 486 1014 332 q 952 754 1014 640 q 782 930 890 867 q 535 992 674 992 q 288 930 396 992 q 117 754 179 867 q 56 486 56 640 q 117 218 56 332 q 288 43 179 105 q 535 -19 396 -19 m 535 108 q 348 159 423 108 q 235 295 273 209 q 197 486 197 381 q 235 677 197 592 q 348 814 273 763 q 535 864 423 864 q 722 814 647 864 q 834 677 797 763 q 872 486 872 592 q 834 295 872 381 q 722 159 797 209 q 535 108 647 108 m 406 1061 l 665 1142 l 665 1274 l 406 1142 l 406 1061 "},"Ŏ":{"ha":1069,"x_min":56,"x_max":1014,"o":"m 535 -19 q 782 43 674 -19 q 952 218 890 105 q 1014 486 1014 332 q 952 754 1014 640 q 782 930 890 867 q 535 992 674 992 q 288 930 396 992 q 117 754 179 867 q 56 486 56 640 q 117 218 56 332 q 288 43 179 105 q 535 -19 396 -19 m 535 108 q 348 159 423 108 q 235 295 273 209 q 197 486 197 381 q 235 677 197 592 q 348 814 273 763 q 535 864 423 864 q 722 814 647 864 q 834 677 797 763 q 872 486 872 592 q 834 295 872 381 q 722 159 797 209 q 535 108 647 108 m 535 1061 q 649 1085 604 1061 q 716 1147 694 1108 q 738 1228 738 1185 l 626 1228 q 599 1167 626 1188 q 535 1147 572 1147 q 470 1167 497 1147 q 443 1228 443 1188 l 332 1228 q 354 1147 332 1185 q 420 1085 376 1108 q 535 1061 465 1061 "},"Ô":{"ha":1069,"x_min":56,"x_max":1014,"o":"m 535 -19 q 782 43 674 -19 q 952 218 890 105 q 1014 486 1014 332 q 952 754 1014 640 q 782 930 890 867 q 535 992 674 992 q 288 930 396 992 q 117 754 179 867 q 56 486 56 640 q 117 218 56 332 q 288 43 179 105 q 535 -19 396 -19 m 535 108 q 348 159 423 108 q 235 295 273 209 q 197 486 197 381 q 235 677 197 592 q 348 814 273 763 q 535 864 423 864 q 722 814 647 864 q 834 677 797 763 q 872 486 872 592 q 834 295 872 381 q 722 159 797 209 q 535 108 647 108 m 358 1046 l 535 1138 l 711 1046 l 711 1131 l 535 1256 l 358 1131 l 358 1046 "},"Ố":{"ha":1069,"x_min":56,"x_max":1014,"o":"m 535 -19 q 782 43 674 -19 q 952 218 890 105 q 1014 486 1014 332 q 952 754 1014 640 q 782 930 890 867 q 535 992 674 992 q 288 930 396 992 q 117 754 179 867 q 56 486 56 640 q 117 218 56 332 q 288 43 179 105 q 535 -19 396 -19 m 535 108 q 348 159 423 108 q 235 295 273 209 q 197 486 197 381 q 235 677 197 592 q 348 814 273 763 q 535 864 423 864 q 722 814 647 864 q 834 677 797 763 q 872 486 872 592 q 834 295 872 381 q 722 159 797 209 q 535 108 647 108 m 358 1046 l 535 1138 l 711 1046 l 711 1131 l 535 1256 l 358 1131 l 358 1046 m 639 1249 l 731 1249 l 867 1411 l 731 1411 l 639 1249 "},"Ộ":{"ha":1069,"x_min":56,"x_max":1014,"o":"m 535 -19 q 782 43 674 -19 q 952 218 890 105 q 1014 486 1014 332 q 952 754 1014 640 q 782 930 890 867 q 535 992 674 992 q 288 930 396 992 q 117 754 179 867 q 56 486 56 640 q 117 218 56 332 q 288 43 179 105 q 535 -19 396 -19 m 535 108 q 348 159 423 108 q 235 295 273 209 q 197 486 197 381 q 235 677 197 592 q 348 814 273 763 q 535 864 423 864 q 722 814 647 864 q 834 677 797 763 q 872 486 872 592 q 834 295 872 381 q 722 159 797 209 q 535 108 647 108 m 358 1075 l 535 1186 l 711 1075 l 711 1160 l 535 1313 l 358 1160 l 358 1075 "},"Ồ":{"ha":1069,"x_min":56,"x_max":1014,"o":"m 535 -19 q 782 43 674 -19 q 952 218 890 105 q 1014 486 1014 332 q 952 754 1014 640 q 782 930 890 867 q 535 992 674 992 q 288 930 396 992 q 117 754 179 867 q 56 486 56 640 q 117 218 56 332 q 288 43 179 105 q 535 -19 396 -19 m 535 108 q 348 159 423 108 q 235 295 273 209 q 197 486 197 381 q 235 677 197 592 q 348 814 273 763 q 535 864 423 864 q 722 814 647 864 q 834 677 797 763 q 872 486 872 592 q 834 295 872 381 q 722 159 797 209 q 535 108 647 108 m 358 1046 l 535 1138 l 711 1046 l 711 1131 l 535 1256 l 358 1131 l 358 1046 m 658 1249 l 747 1249 l 669 1411 l 538 1411 l 658 1249 "},"Ổ":{"ha":1069,"x_min":56,"x_max":1014,"o":"m 535 -19 q 782 43 674 -19 q 952 218 890 105 q 1014 486 1014 332 q 952 754 1014 640 q 782 930 890 867 q 535 992 674 992 q 288 930 396 992 q 117 754 179 867 q 56 486 56 640 q 117 218 56 332 q 288 43 179 105 q 535 -19 396 -19 m 535 108 q 348 159 423 108 q 235 295 273 209 q 197 486 197 381 q 235 677 197 592 q 348 814 273 763 q 535 864 423 864 q 722 814 647 864 q 834 677 797 763 q 872 486 872 592 q 834 295 872 381 q 722 159 797 209 q 535 108 647 108 m 358 1046 l 535 1138 l 711 1046 l 711 1131 l 535 1256 l 358 1131 l 358 1046 m 668 1211 q 757 1254 730 1225 q 785 1329 785 1283 q 745 1408 785 1381 q 647 1436 705 1436 q 587 1429 615 1436 q 536 1410 559 1422 l 560 1339 q 604 1358 582 1351 q 647 1365 626 1365 q 689 1355 674 1365 q 704 1321 704 1344 q 692 1288 704 1301 q 656 1267 680 1275 l 668 1211 "},"Ỗ":{"ha":1069,"x_min":56,"x_max":1014,"o":"m 535 -19 q 782 43 674 -19 q 952 218 890 105 q 1014 486 1014 332 q 952 754 1014 640 q 782 930 890 867 q 535 992 674 992 q 288 930 396 992 q 117 754 179 867 q 56 486 56 640 q 117 218 56 332 q 288 43 179 105 q 535 -19 396 -19 m 535 108 q 348 159 423 108 q 235 295 273 209 q 197 486 197 381 q 235 677 197 592 q 348 814 273 763 q 535 864 423 864 q 722 814 647 864 q 834 677 797 763 q 872 486 872 592 q 834 295 872 381 q 722 159 797 209 q 535 108 647 108 m 358 1046 l 535 1138 l 711 1046 l 711 1131 l 535 1256 l 358 1131 l 358 1046 m 650 1313 q 725 1348 698 1313 q 751 1451 751 1384 l 661 1451 q 614 1401 661 1401 q 555 1416 588 1401 q 486 1444 522 1430 q 419 1458 451 1458 q 345 1423 372 1458 q 318 1319 318 1388 l 408 1319 q 456 1369 408 1369 q 515 1355 482 1369 q 583 1327 548 1341 q 650 1313 618 1313 "},"Ȍ":{"ha":1069,"x_min":56,"x_max":1014,"o":"m 535 -19 q 782 43 674 -19 q 952 218 890 105 q 1014 486 1014 332 q 952 754 1014 640 q 782 930 890 867 q 535 992 674 992 q 288 930 396 992 q 117 754 179 867 q 56 486 56 640 q 117 218 56 332 q 288 43 179 105 q 535 -19 396 -19 m 535 108 q 348 159 423 108 q 235 295 273 209 q 197 486 197 381 q 235 677 197 592 q 348 814 273 763 q 535 864 423 864 q 722 814 647 864 q 834 677 797 763 q 872 486 872 592 q 834 295 872 381 q 722 159 797 209 q 535 108 647 108 m 679 1094 l 599 1299 l 463 1299 l 588 1094 l 679 1094 m 485 1094 l 397 1299 l 261 1299 l 393 1094 l 485 1094 "},"Ö":{"ha":1069,"x_min":56,"x_max":1014,"o":"m 535 -19 q 782 43 674 -19 q 952 218 890 105 q 1014 486 1014 332 q 952 754 1014 640 q 782 930 890 867 q 535 992 674 992 q 288 930 396 992 q 117 754 179 867 q 56 486 56 640 q 117 218 56 332 q 288 43 179 105 q 535 -19 396 -19 m 535 108 q 348 159 423 108 q 235 295 273 209 q 197 486 197 381 q 235 677 197 592 q 348 814 273 763 q 535 864 423 864 q 722 814 647 864 q 834 677 797 763 q 872 486 872 592 q 834 295 872 381 q 722 159 797 209 q 535 108 647 108 m 342 1103 l 461 1103 l 461 1207 l 342 1207 l 342 1103 m 608 1103 l 728 1103 l 728 1207 l 608 1207 l 608 1103 "},"Ȫ":{"ha":1069,"x_min":56,"x_max":1014,"o":"m 535 -19 q 782 43 674 -19 q 952 218 890 105 q 1014 486 1014 332 q 952 754 1014 640 q 782 930 890 867 q 535 992 674 992 q 288 930 396 992 q 117 754 179 867 q 56 486 56 640 q 117 218 56 332 q 288 43 179 105 q 535 -19 396 -19 m 535 108 q 348 159 423 108 q 235 295 273 209 q 197 486 197 381 q 235 677 197 592 q 348 814 273 763 q 535 864 423 864 q 722 814 647 864 q 834 677 797 763 q 872 486 872 592 q 834 295 872 381 q 722 159 797 209 q 535 108 647 108 m 342 1103 l 461 1103 l 461 1207 l 342 1207 l 342 1103 m 608 1103 l 728 1103 l 728 1207 l 608 1207 l 608 1103 m 313 1324 l 757 1324 l 757 1418 l 313 1418 l 313 1324 "},"Ȱ":{"ha":1069,"x_min":56,"x_max":1014,"o":"m 535 -19 q 782 43 674 -19 q 952 218 890 105 q 1014 486 1014 332 q 952 754 1014 640 q 782 930 890 867 q 535 992 674 992 q 288 930 396 992 q 117 754 179 867 q 56 486 56 640 q 117 218 56 332 q 288 43 179 105 q 535 -19 396 -19 m 535 108 q 348 159 423 108 q 235 295 273 209 q 197 486 197 381 q 235 677 197 592 q 348 814 273 763 q 535 864 423 864 q 722 814 647 864 q 834 677 797 763 q 872 486 872 592 q 834 295 872 381 q 722 159 797 209 q 535 108 647 108 m 468 1099 l 601 1099 l 601 1224 l 468 1224 l 468 1099 m 313 1332 l 757 1332 l 757 1426 l 313 1426 l 313 1332 "},"Ọ":{"ha":1069,"x_min":56,"x_max":1014,"o":"m 535 -19 q 782 43 674 -19 q 952 218 890 105 q 1014 486 1014 332 q 952 754 1014 640 q 782 930 890 867 q 535 992 674 992 q 288 930 396 992 q 117 754 179 867 q 56 486 56 640 q 117 218 56 332 q 288 43 179 105 q 535 -19 396 -19 m 535 108 q 348 159 423 108 q 235 295 273 209 q 197 486 197 381 q 235 677 197 592 q 348 814 273 763 q 535 864 423 864 q 722 814 647 864 q 834 677 797 763 q 872 486 872 592 q 834 295 872 381 q 722 159 797 209 q 535 108 647 108 "},"Ò":{"ha":1069,"x_min":56,"x_max":1014,"o":"m 535 -19 q 782 43 674 -19 q 952 218 890 105 q 1014 486 1014 332 q 952 754 1014 640 q 782 930 890 867 q 535 992 674 992 q 288 930 396 992 q 117 754 179 867 q 56 486 56 640 q 117 218 56 332 q 288 43 179 105 q 535 -19 396 -19 m 535 108 q 348 159 423 108 q 235 295 273 209 q 197 486 197 381 q 235 677 197 592 q 348 814 273 763 q 535 864 423 864 q 722 814 647 864 q 834 677 797 763 q 872 486 872 592 q 834 295 872 381 q 722 159 797 209 q 535 108 647 108 m 664 1061 l 664 1142 l 404 1274 l 404 1142 l 664 1061 "},"Ỏ":{"ha":1069,"x_min":56,"x_max":1014,"o":"m 535 -19 q 782 43 674 -19 q 952 218 890 105 q 1014 486 1014 332 q 952 754 1014 640 q 782 930 890 867 q 535 992 674 992 q 288 930 396 992 q 117 754 179 867 q 56 486 56 640 q 117 218 56 332 q 288 43 179 105 q 535 -19 396 -19 m 535 108 q 348 159 423 108 q 235 295 273 209 q 197 486 197 381 q 235 677 197 592 q 348 814 273 763 q 535 864 423 864 q 722 814 647 864 q 834 677 797 763 q 872 486 872 592 q 834 295 872 381 q 722 159 797 209 q 535 108 647 108 m 533 1056 q 623 1099 595 1069 q 650 1174 650 1128 q 610 1253 650 1225 q 513 1281 570 1281 q 452 1274 481 1281 q 401 1254 424 1267 l 425 1183 q 469 1202 447 1195 q 513 1210 491 1210 q 554 1199 539 1210 q 569 1165 569 1188 q 557 1133 569 1146 q 521 1111 545 1119 l 533 1056 "},"Ơ":{"ha":1069,"x_min":56,"x_max":1014,"o":"m 535 -19 q 782 43 674 -19 q 952 218 890 105 q 1014 486 1014 332 q 952 754 1014 640 q 782 930 890 867 q 535 992 674 992 q 288 930 396 992 q 117 754 179 867 q 56 486 56 640 q 117 218 56 332 q 288 43 179 105 q 535 -19 396 -19 m 535 108 q 348 159 423 108 q 235 295 273 209 q 197 486 197 381 q 235 677 197 592 q 348 814 273 763 q 535 864 423 864 q 722 814 647 864 q 834 677 797 763 q 872 486 872 592 q 834 295 872 381 q 722 159 797 209 q 535 108 647 108 m 665 876 q 783 904 731 876 q 865 977 835 932 q 896 1075 896 1022 l 776 1075 q 747 996 776 1020 q 665 972 717 972 l 665 876 "},"Ớ":{"ha":1069,"x_min":56,"x_max":1014,"o":"m 535 -19 q 782 43 674 -19 q 952 218 890 105 q 1014 486 1014 332 q 952 754 1014 640 q 782 930 890 867 q 535 992 674 992 q 288 930 396 992 q 117 754 179 867 q 56 486 56 640 q 117 218 56 332 q 288 43 179 105 q 535 -19 396 -19 m 535 108 q 348 159 423 108 q 235 295 273 209 q 197 486 197 381 q 235 677 197 592 q 348 814 273 763 q 535 864 423 864 q 722 814 647 864 q 834 677 797 763 q 872 486 872 592 q 834 295 872 381 q 722 159 797 209 q 535 108 647 108 m 665 876 q 783 904 731 876 q 865 977 835 932 q 896 1075 896 1022 l 776 1075 q 747 996 776 1020 q 665 972 717 972 l 665 876 m 406 1061 l 665 1142 l 665 1274 l 406 1142 l 406 1061 "},"Ợ":{"ha":1069,"x_min":56,"x_max":1014,"o":"m 535 -19 q 782 43 674 -19 q 952 218 890 105 q 1014 486 1014 332 q 952 754 1014 640 q 782 930 890 867 q 535 992 674 992 q 288 930 396 992 q 117 754 179 867 q 56 486 56 640 q 117 218 56 332 q 288 43 179 105 q 535 -19 396 -19 m 535 108 q 348 159 423 108 q 235 295 273 209 q 197 486 197 381 q 235 677 197 592 q 348 814 273 763 q 535 864 423 864 q 722 814 647 864 q 834 677 797 763 q 872 486 872 592 q 834 295 872 381 q 722 159 797 209 q 535 108 647 108 m 665 876 q 783 904 731 876 q 865 977 835 932 q 896 1075 896 1022 l 776 1075 q 747 996 776 1020 q 665 972 717 972 l 665 876 "},"Ờ":{"ha":1069,"x_min":56,"x_max":1014,"o":"m 535 -19 q 782 43 674 -19 q 952 218 890 105 q 1014 486 1014 332 q 952 754 1014 640 q 782 930 890 867 q 535 992 674 992 q 288 930 396 992 q 117 754 179 867 q 56 486 56 640 q 117 218 56 332 q 288 43 179 105 q 535 -19 396 -19 m 535 108 q 348 159 423 108 q 235 295 273 209 q 197 486 197 381 q 235 677 197 592 q 348 814 273 763 q 535 864 423 864 q 722 814 647 864 q 834 677 797 763 q 872 486 872 592 q 834 295 872 381 q 722 159 797 209 q 535 108 647 108 m 665 876 q 783 904 731 876 q 865 977 835 932 q 896 1075 896 1022 l 776 1075 q 747 996 776 1020 q 665 972 717 972 l 665 876 m 664 1061 l 664 1142 l 404 1274 l 404 1142 l 664 1061 "},"Ở":{"ha":1069,"x_min":56,"x_max":1014,"o":"m 535 -19 q 782 43 674 -19 q 952 218 890 105 q 1014 486 1014 332 q 952 754 1014 640 q 782 930 890 867 q 535 992 674 992 q 288 930 396 992 q 117 754 179 867 q 56 486 56 640 q 117 218 56 332 q 288 43 179 105 q 535 -19 396 -19 m 535 108 q 348 159 423 108 q 235 295 273 209 q 197 486 197 381 q 235 677 197 592 q 348 814 273 763 q 535 864 423 864 q 722 814 647 864 q 834 677 797 763 q 872 486 872 592 q 834 295 872 381 q 722 159 797 209 q 535 108 647 108 m 665 876 q 783 904 731 876 q 865 977 835 932 q 896 1075 896 1022 l 776 1075 q 747 996 776 1020 q 665 972 717 972 l 665 876 m 533 1056 q 623 1099 595 1069 q 650 1174 650 1128 q 610 1253 650 1225 q 513 1281 570 1281 q 452 1274 481 1281 q 401 1254 424 1267 l 425 1183 q 469 1202 447 1195 q 513 1210 491 1210 q 554 1199 539 1210 q 569 1165 569 1188 q 557 1133 569 1146 q 521 1111 545 1119 l 533 1056 "},"Ỡ":{"ha":1069,"x_min":56,"x_max":1014,"o":"m 535 -19 q 782 43 674 -19 q 952 218 890 105 q 1014 486 1014 332 q 952 754 1014 640 q 782 930 890 867 q 535 992 674 992 q 288 930 396 992 q 117 754 179 867 q 56 486 56 640 q 117 218 56 332 q 288 43 179 105 q 535 -19 396 -19 m 535 108 q 348 159 423 108 q 235 295 273 209 q 197 486 197 381 q 235 677 197 592 q 348 814 273 763 q 535 864 423 864 q 722 814 647 864 q 834 677 797 763 q 872 486 872 592 q 834 295 872 381 q 722 159 797 209 q 535 108 647 108 m 665 876 q 783 904 731 876 q 865 977 835 932 q 896 1075 896 1022 l 776 1075 q 747 996 776 1020 q 665 972 717 972 l 665 876 m 650 1094 q 725 1130 698 1094 q 751 1233 751 1166 l 661 1233 q 614 1183 661 1183 q 555 1198 588 1183 q 486 1226 522 1212 q 419 1240 451 1240 q 345 1205 372 1240 q 318 1101 318 1169 l 408 1101 q 456 1151 408 1151 q 515 1137 482 1151 q 583 1109 548 1123 q 650 1094 618 1094 "},"Ő":{"ha":1069,"x_min":56,"x_max":1014,"o":"m 535 -19 q 782 43 674 -19 q 952 218 890 105 q 1014 486 1014 332 q 952 754 1014 640 q 782 930 890 867 q 535 992 674 992 q 288 930 396 992 q 117 754 179 867 q 56 486 56 640 q 117 218 56 332 q 288 43 179 105 q 535 -19 396 -19 m 535 108 q 348 159 423 108 q 235 295 273 209 q 197 486 197 381 q 235 677 197 592 q 348 814 273 763 q 535 864 423 864 q 722 814 647 864 q 834 677 797 763 q 872 486 872 592 q 834 295 872 381 q 722 159 797 209 q 535 108 647 108 m 390 1094 l 482 1094 l 618 1299 l 482 1299 l 390 1094 m 585 1094 l 676 1094 l 819 1299 l 683 1299 l 585 1094 "},"Ȏ":{"ha":1069,"x_min":56,"x_max":1014,"o":"m 535 -19 q 782 43 674 -19 q 952 218 890 105 q 1014 486 1014 332 q 952 754 1014 640 q 782 930 890 867 q 535 992 674 992 q 288 930 396 992 q 117 754 179 867 q 56 486 56 640 q 117 218 56 332 q 288 43 179 105 q 535 -19 396 -19 m 535 108 q 348 159 423 108 q 235 295 273 209 q 197 486 197 381 q 235 677 197 592 q 348 814 273 763 q 535 864 423 864 q 722 814 647 864 q 834 677 797 763 q 872 486 872 592 q 834 295 872 381 q 722 159 797 209 q 535 108 647 108 m 535 1249 q 420 1225 465 1249 q 354 1163 376 1201 q 332 1082 332 1125 l 443 1082 q 470 1143 443 1123 q 535 1163 497 1163 q 599 1143 572 1163 q 626 1082 626 1123 l 738 1082 q 716 1163 738 1125 q 649 1225 694 1201 q 535 1249 604 1249 "},"Ō":{"ha":1069,"x_min":56,"x_max":1014,"o":"m 535 -19 q 782 43 674 -19 q 952 218 890 105 q 1014 486 1014 332 q 952 754 1014 640 q 782 930 890 867 q 535 992 674 992 q 288 930 396 992 q 117 754 179 867 q 56 486 56 640 q 117 218 56 332 q 288 43 179 105 q 535 -19 396 -19 m 535 108 q 348 159 423 108 q 235 295 273 209 q 197 486 197 381 q 235 677 197 592 q 348 814 273 763 q 535 864 423 864 q 722 814 647 864 q 834 677 797 763 q 872 486 872 592 q 834 295 872 381 q 722 159 797 209 q 535 108 647 108 m 313 1101 l 757 1101 l 757 1196 l 313 1196 l 313 1101 "},"Ṓ":{"ha":1069,"x_min":56,"x_max":1014,"o":"m 535 -19 q 782 43 674 -19 q 952 218 890 105 q 1014 486 1014 332 q 952 754 1014 640 q 782 930 890 867 q 535 992 674 992 q 288 930 396 992 q 117 754 179 867 q 56 486 56 640 q 117 218 56 332 q 288 43 179 105 q 535 -19 396 -19 m 535 108 q 348 159 423 108 q 235 295 273 209 q 197 486 197 381 q 235 677 197 592 q 348 814 273 763 q 535 864 423 864 q 722 814 647 864 q 834 677 797 763 q 872 486 872 592 q 834 295 872 381 q 722 159 797 209 q 535 108 647 108 m 313 1101 l 757 1101 l 757 1196 l 313 1196 l 313 1101 m 406 1300 l 665 1381 l 665 1513 l 406 1381 l 406 1300 "},"Ṑ":{"ha":1069,"x_min":56,"x_max":1014,"o":"m 535 -19 q 782 43 674 -19 q 952 218 890 105 q 1014 486 1014 332 q 952 754 1014 640 q 782 930 890 867 q 535 992 674 992 q 288 930 396 992 q 117 754 179 867 q 56 486 56 640 q 117 218 56 332 q 288 43 179 105 q 535 -19 396 -19 m 535 108 q 348 159 423 108 q 235 295 273 209 q 197 486 197 381 q 235 677 197 592 q 348 814 273 763 q 535 864 423 864 q 722 814 647 864 q 834 677 797 763 q 872 486 872 592 q 834 295 872 381 q 722 159 797 209 q 535 108 647 108 m 313 1101 l 757 1101 l 757 1196 l 313 1196 l 313 1101 m 664 1300 l 664 1381 l 404 1513 l 404 1381 l 664 1300 "},"Ǫ":{"ha":1069,"x_min":56,"x_max":1014,"o":"m 535 -19 q 782 43 674 -19 q 952 218 890 105 q 1014 486 1014 332 q 952 754 1014 640 q 782 930 890 867 q 535 992 674 992 q 288 930 396 992 q 117 754 179 867 q 56 486 56 640 q 117 218 56 332 q 288 43 179 105 q 535 -19 396 -19 m 535 108 q 348 159 423 108 q 235 295 273 209 q 197 486 197 381 q 235 677 197 592 q 348 814 273 763 q 535 864 423 864 q 722 814 647 864 q 834 677 797 763 q 872 486 872 592 q 834 295 872 381 q 722 159 797 209 q 535 108 647 108 m 572 0 q 494 -69 531 -24 q 457 -169 457 -114 q 498 -258 457 -228 q 597 -289 539 -289 q 664 -281 635 -289 q 713 -262 693 -273 l 692 -194 q 650 -212 671 -206 q 604 -218 628 -218 q 556 -200 574 -218 q 538 -147 538 -183 q 567 -73 538 -108 q 646 0 597 -37 l 572 0 "},"Ø":{"ha":1069,"x_min":56,"x_max":1014,"o":"m 97 -61 l 224 -61 l 972 1033 l 846 1033 l 97 -61 m 535 -19 q 782 43 674 -19 q 952 218 890 105 q 1014 486 1014 332 q 952 754 1014 640 q 782 930 890 867 q 535 992 674 992 q 288 930 396 992 q 117 754 179 867 q 56 486 56 640 q 117 218 56 332 q 288 43 179 105 q 535 -19 396 -19 m 535 108 q 348 159 423 108 q 235 295 273 209 q 197 486 197 381 q 235 677 197 592 q 348 814 273 763 q 535 864 423 864 q 722 814 647 864 q 834 677 797 763 q 872 486 872 592 q 834 295 872 381 q 722 159 797 209 q 535 108 647 108 "},"Ǿ":{"ha":1069,"x_min":56,"x_max":1014,"o":"m 97 -61 l 224 -61 l 972 1033 l 846 1033 l 97 -61 m 535 -19 q 782 43 674 -19 q 952 218 890 105 q 1014 486 1014 332 q 952 754 1014 640 q 782 930 890 867 q 535 992 674 992 q 288 930 396 992 q 117 754 179 867 q 56 486 56 640 q 117 218 56 332 q 288 43 179 105 q 535 -19 396 -19 m 535 108 q 348 159 423 108 q 235 295 273 209 q 197 486 197 381 q 235 677 197 592 q 348 814 273 763 q 535 864 423 864 q 722 814 647 864 q 834 677 797 763 q 872 486 872 592 q 834 295 872 381 q 722 159 797 209 q 535 108 647 108 m 404 1061 l 664 1142 l 664 1274 l 404 1142 l 404 1061 "},"Õ":{"ha":1069,"x_min":56,"x_max":1014,"o":"m 535 -19 q 782 43 674 -19 q 952 218 890 105 q 1014 486 1014 332 q 952 754 1014 640 q 782 930 890 867 q 535 992 674 992 q 288 930 396 992 q 117 754 179 867 q 56 486 56 640 q 117 218 56 332 q 288 43 179 105 q 535 -19 396 -19 m 535 108 q 348 159 423 108 q 235 295 273 209 q 197 486 197 381 q 235 677 197 592 q 348 814 273 763 q 535 864 423 864 q 722 814 647 864 q 834 677 797 763 q 872 486 872 592 q 834 295 872 381 q 722 159 797 209 q 535 108 647 108 m 650 1094 q 725 1130 698 1094 q 751 1233 751 1166 l 661 1233 q 614 1183 661 1183 q 555 1198 588 1183 q 486 1226 522 1212 q 419 1240 451 1240 q 345 1205 372 1240 q 318 1101 318 1169 l 408 1101 q 456 1151 408 1151 q 515 1137 482 1151 q 583 1109 548 1123 q 650 1094 618 1094 "},"Ṍ":{"ha":1069,"x_min":56,"x_max":1014,"o":"m 535 -19 q 782 43 674 -19 q 952 218 890 105 q 1014 486 1014 332 q 952 754 1014 640 q 782 930 890 867 q 535 992 674 992 q 288 930 396 992 q 117 754 179 867 q 56 486 56 640 q 117 218 56 332 q 288 43 179 105 q 535 -19 396 -19 m 535 108 q 348 159 423 108 q 235 295 273 209 q 197 486 197 381 q 235 677 197 592 q 348 814 273 763 q 535 864 423 864 q 722 814 647 864 q 834 677 797 763 q 872 486 872 592 q 834 295 872 381 q 722 159 797 209 q 535 108 647 108 m 650 1094 q 725 1130 698 1094 q 751 1233 751 1166 l 661 1233 q 614 1183 661 1183 q 555 1198 588 1183 q 486 1226 522 1212 q 419 1240 451 1240 q 345 1205 372 1240 q 318 1101 318 1169 l 408 1101 q 456 1151 408 1151 q 515 1137 482 1151 q 583 1109 548 1123 q 650 1094 618 1094 m 406 1306 l 665 1386 l 665 1518 l 406 1386 l 406 1306 "},"Ṏ":{"ha":1069,"x_min":56,"x_max":1014,"o":"m 535 -19 q 782 43 674 -19 q 952 218 890 105 q 1014 486 1014 332 q 952 754 1014 640 q 782 930 890 867 q 535 992 674 992 q 288 930 396 992 q 117 754 179 867 q 56 486 56 640 q 117 218 56 332 q 288 43 179 105 q 535 -19 396 -19 m 535 108 q 348 159 423 108 q 235 295 273 209 q 197 486 197 381 q 235 677 197 592 q 348 814 273 763 q 535 864 423 864 q 722 814 647 864 q 834 677 797 763 q 872 486 872 592 q 834 295 872 381 q 722 159 797 209 q 535 108 647 108 m 650 1094 q 725 1130 698 1094 q 751 1233 751 1166 l 661 1233 q 614 1183 661 1183 q 555 1198 588 1183 q 486 1226 522 1212 q 419 1240 451 1240 q 345 1205 372 1240 q 318 1101 318 1169 l 408 1101 q 456 1151 408 1151 q 515 1137 482 1151 q 583 1109 548 1123 q 650 1094 618 1094 m 342 1347 l 461 1347 l 461 1451 l 342 1451 l 342 1347 m 608 1347 l 728 1347 l 728 1451 l 608 1451 l 608 1347 "},"Ȭ":{"ha":1069,"x_min":56,"x_max":1014,"o":"m 535 -19 q 782 43 674 -19 q 952 218 890 105 q 1014 486 1014 332 q 952 754 1014 640 q 782 930 890 867 q 535 992 674 992 q 288 930 396 992 q 117 754 179 867 q 56 486 56 640 q 117 218 56 332 q 288 43 179 105 q 535 -19 396 -19 m 535 108 q 348 159 423 108 q 235 295 273 209 q 197 486 197 381 q 235 677 197 592 q 348 814 273 763 q 535 864 423 864 q 722 814 647 864 q 834 677 797 763 q 872 486 872 592 q 834 295 872 381 q 722 159 797 209 q 535 108 647 108 m 650 1094 q 725 1130 698 1094 q 751 1233 751 1166 l 661 1233 q 614 1183 661 1183 q 555 1198 588 1183 q 486 1226 522 1212 q 419 1240 451 1240 q 345 1205 372 1240 q 318 1101 318 1169 l 408 1101 q 456 1151 408 1151 q 515 1137 482 1151 q 583 1109 548 1123 q 650 1094 618 1094 m 313 1346 l 757 1346 l 757 1440 l 313 1440 l 313 1346 "},"Œ":{"ha":1488,"x_min":56,"x_max":1436,"o":"m 517 -19 q 692 16 610 -19 q 838 118 775 51 q 936 277 901 184 q 972 486 972 371 q 936 695 972 602 q 838 855 901 788 q 692 956 775 921 q 517 992 610 992 q 278 930 383 992 q 115 754 174 867 q 56 486 56 640 q 115 218 56 332 q 278 43 174 105 q 517 -19 383 -19 m 525 100 q 341 151 414 100 q 231 290 267 202 q 194 486 194 377 q 231 683 194 595 q 341 821 267 770 q 525 872 414 872 q 709 821 635 872 q 818 683 782 770 q 854 486 854 595 q 818 290 854 377 q 709 151 782 202 q 525 100 635 100 m 867 0 l 1436 0 l 1436 119 l 993 119 l 993 449 l 1324 449 l 1324 568 l 993 568 l 993 853 l 1424 853 l 1424 971 l 867 971 l 867 0 "},"P":{"ha":794,"x_min":111,"x_max":761,"o":"m 111 0 l 250 0 l 250 340 l 432 340 q 604 373 530 340 q 720 475 678 406 q 761 657 761 545 q 720 840 761 771 q 604 941 678 910 q 432 972 530 972 l 111 972 l 111 0 m 250 458 l 250 854 l 413 854 q 575 806 524 854 q 625 656 625 757 q 572 507 625 555 q 413 458 519 458 l 250 458 "},"Þ":{"ha":797,"x_min":111,"x_max":764,"o":"m 111 0 l 250 0 l 250 265 l 479 265 q 695 333 627 265 q 764 511 764 401 q 696 689 764 622 q 479 757 628 757 l 250 757 l 250 972 l 111 972 l 111 0 m 250 383 l 250 639 l 469 639 q 588 606 548 639 q 628 511 628 574 q 588 416 628 449 q 469 383 548 383 l 250 383 "},"Q":{"ha":1069,"x_min":56,"x_max":1014,"o":"m 613 281 l 918 -19 l 993 57 l 688 357 l 613 281 m 535 -19 q 782 43 674 -19 q 952 218 890 105 q 1014 486 1014 332 q 952 754 1014 640 q 782 930 890 867 q 535 992 674 992 q 288 930 396 992 q 117 754 179 867 q 56 486 56 640 q 117 218 56 332 q 288 43 179 105 q 535 -19 396 -19 m 535 108 q 348 159 423 108 q 235 295 273 209 q 197 486 197 381 q 235 677 197 592 q 348 814 273 763 q 535 864 423 864 q 722 814 647 864 q 834 677 797 763 q 872 486 872 592 q 834 295 872 381 q 722 159 797 209 q 535 108 647 108 "},"R":{"ha":838,"x_min":111,"x_max":811,"o":"m 111 0 l 250 0 l 250 379 l 446 379 q 449 379 448 379 q 453 379 451 379 l 650 0 l 811 0 l 593 403 q 719 509 676 442 q 763 676 763 576 q 721 844 763 779 q 603 941 679 910 q 426 972 528 972 l 111 972 l 111 0 m 250 497 l 250 854 l 425 854 q 575 808 524 854 q 625 676 625 761 q 575 545 625 593 q 425 497 524 497 l 250 497 "},"Ŕ":{"ha":838,"x_min":111,"x_max":811,"o":"m 111 0 l 250 0 l 250 379 l 446 379 q 449 379 448 379 q 453 379 451 379 l 650 0 l 811 0 l 593 403 q 719 509 676 442 q 763 676 763 576 q 721 844 763 779 q 603 941 679 910 q 426 972 528 972 l 111 972 l 111 0 m 250 497 l 250 854 l 425 854 q 575 808 524 854 q 625 676 625 761 q 575 545 625 593 q 425 497 524 497 l 250 497 m 297 1061 l 557 1142 l 557 1274 l 297 1142 l 297 1061 "},"Ř":{"ha":838,"x_min":111,"x_max":811,"o":"m 111 0 l 250 0 l 250 379 l 446 379 q 449 379 448 379 q 453 379 451 379 l 650 0 l 811 0 l 593 403 q 719 509 676 442 q 763 676 763 576 q 721 844 763 779 q 603 941 679 910 q 426 972 528 972 l 111 972 l 111 0 m 250 497 l 250 854 l 425 854 q 575 808 524 854 q 625 676 625 761 q 575 545 625 593 q 425 497 524 497 l 250 497 "},"Ŗ":{"ha":838,"x_min":111,"x_max":811,"o":"m 111 0 l 250 0 l 250 379 l 446 379 q 449 379 448 379 q 453 379 451 379 l 650 0 l 811 0 l 593 403 q 719 509 676 442 q 763 676 763 576 q 721 844 763 779 q 603 941 679 910 q 426 972 528 972 l 111 972 l 111 0 m 250 497 l 250 854 l 425 854 q 575 808 524 854 q 625 676 625 761 q 575 545 625 593 q 425 497 524 497 l 250 497 m 464 -422 l 536 -260 l 536 -126 l 386 -126 l 386 -274 l 435 -274 l 385 -422 l 464 -422 "},"Ȑ":{"ha":838,"x_min":111,"x_max":811,"o":"m 111 0 l 250 0 l 250 379 l 446 379 q 449 379 448 379 q 453 379 451 379 l 650 0 l 811 0 l 593 403 q 719 509 676 442 q 763 676 763 576 q 721 844 763 779 q 603 941 679 910 q 426 972 528 972 l 111 972 l 111 0 m 250 497 l 250 854 l 425 854 q 575 808 524 854 q 625 676 625 761 q 575 545 625 593 q 425 497 524 497 l 250 497 m 571 1094 l 490 1299 l 354 1299 l 479 1094 l 571 1094 m 376 1094 l 289 1299 l 153 1299 l 285 1094 l 376 1094 "},"Ṛ":{"ha":838,"x_min":111,"x_max":811,"o":"m 111 0 l 250 0 l 250 379 l 446 379 q 449 379 448 379 q 453 379 451 379 l 650 0 l 811 0 l 593 403 q 719 509 676 442 q 763 676 763 576 q 721 844 763 779 q 603 941 679 910 q 426 972 528 972 l 111 972 l 111 0 m 250 497 l 250 854 l 425 854 q 575 808 524 854 q 625 676 625 761 q 575 545 625 593 q 425 497 524 497 l 250 497 "},"Ȓ":{"ha":838,"x_min":111,"x_max":811,"o":"m 111 0 l 250 0 l 250 379 l 446 379 q 449 379 448 379 q 453 379 451 379 l 650 0 l 811 0 l 593 403 q 719 509 676 442 q 763 676 763 576 q 721 844 763 779 q 603 941 679 910 q 426 972 528 972 l 111 972 l 111 0 m 250 497 l 250 854 l 425 854 q 575 808 524 854 q 625 676 625 761 q 575 545 625 593 q 425 497 524 497 l 250 497 m 426 1249 q 312 1225 357 1249 q 245 1163 267 1201 q 224 1082 224 1125 l 335 1082 q 362 1143 335 1123 q 426 1163 389 1163 q 491 1143 464 1163 q 518 1082 518 1123 l 629 1082 q 607 1163 629 1125 q 541 1225 585 1201 q 426 1249 496 1249 "},"Ṟ":{"ha":838,"x_min":111,"x_max":811,"o":"m 111 0 l 250 0 l 250 379 l 446 379 q 449 379 448 379 q 453 379 451 379 l 650 0 l 811 0 l 593 403 q 719 509 676 442 q 763 676 763 576 q 721 844 763 779 q 603 941 679 910 q 426 972 528 972 l 111 972 l 111 0 m 250 497 l 250 854 l 425 854 q 575 808 524 854 q 625 676 625 761 q 575 545 625 593 q 425 497 524 497 l 250 497 "},"S":{"ha":811,"x_min":71,"x_max":768,"o":"m 389 -19 q 555 -1 484 -19 q 674 53 626 18 q 744 139 721 89 q 768 251 768 189 q 729 393 768 336 q 617 490 690 451 q 443 560 544 529 q 320 604 369 582 q 246 657 271 626 q 221 736 221 688 q 277 840 221 808 q 418 872 333 872 q 567 852 495 872 q 718 785 639 832 l 732 925 q 600 971 680 950 q 424 992 519 992 q 234 958 311 992 q 116 866 156 925 q 76 729 76 806 q 117 584 76 639 q 225 498 158 530 q 372 442 292 465 q 512 392 456 417 q 596 332 568 367 q 624 242 624 297 q 568 134 624 169 q 419 100 513 100 q 294 113 356 100 q 180 146 233 126 q 89 183 126 165 l 71 43 q 156 13 105 27 q 268 -10 208 -1 q 389 -19 328 -19 "},"Ś":{"ha":811,"x_min":71,"x_max":768,"o":"m 389 -19 q 555 -1 484 -19 q 674 53 626 18 q 744 139 721 89 q 768 251 768 189 q 729 393 768 336 q 617 490 690 451 q 443 560 544 529 q 320 604 369 582 q 246 657 271 626 q 221 736 221 688 q 277 840 221 808 q 418 872 333 872 q 567 852 495 872 q 718 785 639 832 l 732 925 q 600 971 680 950 q 424 992 519 992 q 234 958 311 992 q 116 866 156 925 q 76 729 76 806 q 117 584 76 639 q 225 498 158 530 q 372 442 292 465 q 512 392 456 417 q 596 332 568 367 q 624 242 624 297 q 568 134 624 169 q 419 100 513 100 q 294 113 356 100 q 180 146 233 126 q 89 183 126 165 l 71 43 q 156 13 105 27 q 268 -10 208 -1 q 389 -19 328 -19 m 310 1061 l 569 1142 l 569 1274 l 310 1142 l 310 1061 "},"Ṥ":{"ha":811,"x_min":71,"x_max":768,"o":"m 389 -19 q 555 -1 484 -19 q 674 53 626 18 q 744 139 721 89 q 768 251 768 189 q 729 393 768 336 q 617 490 690 451 q 443 560 544 529 q 320 604 369 582 q 246 657 271 626 q 221 736 221 688 q 277 840 221 808 q 418 872 333 872 q 567 852 495 872 q 718 785 639 832 l 732 925 q 600 971 680 950 q 424 992 519 992 q 234 958 311 992 q 116 866 156 925 q 76 729 76 806 q 117 584 76 639 q 225 498 158 530 q 372 442 292 465 q 512 392 456 417 q 596 332 568 367 q 624 242 624 297 q 568 134 624 169 q 419 100 513 100 q 294 113 356 100 q 180 146 233 126 q 89 183 126 165 l 71 43 q 156 13 105 27 q 268 -10 208 -1 q 389 -19 328 -19 m 310 1061 l 569 1142 l 569 1274 l 310 1142 l 310 1061 m 372 1338 l 506 1338 l 506 1463 l 372 1463 l 372 1338 "},"Š":{"ha":811,"x_min":71,"x_max":768,"o":"m 389 -19 q 555 -1 484 -19 q 674 53 626 18 q 744 139 721 89 q 768 251 768 189 q 729 393 768 336 q 617 490 690 451 q 443 560 544 529 q 320 604 369 582 q 246 657 271 626 q 221 736 221 688 q 277 840 221 808 q 418 872 333 872 q 567 852 495 872 q 718 785 639 832 l 732 925 q 600 971 680 950 q 424 992 519 992 q 234 958 311 992 q 116 866 156 925 q 76 729 76 806 q 117 584 76 639 q 225 498 158 530 q 372 442 292 465 q 512 392 456 417 q 596 332 568 367 q 624 242 624 297 q 568 134 624 169 q 419 100 513 100 q 294 113 356 100 q 180 146 233 126 q 89 183 126 165 l 71 43 q 156 13 105 27 q 268 -10 208 -1 q 389 -19 328 -19 "},"Ṧ":{"ha":811,"x_min":71,"x_max":768,"o":"m 389 -19 q 555 -1 484 -19 q 674 53 626 18 q 744 139 721 89 q 768 251 768 189 q 729 393 768 336 q 617 490 690 451 q 443 560 544 529 q 320 604 369 582 q 246 657 271 626 q 221 736 221 688 q 277 840 221 808 q 418 872 333 872 q 567 852 495 872 q 718 785 639 832 l 732 925 q 600 971 680 950 q 424 992 519 992 q 234 958 311 992 q 116 866 156 925 q 76 729 76 806 q 117 584 76 639 q 225 498 158 530 q 372 442 292 465 q 512 392 456 417 q 596 332 568 367 q 624 242 624 297 q 568 134 624 169 q 419 100 513 100 q 294 113 356 100 q 180 146 233 126 q 89 183 126 165 l 71 43 q 156 13 105 27 q 268 -10 208 -1 q 389 -19 328 -19 m 372 1356 l 506 1356 l 506 1481 l 372 1481 l 372 1356 "},"Ş":{"ha":811,"x_min":71,"x_max":768,"o":"m 389 -19 q 555 -1 484 -19 q 674 53 626 18 q 744 139 721 89 q 768 251 768 189 q 729 393 768 336 q 617 490 690 451 q 443 560 544 529 q 320 604 369 582 q 246 657 271 626 q 221 736 221 688 q 277 840 221 808 q 418 872 333 872 q 567 852 495 872 q 718 785 639 832 l 732 925 q 600 971 680 950 q 424 992 519 992 q 234 958 311 992 q 116 866 156 925 q 76 729 76 806 q 117 584 76 639 q 225 498 158 530 q 372 442 292 465 q 512 392 456 417 q 596 332 568 367 q 624 242 624 297 q 568 134 624 169 q 419 100 513 100 q 294 113 356 100 q 180 146 233 126 q 89 183 126 165 l 71 43 q 156 13 105 27 q 268 -10 208 -1 q 389 -19 328 -19 m 411 -110 l 446 0 l 376 0 l 340 -146 q 374 -137 358 -140 q 404 -135 389 -135 q 457 -150 440 -135 q 474 -190 474 -165 q 456 -230 474 -216 q 407 -243 438 -243 q 362 -237 383 -243 q 319 -219 340 -231 l 299 -287 q 344 -306 317 -298 q 407 -314 372 -314 q 511 -281 469 -314 q 554 -187 554 -249 q 522 -105 554 -135 q 433 -75 490 -75 q 398 -79 415 -75 q 365 -89 382 -83 l 411 -110 "},"Ŝ":{"ha":811,"x_min":71,"x_max":768,"o":"m 389 -19 q 555 -1 484 -19 q 674 53 626 18 q 744 139 721 89 q 768 251 768 189 q 729 393 768 336 q 617 490 690 451 q 443 560 544 529 q 320 604 369 582 q 246 657 271 626 q 221 736 221 688 q 277 840 221 808 q 418 872 333 872 q 567 852 495 872 q 718 785 639 832 l 732 925 q 600 971 680 950 q 424 992 519 992 q 234 958 311 992 q 116 866 156 925 q 76 729 76 806 q 117 584 76 639 q 225 498 158 530 q 372 442 292 465 q 512 392 456 417 q 596 332 568 367 q 624 242 624 297 q 568 134 624 169 q 419 100 513 100 q 294 113 356 100 q 180 146 233 126 q 89 183 126 165 l 71 43 q 156 13 105 27 q 268 -10 208 -1 q 389 -19 328 -19 m 263 1046 l 439 1138 l 615 1046 l 615 1131 l 439 1256 l 263 1131 l 263 1046 "},"Ș":{"ha":811,"x_min":71,"x_max":768,"o":"m 389 -19 q 555 -1 484 -19 q 674 53 626 18 q 744 139 721 89 q 768 251 768 189 q 729 393 768 336 q 617 490 690 451 q 443 560 544 529 q 320 604 369 582 q 246 657 271 626 q 221 736 221 688 q 277 840 221 808 q 418 872 333 872 q 567 852 495 872 q 718 785 639 832 l 732 925 q 600 971 680 950 q 424 992 519 992 q 234 958 311 992 q 116 866 156 925 q 76 729 76 806 q 117 584 76 639 q 225 498 158 530 q 372 442 292 465 q 512 392 456 417 q 596 332 568 367 q 624 242 624 297 q 568 134 624 169 q 419 100 513 100 q 294 113 356 100 q 180 146 233 126 q 89 183 126 165 l 71 43 q 156 13 105 27 q 268 -10 208 -1 q 389 -19 328 -19 m 411 -422 l 483 -260 l 483 -126 l 333 -126 l 333 -274 l 382 -274 l 332 -422 l 411 -422 "},"Ṡ":{"ha":811,"x_min":71,"x_max":768,"o":"m 389 -19 q 555 -1 484 -19 q 674 53 626 18 q 744 139 721 89 q 768 251 768 189 q 729 393 768 336 q 617 490 690 451 q 443 560 544 529 q 320 604 369 582 q 246 657 271 626 q 221 736 221 688 q 277 840 221 808 q 418 872 333 872 q 567 852 495 872 q 718 785 639 832 l 732 925 q 600 971 680 950 q 424 992 519 992 q 234 958 311 992 q 116 866 156 925 q 76 729 76 806 q 117 584 76 639 q 225 498 158 530 q 372 442 292 465 q 512 392 456 417 q 596 332 568 367 q 624 242 624 297 q 568 134 624 169 q 419 100 513 100 q 294 113 356 100 q 180 146 233 126 q 89 183 126 165 l 71 43 q 156 13 105 27 q 268 -10 208 -1 q 389 -19 328 -19 m 372 1099 l 506 1099 l 506 1224 l 372 1224 l 372 1099 "},"Ṣ":{"ha":811,"x_min":71,"x_max":768,"o":"m 389 -19 q 555 -1 484 -19 q 674 53 626 18 q 744 139 721 89 q 768 251 768 189 q 729 393 768 336 q 617 490 690 451 q 443 560 544 529 q 320 604 369 582 q 246 657 271 626 q 221 736 221 688 q 277 840 221 808 q 418 872 333 872 q 567 852 495 872 q 718 785 639 832 l 732 925 q 600 971 680 950 q 424 992 519 992 q 234 958 311 992 q 116 866 156 925 q 76 729 76 806 q 117 584 76 639 q 225 498 158 530 q 372 442 292 465 q 512 392 456 417 q 596 332 568 367 q 624 242 624 297 q 568 134 624 169 q 419 100 513 100 q 294 113 356 100 q 180 146 233 126 q 89 183 126 165 l 71 43 q 156 13 105 27 q 268 -10 208 -1 q 389 -19 328 -19 "},"Ṩ":{"ha":811,"x_min":71,"x_max":768,"o":"m 389 -19 q 555 -1 484 -19 q 674 53 626 18 q 744 139 721 89 q 768 251 768 189 q 729 393 768 336 q 617 490 690 451 q 443 560 544 529 q 320 604 369 582 q 246 657 271 626 q 221 736 221 688 q 277 840 221 808 q 418 872 333 872 q 567 852 495 872 q 718 785 639 832 l 732 925 q 600 971 680 950 q 424 992 519 992 q 234 958 311 992 q 116 866 156 925 q 76 729 76 806 q 117 584 76 639 q 225 498 158 530 q 372 442 292 465 q 512 392 456 417 q 596 332 568 367 q 624 242 624 297 q 568 134 624 169 q 419 100 513 100 q 294 113 356 100 q 180 146 233 126 q 89 183 126 165 l 71 43 q 156 13 105 27 q 268 -10 208 -1 q 389 -19 328 -19 m 372 1099 l 506 1099 l 506 1224 l 372 1224 l 372 1099 "},"ẞ":{"ha":854,"x_min":111,"x_max":800,"o":"m 111 0 l 243 0 l 243 685 q 304 828 243 776 q 465 881 365 881 q 582 867 532 881 q 665 838 632 854 l 676 896 l 410 571 l 410 465 l 443 465 q 606 415 551 465 q 661 274 661 365 q 614 146 661 192 q 486 100 567 100 q 357 114 417 100 l 357 0 q 425 -14 392 -9 q 496 -19 458 -19 q 644 13 574 -19 q 757 110 713 44 q 800 275 800 175 q 754 444 800 380 q 634 536 708 508 q 474 565 560 565 l 504 507 l 751 804 l 751 910 q 628 968 701 945 q 465 992 555 992 q 281 958 360 992 q 156 855 201 924 q 111 682 111 786 l 111 0 "},"Ə":{"ha":971,"x_min":42,"x_max":915,"o":"m 771 475 q 689 201 771 301 q 465 100 607 100 q 254 174 322 100 q 186 371 186 247 l 832 371 l 832 488 l 50 488 q 43 437 45 462 q 42 392 42 413 q 96 169 42 260 q 245 29 150 77 q 461 -19 340 -19 q 653 19 569 -19 q 796 126 738 58 q 885 283 854 194 q 915 472 915 372 q 858 749 915 633 q 694 928 800 865 q 443 992 588 992 q 250 968 341 992 q 85 910 159 945 l 110 799 q 264 852 185 831 q 428 872 344 872 q 683 766 594 872 q 771 475 771 660 "},"T":{"ha":740,"x_min":21,"x_max":719,"o":"m 304 0 l 436 0 l 436 853 l 719 853 l 719 972 l 21 972 l 21 853 l 304 853 l 304 0 "},"Ŧ":{"ha":740,"x_min":21,"x_max":719,"o":"m 304 0 l 436 0 l 436 853 l 719 853 l 719 972 l 21 972 l 21 853 l 304 853 l 304 0 m 124 454 l 617 454 l 617 542 l 124 542 l 124 454 "},"Ť":{"ha":740,"x_min":21,"x_max":719,"o":"m 304 0 l 436 0 l 436 853 l 719 853 l 719 972 l 21 972 l 21 853 l 304 853 l 304 0 "},"Ţ":{"ha":740,"x_min":21,"x_max":719,"o":"m 304 0 l 436 0 l 436 853 l 719 853 l 719 972 l 21 972 l 21 853 l 304 853 l 304 0 "},"Ț":{"ha":740,"x_min":21,"x_max":719,"o":"m 304 0 l 436 0 l 436 853 l 719 853 l 719 972 l 21 972 l 21 853 l 304 853 l 304 0 m 375 -422 l 447 -260 l 447 -126 l 297 -126 l 297 -274 l 346 -274 l 296 -422 l 375 -422 "},"Ṭ":{"ha":740,"x_min":21,"x_max":719,"o":"m 304 0 l 436 0 l 436 853 l 719 853 l 719 972 l 21 972 l 21 853 l 304 853 l 304 0 "},"Ṯ":{"ha":740,"x_min":21,"x_max":719,"o":"m 304 0 l 436 0 l 436 853 l 719 853 l 719 972 l 21 972 l 21 853 l 304 853 l 304 0 "},"U":{"ha":1006,"x_min":100,"x_max":906,"o":"m 503 -19 q 729 33 640 -19 q 862 182 818 85 q 906 413 906 279 l 906 972 l 774 972 l 774 449 q 763 320 774 383 q 725 208 753 258 q 643 129 697 158 q 503 100 590 100 q 363 129 417 100 q 281 208 309 158 q 242 319 253 257 q 232 449 232 382 l 232 972 l 100 972 l 100 413 q 144 182 100 279 q 277 33 188 85 q 503 -19 366 -19 "},"Ú":{"ha":1006,"x_min":100,"x_max":906,"o":"m 503 -19 q 729 33 640 -19 q 862 182 818 85 q 906 413 906 279 l 906 972 l 774 972 l 774 449 q 763 320 774 383 q 725 208 753 258 q 643 129 697 158 q 503 100 590 100 q 363 129 417 100 q 281 208 309 158 q 242 319 253 257 q 232 449 232 382 l 232 972 l 100 972 l 100 413 q 144 182 100 279 q 277 33 188 85 q 503 -19 366 -19 m 374 1061 l 633 1142 l 633 1274 l 374 1142 l 374 1061 "},"Ŭ":{"ha":1006,"x_min":100,"x_max":906,"o":"m 503 -19 q 729 33 640 -19 q 862 182 818 85 q 906 413 906 279 l 906 972 l 774 972 l 774 449 q 763 320 774 383 q 725 208 753 258 q 643 129 697 158 q 503 100 590 100 q 363 129 417 100 q 281 208 309 158 q 242 319 253 257 q 232 449 232 382 l 232 972 l 100 972 l 100 413 q 144 182 100 279 q 277 33 188 85 q 503 -19 366 -19 m 503 1061 q 617 1085 572 1061 q 684 1147 662 1108 q 706 1228 706 1185 l 594 1228 q 567 1167 594 1188 q 503 1147 540 1147 q 438 1167 465 1147 q 411 1228 411 1188 l 300 1228 q 322 1147 300 1185 q 389 1085 344 1108 q 503 1061 433 1061 "},"Û":{"ha":1006,"x_min":100,"x_max":906,"o":"m 503 -19 q 729 33 640 -19 q 862 182 818 85 q 906 413 906 279 l 906 972 l 774 972 l 774 449 q 763 320 774 383 q 725 208 753 258 q 643 129 697 158 q 503 100 590 100 q 363 129 417 100 q 281 208 309 158 q 242 319 253 257 q 232 449 232 382 l 232 972 l 100 972 l 100 413 q 144 182 100 279 q 277 33 188 85 q 503 -19 366 -19 m 326 1046 l 503 1138 l 679 1046 l 679 1131 l 503 1256 l 326 1131 l 326 1046 "},"Ȕ":{"ha":1006,"x_min":100,"x_max":906,"o":"m 503 -19 q 729 33 640 -19 q 862 182 818 85 q 906 413 906 279 l 906 972 l 774 972 l 774 449 q 763 320 774 383 q 725 208 753 258 q 643 129 697 158 q 503 100 590 100 q 363 129 417 100 q 281 208 309 158 q 242 319 253 257 q 232 449 232 382 l 232 972 l 100 972 l 100 413 q 144 182 100 279 q 277 33 188 85 q 503 -19 366 -19 m 647 1094 l 556 1326 l 419 1326 l 556 1094 l 647 1094 m 453 1094 l 354 1326 l 218 1326 l 361 1094 l 453 1094 "},"Ü":{"ha":1006,"x_min":100,"x_max":906,"o":"m 503 -19 q 729 33 640 -19 q 862 182 818 85 q 906 413 906 279 l 906 972 l 774 972 l 774 449 q 763 320 774 383 q 725 208 753 258 q 643 129 697 158 q 503 100 590 100 q 363 129 417 100 q 281 208 309 158 q 242 319 253 257 q 232 449 232 382 l 232 972 l 100 972 l 100 413 q 144 182 100 279 q 277 33 188 85 q 503 -19 366 -19 m 310 1103 l 429 1103 l 429 1207 l 310 1207 l 310 1103 m 576 1103 l 696 1103 l 696 1207 l 576 1207 l 576 1103 "},"Ụ":{"ha":1006,"x_min":100,"x_max":906,"o":"m 503 -19 q 729 33 640 -19 q 862 182 818 85 q 906 413 906 279 l 906 972 l 774 972 l 774 449 q 763 320 774 383 q 725 208 753 258 q 643 129 697 158 q 503 100 590 100 q 363 129 417 100 q 281 208 309 158 q 242 319 253 257 q 232 449 232 382 l 232 972 l 100 972 l 100 413 q 144 182 100 279 q 277 33 188 85 q 503 -19 366 -19 "},"Ù":{"ha":1006,"x_min":100,"x_max":906,"o":"m 503 -19 q 729 33 640 -19 q 862 182 818 85 q 906 413 906 279 l 906 972 l 774 972 l 774 449 q 763 320 774 383 q 725 208 753 258 q 643 129 697 158 q 503 100 590 100 q 363 129 417 100 q 281 208 309 158 q 242 319 253 257 q 232 449 232 382 l 232 972 l 100 972 l 100 413 q 144 182 100 279 q 277 33 188 85 q 503 -19 366 -19 m 632 1061 l 632 1142 l 372 1274 l 372 1142 l 632 1061 "},"Ủ":{"ha":1006,"x_min":100,"x_max":906,"o":"m 503 -19 q 729 33 640 -19 q 862 182 818 85 q 906 413 906 279 l 906 972 l 774 972 l 774 449 q 763 320 774 383 q 725 208 753 258 q 643 129 697 158 q 503 100 590 100 q 363 129 417 100 q 281 208 309 158 q 242 319 253 257 q 232 449 232 382 l 232 972 l 100 972 l 100 413 q 144 182 100 279 q 277 33 188 85 q 503 -19 366 -19 m 501 1056 q 591 1099 563 1069 q 618 1174 618 1128 q 578 1253 618 1225 q 481 1281 538 1281 q 420 1274 449 1281 q 369 1254 392 1267 l 393 1183 q 437 1202 415 1195 q 481 1210 459 1210 q 522 1199 507 1210 q 538 1165 538 1188 q 525 1133 538 1146 q 489 1111 513 1119 l 501 1056 "},"Ư":{"ha":1006,"x_min":100,"x_max":1071,"o":"m 503 -19 q 729 33 640 -19 q 862 182 818 85 q 906 413 906 279 l 906 972 l 774 972 l 774 449 q 763 320 774 383 q 725 208 753 258 q 643 129 697 158 q 503 100 590 100 q 363 129 417 100 q 281 208 309 158 q 242 319 253 257 q 232 449 232 382 l 232 972 l 100 972 l 100 413 q 144 182 100 279 q 277 33 188 85 q 503 -19 366 -19 m 840 876 q 958 904 906 876 q 1040 977 1010 932 q 1071 1075 1071 1022 l 951 1075 q 922 996 951 1020 q 840 972 892 972 l 840 876 "},"Ứ":{"ha":1006,"x_min":100,"x_max":1071,"o":"m 503 -19 q 729 33 640 -19 q 862 182 818 85 q 906 413 906 279 l 906 972 l 774 972 l 774 449 q 763 320 774 383 q 725 208 753 258 q 643 129 697 158 q 503 100 590 100 q 363 129 417 100 q 281 208 309 158 q 242 319 253 257 q 232 449 232 382 l 232 972 l 100 972 l 100 413 q 144 182 100 279 q 277 33 188 85 q 503 -19 366 -19 m 840 876 q 958 904 906 876 q 1040 977 1010 932 q 1071 1075 1071 1022 l 951 1075 q 922 996 951 1020 q 840 972 892 972 l 840 876 m 374 1061 l 633 1142 l 633 1274 l 374 1142 l 374 1061 "},"Ự":{"ha":1006,"x_min":100,"x_max":1071,"o":"m 503 -19 q 729 33 640 -19 q 862 182 818 85 q 906 413 906 279 l 906 972 l 774 972 l 774 449 q 763 320 774 383 q 725 208 753 258 q 643 129 697 158 q 503 100 590 100 q 363 129 417 100 q 281 208 309 158 q 242 319 253 257 q 232 449 232 382 l 232 972 l 100 972 l 100 413 q 144 182 100 279 q 277 33 188 85 q 503 -19 366 -19 m 840 876 q 958 904 906 876 q 1040 977 1010 932 q 1071 1075 1071 1022 l 951 1075 q 922 996 951 1020 q 840 972 892 972 l 840 876 "},"Ừ":{"ha":1006,"x_min":100,"x_max":1071,"o":"m 503 -19 q 729 33 640 -19 q 862 182 818 85 q 906 413 906 279 l 906 972 l 774 972 l 774 449 q 763 320 774 383 q 725 208 753 258 q 643 129 697 158 q 503 100 590 100 q 363 129 417 100 q 281 208 309 158 q 242 319 253 257 q 232 449 232 382 l 232 972 l 100 972 l 100 413 q 144 182 100 279 q 277 33 188 85 q 503 -19 366 -19 m 840 876 q 958 904 906 876 q 1040 977 1010 932 q 1071 1075 1071 1022 l 951 1075 q 922 996 951 1020 q 840 972 892 972 l 840 876 m 632 1061 l 632 1142 l 372 1274 l 372 1142 l 632 1061 "},"Ử":{"ha":1006,"x_min":100,"x_max":1071,"o":"m 503 -19 q 729 33 640 -19 q 862 182 818 85 q 906 413 906 279 l 906 972 l 774 972 l 774 449 q 763 320 774 383 q 725 208 753 258 q 643 129 697 158 q 503 100 590 100 q 363 129 417 100 q 281 208 309 158 q 242 319 253 257 q 232 449 232 382 l 232 972 l 100 972 l 100 413 q 144 182 100 279 q 277 33 188 85 q 503 -19 366 -19 m 840 876 q 958 904 906 876 q 1040 977 1010 932 q 1071 1075 1071 1022 l 951 1075 q 922 996 951 1020 q 840 972 892 972 l 840 876 m 501 1056 q 591 1099 563 1069 q 618 1174 618 1128 q 578 1253 618 1225 q 481 1281 538 1281 q 420 1274 449 1281 q 369 1254 392 1267 l 393 1183 q 437 1202 415 1195 q 481 1210 459 1210 q 522 1199 507 1210 q 538 1165 538 1188 q 525 1133 538 1146 q 489 1111 513 1119 l 501 1056 "},"Ữ":{"ha":1006,"x_min":100,"x_max":1071,"o":"m 503 -19 q 729 33 640 -19 q 862 182 818 85 q 906 413 906 279 l 906 972 l 774 972 l 774 449 q 763 320 774 383 q 725 208 753 258 q 643 129 697 158 q 503 100 590 100 q 363 129 417 100 q 281 208 309 158 q 242 319 253 257 q 232 449 232 382 l 232 972 l 100 972 l 100 413 q 144 182 100 279 q 277 33 188 85 q 503 -19 366 -19 m 840 876 q 958 904 906 876 q 1040 977 1010 932 q 1071 1075 1071 1022 l 951 1075 q 922 996 951 1020 q 840 972 892 972 l 840 876 m 618 1094 q 693 1130 666 1094 q 719 1233 719 1166 l 629 1233 q 582 1183 629 1183 q 523 1198 556 1183 q 455 1226 490 1212 q 388 1240 419 1240 q 313 1205 340 1240 q 286 1101 286 1169 l 376 1101 q 424 1151 376 1151 q 483 1137 450 1151 q 551 1109 516 1123 q 618 1094 586 1094 "},"Ű":{"ha":1006,"x_min":100,"x_max":906,"o":"m 503 -19 q 729 33 640 -19 q 862 182 818 85 q 906 413 906 279 l 906 972 l 774 972 l 774 449 q 763 320 774 383 q 725 208 753 258 q 643 129 697 158 q 503 100 590 100 q 363 129 417 100 q 281 208 309 158 q 242 319 253 257 q 232 449 232 382 l 232 972 l 100 972 l 100 413 q 144 182 100 279 q 277 33 188 85 q 503 -19 366 -19 m 358 1094 l 450 1094 l 586 1299 l 450 1299 l 358 1094 m 553 1094 l 644 1094 l 788 1299 l 651 1299 l 553 1094 "},"Ȗ":{"ha":1006,"x_min":100,"x_max":906,"o":"m 503 -19 q 729 33 640 -19 q 862 182 818 85 q 906 413 906 279 l 906 972 l 774 972 l 774 449 q 763 320 774 383 q 725 208 753 258 q 643 129 697 158 q 503 100 590 100 q 363 129 417 100 q 281 208 309 158 q 242 319 253 257 q 232 449 232 382 l 232 972 l 100 972 l 100 413 q 144 182 100 279 q 277 33 188 85 q 503 -19 366 -19 m 503 1249 q 389 1225 433 1249 q 322 1163 344 1201 q 300 1082 300 1125 l 411 1082 q 438 1143 411 1123 q 503 1163 465 1163 q 567 1143 540 1163 q 594 1082 594 1123 l 706 1082 q 684 1163 706 1125 q 617 1225 662 1201 q 503 1249 572 1249 "},"Ū":{"ha":1006,"x_min":100,"x_max":906,"o":"m 503 -19 q 729 33 640 -19 q 862 182 818 85 q 906 413 906 279 l 906 972 l 774 972 l 774 449 q 763 320 774 383 q 725 208 753 258 q 643 129 697 158 q 503 100 590 100 q 363 129 417 100 q 281 208 309 158 q 242 319 253 257 q 232 449 232 382 l 232 972 l 100 972 l 100 413 q 144 182 100 279 q 277 33 188 85 q 503 -19 366 -19 m 281 1101 l 725 1101 l 725 1196 l 281 1196 l 281 1101 "},"Ṻ":{"ha":1006,"x_min":100,"x_max":906,"o":"m 503 -19 q 729 33 640 -19 q 862 182 818 85 q 906 413 906 279 l 906 972 l 774 972 l 774 449 q 763 320 774 383 q 725 208 753 258 q 643 129 697 158 q 503 100 590 100 q 363 129 417 100 q 281 208 309 158 q 242 319 253 257 q 232 449 232 382 l 232 972 l 100 972 l 100 413 q 144 182 100 279 q 277 33 188 85 q 503 -19 366 -19 m 281 1101 l 725 1101 l 725 1196 l 281 1196 l 281 1101 m 310 1342 l 429 1342 l 429 1446 l 310 1446 l 310 1342 m 576 1342 l 696 1342 l 696 1446 l 576 1446 l 576 1342 "},"Ų":{"ha":1006,"x_min":100,"x_max":906,"o":"m 503 -19 q 729 33 640 -19 q 862 182 818 85 q 906 413 906 279 l 906 972 l 774 972 l 774 449 q 763 320 774 383 q 725 208 753 258 q 643 129 697 158 q 503 100 590 100 q 363 129 417 100 q 281 208 309 158 q 242 319 253 257 q 232 449 232 382 l 232 972 l 100 972 l 100 413 q 144 182 100 279 q 277 33 188 85 q 503 -19 366 -19 m 568 0 q 490 -69 526 -24 q 453 -169 453 -114 q 494 -258 453 -228 q 593 -289 535 -289 q 660 -281 631 -289 q 708 -262 689 -273 l 688 -194 q 645 -212 667 -206 q 600 -218 624 -218 q 552 -200 570 -218 q 533 -147 533 -183 q 563 -73 533 -108 q 642 0 593 -37 l 568 0 "},"Ů":{"ha":1006,"x_min":100,"x_max":906,"o":"m 503 -19 q 729 33 640 -19 q 862 182 818 85 q 906 413 906 279 l 906 972 l 774 972 l 774 449 q 763 320 774 383 q 725 208 753 258 q 643 129 697 158 q 503 100 590 100 q 363 129 417 100 q 281 208 309 158 q 242 319 253 257 q 232 449 232 382 l 232 972 l 100 972 l 100 413 q 144 182 100 279 q 277 33 188 85 q 503 -19 366 -19 m 503 1050 q 611 1092 576 1050 q 647 1186 647 1133 q 611 1280 647 1238 q 503 1322 575 1322 q 395 1280 432 1322 q 358 1186 358 1238 q 395 1092 358 1133 q 503 1050 431 1050 m 503 1111 q 451 1131 474 1111 q 428 1186 428 1151 q 450 1240 428 1219 q 503 1261 473 1261 q 556 1240 533 1261 q 578 1186 578 1219 q 555 1131 578 1151 q 503 1111 532 1111 "},"Ũ":{"ha":1006,"x_min":100,"x_max":906,"o":"m 503 -19 q 729 33 640 -19 q 862 182 818 85 q 906 413 906 279 l 906 972 l 774 972 l 774 449 q 763 320 774 383 q 725 208 753 258 q 643 129 697 158 q 503 100 590 100 q 363 129 417 100 q 281 208 309 158 q 242 319 253 257 q 232 449 232 382 l 232 972 l 100 972 l 100 413 q 144 182 100 279 q 277 33 188 85 q 503 -19 366 -19 m 618 1094 q 693 1130 666 1094 q 719 1233 719 1166 l 629 1233 q 582 1183 629 1183 q 523 1198 556 1183 q 455 1226 490 1212 q 388 1240 419 1240 q 313 1205 340 1240 q 286 1101 286 1169 l 376 1101 q 424 1151 376 1151 q 483 1137 450 1151 q 551 1109 516 1123 q 618 1094 586 1094 "},"Ṹ":{"ha":1006,"x_min":100,"x_max":906,"o":"m 503 -19 q 729 33 640 -19 q 862 182 818 85 q 906 413 906 279 l 906 972 l 774 972 l 774 449 q 763 320 774 383 q 725 208 753 258 q 643 129 697 158 q 503 100 590 100 q 363 129 417 100 q 281 208 309 158 q 242 319 253 257 q 232 449 232 382 l 232 972 l 100 972 l 100 413 q 144 182 100 279 q 277 33 188 85 q 503 -19 366 -19 m 618 1094 q 693 1130 666 1094 q 719 1233 719 1166 l 629 1233 q 582 1183 629 1183 q 523 1198 556 1183 q 455 1226 490 1212 q 388 1240 419 1240 q 313 1205 340 1240 q 286 1101 286 1169 l 376 1101 q 424 1151 376 1151 q 483 1137 450 1151 q 551 1109 516 1123 q 618 1094 586 1094 m 374 1306 l 633 1386 l 633 1518 l 374 1386 l 374 1306 "},"V":{"ha":847,"x_min":6,"x_max":842,"o":"m 354 0 l 493 0 l 842 972 l 703 972 l 404 129 l 443 129 l 144 972 l 6 972 l 354 0 "},"W":{"ha":1314,"x_min":6,"x_max":1308,"o":"m 281 0 l 421 0 l 657 782 l 893 0 l 1033 0 l 1308 972 l 1169 972 l 964 171 l 726 953 l 588 953 l 350 171 l 144 972 l 6 972 l 281 0 "},"Ẃ":{"ha":1314,"x_min":6,"x_max":1308,"o":"m 281 0 l 421 0 l 657 782 l 893 0 l 1033 0 l 1308 972 l 1169 972 l 964 171 l 726 953 l 588 953 l 350 171 l 144 972 l 6 972 l 281 0 m 532 1061 l 792 1142 l 792 1274 l 532 1142 l 532 1061 "},"Ŵ":{"ha":1314,"x_min":6,"x_max":1308,"o":"m 281 0 l 421 0 l 657 782 l 893 0 l 1033 0 l 1308 972 l 1169 972 l 964 171 l 726 953 l 588 953 l 350 171 l 144 972 l 6 972 l 281 0 m 485 1046 l 661 1138 l 838 1046 l 838 1131 l 661 1256 l 485 1131 l 485 1046 "},"Ẅ":{"ha":1314,"x_min":6,"x_max":1308,"o":"m 281 0 l 421 0 l 657 782 l 893 0 l 1033 0 l 1308 972 l 1169 972 l 964 171 l 726 953 l 588 953 l 350 171 l 144 972 l 6 972 l 281 0 m 468 1103 l 588 1103 l 588 1207 l 468 1207 l 468 1103 m 735 1103 l 854 1103 l 854 1207 l 735 1207 l 735 1103 "},"Ẁ":{"ha":1314,"x_min":6,"x_max":1308,"o":"m 281 0 l 421 0 l 657 782 l 893 0 l 1033 0 l 1308 972 l 1169 972 l 964 171 l 726 953 l 588 953 l 350 171 l 144 972 l 6 972 l 281 0 m 790 1061 l 790 1142 l 531 1274 l 531 1142 l 790 1061 "},"X":{"ha":824,"x_min":6,"x_max":818,"o":"m 6 0 l 158 0 l 413 376 l 665 0 l 818 0 l 489 490 l 813 972 l 660 972 l 413 604 l 164 972 l 11 972 l 336 490 l 6 0 "},"Y":{"ha":788,"x_min":-15,"x_max":801,"o":"m 328 0 l 460 0 l 460 421 l 801 972 l 651 972 l 363 500 l 424 500 l 135 972 l -15 972 l 328 421 l 328 0 "},"Ý":{"ha":788,"x_min":-15,"x_max":801,"o":"m 328 0 l 460 0 l 460 421 l 801 972 l 651 972 l 363 500 l 424 500 l 135 972 l -15 972 l 328 421 l 328 0 m 264 1061 l 524 1142 l 524 1274 l 264 1142 l 264 1061 "},"Ŷ":{"ha":788,"x_min":-15,"x_max":801,"o":"m 328 0 l 460 0 l 460 421 l 801 972 l 651 972 l 363 500 l 424 500 l 135 972 l -15 972 l 328 421 l 328 0 m 217 1046 l 393 1138 l 569 1046 l 569 1131 l 393 1256 l 217 1131 l 217 1046 "},"Ÿ":{"ha":788,"x_min":-15,"x_max":801,"o":"m 328 0 l 460 0 l 460 421 l 801 972 l 651 972 l 363 500 l 424 500 l 135 972 l -15 972 l 328 421 l 328 0 m 200 1103 l 319 1103 l 319 1207 l 200 1207 l 200 1103 m 467 1103 l 586 1103 l 586 1207 l 467 1207 l 467 1103 "},"Ẏ":{"ha":788,"x_min":-15,"x_max":801,"o":"m 328 0 l 460 0 l 460 421 l 801 972 l 651 972 l 363 500 l 424 500 l 135 972 l -15 972 l 328 421 l 328 0 m 326 1099 l 460 1099 l 460 1224 l 326 1224 l 326 1099 "},"Ỵ":{"ha":788,"x_min":-15,"x_max":801,"o":"m 328 0 l 460 0 l 460 421 l 801 972 l 651 972 l 363 500 l 424 500 l 135 972 l -15 972 l 328 421 l 328 0 "},"Ỳ":{"ha":788,"x_min":-15,"x_max":801,"o":"m 328 0 l 460 0 l 460 421 l 801 972 l 651 972 l 363 500 l 424 500 l 135 972 l -15 972 l 328 421 l 328 0 m 522 1061 l 522 1142 l 263 1274 l 263 1142 l 522 1061 "},"Ỷ":{"ha":788,"x_min":-15,"x_max":801,"o":"m 328 0 l 460 0 l 460 421 l 801 972 l 651 972 l 363 500 l 424 500 l 135 972 l -15 972 l 328 421 l 328 0 m 392 1056 q 481 1099 453 1069 q 508 1174 508 1128 q 468 1253 508 1225 q 371 1281 428 1281 q 311 1274 339 1281 q 260 1254 283 1267 l 283 1183 q 327 1202 306 1195 q 371 1210 349 1210 q 413 1199 397 1210 q 428 1165 428 1188 q 416 1133 428 1146 q 379 1111 403 1119 l 392 1056 "},"Ȳ":{"ha":788,"x_min":-15,"x_max":801,"o":"m 328 0 l 460 0 l 460 421 l 801 972 l 651 972 l 363 500 l 424 500 l 135 972 l -15 972 l 328 421 l 328 0 m 171 1101 l 615 1101 l 615 1196 l 171 1196 l 171 1101 "},"Ỹ":{"ha":788,"x_min":-15,"x_max":801,"o":"m 328 0 l 460 0 l 460 421 l 801 972 l 651 972 l 363 500 l 424 500 l 135 972 l -15 972 l 328 421 l 328 0 m 508 1094 q 583 1130 556 1094 q 610 1233 610 1166 l 519 1233 q 472 1183 519 1183 q 413 1198 446 1183 q 345 1226 380 1212 q 278 1240 310 1240 q 203 1205 230 1240 q 176 1101 176 1169 l 267 1101 q 314 1151 267 1151 q 373 1137 340 1151 q 441 1109 406 1123 q 508 1094 476 1094 "},"Z":{"ha":763,"x_min":13,"x_max":753,"o":"m 13 0 l 746 0 l 746 119 l 169 119 l 193 69 l 753 972 l 75 972 l 75 853 l 594 853 l 569 903 l 13 0 "},"Ź":{"ha":763,"x_min":13,"x_max":753,"o":"m 13 0 l 746 0 l 746 119 l 169 119 l 193 69 l 753 972 l 75 972 l 75 853 l 594 853 l 569 903 l 13 0 m 285 1061 l 544 1142 l 544 1274 l 285 1142 l 285 1061 "},"Ž":{"ha":763,"x_min":13,"x_max":753,"o":"m 13 0 l 746 0 l 746 119 l 169 119 l 193 69 l 753 972 l 75 972 l 75 853 l 594 853 l 569 903 l 13 0 "},"Ż":{"ha":763,"x_min":13,"x_max":753,"o":"m 13 0 l 746 0 l 746 119 l 169 119 l 193 69 l 753 972 l 75 972 l 75 853 l 594 853 l 569 903 l 13 0 m 347 1099 l 481 1099 l 481 1224 l 347 1224 l 347 1099 "},"Ẓ":{"ha":763,"x_min":13,"x_max":753,"o":"m 13 0 l 746 0 l 746 119 l 169 119 l 193 69 l 753 972 l 75 972 l 75 853 l 594 853 l 569 903 l 13 0 "},"a":{"ha":667,"x_min":33,"x_max":656,"o":"m 243 -14 q 361 14 309 -14 q 451 86 413 42 q 483 32 465 54 q 533 -2 500 10 q 626 -14 566 -14 l 636 -14 l 656 86 l 643 86 q 591 102 607 86 q 570 149 574 117 q 565 229 565 181 l 565 368 q 541 563 565 491 q 464 664 517 634 q 325 694 411 694 q 197 675 258 694 q 94 624 135 655 l 113 522 q 210 572 167 560 q 292 583 253 583 q 402 553 364 583 q 440 426 440 524 q 332 418 388 426 q 222 395 275 411 q 127 351 169 378 q 59 282 84 324 q 33 183 33 241 q 59 82 33 126 q 133 12 85 38 q 243 -14 180 -14 m 267 86 q 191 111 220 86 q 161 190 161 135 q 190 273 161 241 q 280 321 218 305 q 440 340 341 337 l 440 178 q 364 111 410 136 q 267 86 317 86 "},"á":{"ha":667,"x_min":33,"x_max":656,"o":"m 243 -14 q 361 14 309 -14 q 451 86 413 42 q 483 32 465 54 q 533 -2 500 10 q 626 -14 566 -14 l 636 -14 l 656 86 l 643 86 q 591 102 607 86 q 570 149 574 117 q 565 229 565 181 l 565 368 q 541 563 565 491 q 464 664 517 634 q 325 694 411 694 q 197 675 258 694 q 94 624 135 655 l 113 522 q 210 572 167 560 q 292 583 253 583 q 402 553 364 583 q 440 426 440 524 q 332 418 388 426 q 222 395 275 411 q 127 351 169 378 q 59 282 84 324 q 33 183 33 241 q 59 82 33 126 q 133 12 85 38 q 243 -14 180 -14 m 267 86 q 191 111 220 86 q 161 190 161 135 q 190 273 161 241 q 280 321 218 305 q 440 340 341 337 l 440 178 q 364 111 410 136 q 267 86 317 86 m 196 800 l 456 901 l 456 1038 l 196 885 l 196 800 "},"ă":{"ha":667,"x_min":33,"x_max":656,"o":"m 243 -14 q 361 14 309 -14 q 451 86 413 42 q 483 32 465 54 q 533 -2 500 10 q 626 -14 566 -14 l 636 -14 l 656 86 l 643 86 q 591 102 607 86 q 570 149 574 117 q 565 229 565 181 l 565 368 q 541 563 565 491 q 464 664 517 634 q 325 694 411 694 q 197 675 258 694 q 94 624 135 655 l 113 522 q 210 572 167 560 q 292 583 253 583 q 402 553 364 583 q 440 426 440 524 q 332 418 388 426 q 222 395 275 411 q 127 351 169 378 q 59 282 84 324 q 33 183 33 241 q 59 82 33 126 q 133 12 85 38 q 243 -14 180 -14 m 267 86 q 191 111 220 86 q 161 190 161 135 q 190 273 161 241 q 280 321 218 305 q 440 340 341 337 l 440 178 q 364 111 410 136 q 267 86 317 86 m 325 800 q 439 825 394 800 q 506 890 484 850 q 528 976 528 931 l 417 976 q 390 913 417 934 q 325 892 363 892 q 260 913 288 892 q 233 976 233 934 l 122 976 q 144 890 122 931 q 211 825 166 850 q 325 800 256 800 "},"ắ":{"ha":667,"x_min":33,"x_max":656,"o":"m 243 -14 q 361 14 309 -14 q 451 86 413 42 q 483 32 465 54 q 533 -2 500 10 q 626 -14 566 -14 l 636 -14 l 656 86 l 643 86 q 591 102 607 86 q 570 149 574 117 q 565 229 565 181 l 565 368 q 541 563 565 491 q 464 664 517 634 q 325 694 411 694 q 197 675 258 694 q 94 624 135 655 l 113 522 q 210 572 167 560 q 292 583 253 583 q 402 553 364 583 q 440 426 440 524 q 332 418 388 426 q 222 395 275 411 q 127 351 169 378 q 59 282 84 324 q 33 183 33 241 q 59 82 33 126 q 133 12 85 38 q 243 -14 180 -14 m 267 86 q 191 111 220 86 q 161 190 161 135 q 190 273 161 241 q 280 321 218 305 q 440 340 341 337 l 440 178 q 364 111 410 136 q 267 86 317 86 m 325 769 q 439 793 394 769 q 506 855 484 817 q 528 936 528 893 l 417 936 q 390 876 417 896 q 325 856 363 856 q 260 876 288 856 q 233 936 233 896 l 122 936 q 144 855 122 893 q 211 793 166 817 q 325 769 256 769 m 196 997 l 456 1078 l 456 1210 l 196 1078 l 196 997 "},"ặ":{"ha":667,"x_min":33,"x_max":656,"o":"m 243 -14 q 361 14 309 -14 q 451 86 413 42 q 483 32 465 54 q 533 -2 500 10 q 626 -14 566 -14 l 636 -14 l 656 86 l 643 86 q 591 102 607 86 q 570 149 574 117 q 565 229 565 181 l 565 368 q 541 563 565 491 q 464 664 517 634 q 325 694 411 694 q 197 675 258 694 q 94 624 135 655 l 113 522 q 210 572 167 560 q 292 583 253 583 q 402 553 364 583 q 440 426 440 524 q 332 418 388 426 q 222 395 275 411 q 127 351 169 378 q 59 282 84 324 q 33 183 33 241 q 59 82 33 126 q 133 12 85 38 q 243 -14 180 -14 m 267 86 q 191 111 220 86 q 161 190 161 135 q 190 273 161 241 q 280 321 218 305 q 440 340 341 337 l 440 178 q 364 111 410 136 q 267 86 317 86 m 325 800 q 439 825 394 800 q 506 890 484 850 q 528 976 528 931 l 417 976 q 390 913 417 934 q 325 892 363 892 q 260 913 288 892 q 233 976 233 934 l 122 976 q 144 890 122 931 q 211 825 166 850 q 325 800 256 800 "},"ằ":{"ha":667,"x_min":33,"x_max":656,"o":"m 243 -14 q 361 14 309 -14 q 451 86 413 42 q 483 32 465 54 q 533 -2 500 10 q 626 -14 566 -14 l 636 -14 l 656 86 l 643 86 q 591 102 607 86 q 570 149 574 117 q 565 229 565 181 l 565 368 q 541 563 565 491 q 464 664 517 634 q 325 694 411 694 q 197 675 258 694 q 94 624 135 655 l 113 522 q 210 572 167 560 q 292 583 253 583 q 402 553 364 583 q 440 426 440 524 q 332 418 388 426 q 222 395 275 411 q 127 351 169 378 q 59 282 84 324 q 33 183 33 241 q 59 82 33 126 q 133 12 85 38 q 243 -14 180 -14 m 267 86 q 191 111 220 86 q 161 190 161 135 q 190 273 161 241 q 280 321 218 305 q 440 340 341 337 l 440 178 q 364 111 410 136 q 267 86 317 86 m 325 768 q 439 792 394 768 q 506 853 484 815 q 528 935 528 892 l 417 935 q 390 874 417 894 q 325 854 363 854 q 260 874 288 854 q 233 935 233 894 l 122 935 q 144 853 122 892 q 211 792 166 815 q 325 768 256 768 m 454 996 l 454 1076 l 194 1208 l 194 1076 l 454 996 "},"ẳ":{"ha":667,"x_min":33,"x_max":656,"o":"m 243 -14 q 361 14 309 -14 q 451 86 413 42 q 483 32 465 54 q 533 -2 500 10 q 626 -14 566 -14 l 636 -14 l 656 86 l 643 86 q 591 102 607 86 q 570 149 574 117 q 565 229 565 181 l 565 368 q 541 563 565 491 q 464 664 517 634 q 325 694 411 694 q 197 675 258 694 q 94 624 135 655 l 113 522 q 210 572 167 560 q 292 583 253 583 q 402 553 364 583 q 440 426 440 524 q 332 418 388 426 q 222 395 275 411 q 127 351 169 378 q 59 282 84 324 q 33 183 33 241 q 59 82 33 126 q 133 12 85 38 q 243 -14 180 -14 m 267 86 q 191 111 220 86 q 161 190 161 135 q 190 273 161 241 q 280 321 218 305 q 440 340 341 337 l 440 178 q 364 111 410 136 q 267 86 317 86 m 325 769 q 439 793 394 769 q 506 855 484 817 q 528 936 528 893 l 417 936 q 390 876 417 896 q 325 856 363 856 q 260 876 288 856 q 233 936 233 896 l 122 936 q 144 855 122 893 q 211 793 166 817 q 325 769 256 769 m 338 958 q 427 1001 399 972 q 454 1076 454 1031 q 414 1156 454 1128 q 317 1183 374 1183 q 257 1176 285 1183 q 206 1157 228 1169 l 229 1086 q 273 1105 251 1098 q 317 1113 295 1113 q 358 1102 343 1113 q 374 1068 374 1091 q 361 1035 374 1049 q 325 1014 349 1022 l 338 958 "},"ẵ":{"ha":667,"x_min":33,"x_max":656,"o":"m 243 -14 q 361 14 309 -14 q 451 86 413 42 q 483 32 465 54 q 533 -2 500 10 q 626 -14 566 -14 l 636 -14 l 656 86 l 643 86 q 591 102 607 86 q 570 149 574 117 q 565 229 565 181 l 565 368 q 541 563 565 491 q 464 664 517 634 q 325 694 411 694 q 197 675 258 694 q 94 624 135 655 l 113 522 q 210 572 167 560 q 292 583 253 583 q 402 553 364 583 q 440 426 440 524 q 332 418 388 426 q 222 395 275 411 q 127 351 169 378 q 59 282 84 324 q 33 183 33 241 q 59 82 33 126 q 133 12 85 38 q 243 -14 180 -14 m 267 86 q 191 111 220 86 q 161 190 161 135 q 190 273 161 241 q 280 321 218 305 q 440 340 341 337 l 440 178 q 364 111 410 136 q 267 86 317 86 m 325 769 q 439 793 394 769 q 506 855 484 817 q 528 936 528 893 l 417 936 q 390 876 417 896 q 325 856 363 856 q 260 876 288 856 q 233 936 233 896 l 122 936 q 144 855 122 893 q 211 793 166 817 q 325 769 256 769 m 440 1001 q 515 1037 488 1001 q 542 1140 542 1073 l 451 1140 q 404 1090 451 1090 q 345 1105 378 1090 q 277 1133 312 1119 q 210 1147 242 1147 q 135 1112 162 1147 q 108 1008 108 1076 l 199 1008 q 246 1058 199 1058 q 305 1044 272 1058 q 373 1016 338 1030 q 440 1001 408 1001 "},"â":{"ha":667,"x_min":33,"x_max":656,"o":"m 243 -14 q 361 14 309 -14 q 451 86 413 42 q 483 32 465 54 q 533 -2 500 10 q 626 -14 566 -14 l 636 -14 l 656 86 l 643 86 q 591 102 607 86 q 570 149 574 117 q 565 229 565 181 l 565 368 q 541 563 565 491 q 464 664 517 634 q 325 694 411 694 q 197 675 258 694 q 94 624 135 655 l 113 522 q 210 572 167 560 q 292 583 253 583 q 402 553 364 583 q 440 426 440 524 q 332 418 388 426 q 222 395 275 411 q 127 351 169 378 q 59 282 84 324 q 33 183 33 241 q 59 82 33 126 q 133 12 85 38 q 243 -14 180 -14 m 267 86 q 191 111 220 86 q 161 190 161 135 q 190 273 161 241 q 280 321 218 305 q 440 340 341 337 l 440 178 q 364 111 410 136 q 267 86 317 86 m 149 783 l 325 894 l 501 783 l 501 868 l 325 1021 l 149 868 l 149 783 "},"ấ":{"ha":667,"x_min":33,"x_max":657,"o":"m 243 -14 q 361 14 309 -14 q 451 86 413 42 q 483 32 465 54 q 533 -2 500 10 q 626 -14 566 -14 l 636 -14 l 656 86 l 643 86 q 591 102 607 86 q 570 149 574 117 q 565 229 565 181 l 565 368 q 541 563 565 491 q 464 664 517 634 q 325 694 411 694 q 197 675 258 694 q 94 624 135 655 l 113 522 q 210 572 167 560 q 292 583 253 583 q 402 553 364 583 q 440 426 440 524 q 332 418 388 426 q 222 395 275 411 q 127 351 169 378 q 59 282 84 324 q 33 183 33 241 q 59 82 33 126 q 133 12 85 38 q 243 -14 180 -14 m 267 86 q 191 111 220 86 q 161 190 161 135 q 190 273 161 241 q 280 321 218 305 q 440 340 341 337 l 440 178 q 364 111 410 136 q 267 86 317 86 m 149 754 l 325 846 l 501 754 l 501 839 l 325 964 l 149 839 l 149 754 m 429 957 l 521 957 l 657 1119 l 521 1119 l 429 957 "},"ậ":{"ha":667,"x_min":33,"x_max":656,"o":"m 243 -14 q 361 14 309 -14 q 451 86 413 42 q 483 32 465 54 q 533 -2 500 10 q 626 -14 566 -14 l 636 -14 l 656 86 l 643 86 q 591 102 607 86 q 570 149 574 117 q 565 229 565 181 l 565 368 q 541 563 565 491 q 464 664 517 634 q 325 694 411 694 q 197 675 258 694 q 94 624 135 655 l 113 522 q 210 572 167 560 q 292 583 253 583 q 402 553 364 583 q 440 426 440 524 q 332 418 388 426 q 222 395 275 411 q 127 351 169 378 q 59 282 84 324 q 33 183 33 241 q 59 82 33 126 q 133 12 85 38 q 243 -14 180 -14 m 267 86 q 191 111 220 86 q 161 190 161 135 q 190 273 161 241 q 280 321 218 305 q 440 340 341 337 l 440 178 q 364 111 410 136 q 267 86 317 86 m 149 783 l 325 894 l 501 783 l 501 868 l 325 1021 l 149 868 l 149 783 "},"ầ":{"ha":667,"x_min":33,"x_max":656,"o":"m 243 -14 q 361 14 309 -14 q 451 86 413 42 q 483 32 465 54 q 533 -2 500 10 q 626 -14 566 -14 l 636 -14 l 656 86 l 643 86 q 591 102 607 86 q 570 149 574 117 q 565 229 565 181 l 565 368 q 541 563 565 491 q 464 664 517 634 q 325 694 411 694 q 197 675 258 694 q 94 624 135 655 l 113 522 q 210 572 167 560 q 292 583 253 583 q 402 553 364 583 q 440 426 440 524 q 332 418 388 426 q 222 395 275 411 q 127 351 169 378 q 59 282 84 324 q 33 183 33 241 q 59 82 33 126 q 133 12 85 38 q 243 -14 180 -14 m 267 86 q 191 111 220 86 q 161 190 161 135 q 190 273 161 241 q 280 321 218 305 q 440 340 341 337 l 440 178 q 364 111 410 136 q 267 86 317 86 m 149 754 l 325 846 l 501 754 l 501 839 l 325 964 l 149 839 l 149 754 m 449 957 l 538 957 l 460 1119 l 328 1119 l 449 957 "},"ẩ":{"ha":667,"x_min":33,"x_max":656,"o":"m 243 -14 q 361 14 309 -14 q 451 86 413 42 q 483 32 465 54 q 533 -2 500 10 q 626 -14 566 -14 l 636 -14 l 656 86 l 643 86 q 591 102 607 86 q 570 149 574 117 q 565 229 565 181 l 565 368 q 541 563 565 491 q 464 664 517 634 q 325 694 411 694 q 197 675 258 694 q 94 624 135 655 l 113 522 q 210 572 167 560 q 292 583 253 583 q 402 553 364 583 q 440 426 440 524 q 332 418 388 426 q 222 395 275 411 q 127 351 169 378 q 59 282 84 324 q 33 183 33 241 q 59 82 33 126 q 133 12 85 38 q 243 -14 180 -14 m 267 86 q 191 111 220 86 q 161 190 161 135 q 190 273 161 241 q 280 321 218 305 q 440 340 341 337 l 440 178 q 364 111 410 136 q 267 86 317 86 m 149 754 l 325 846 l 501 754 l 501 839 l 325 964 l 149 839 l 149 754 m 458 919 q 548 963 520 933 q 575 1038 575 992 q 535 1117 575 1089 q 438 1144 495 1144 q 377 1138 406 1144 q 326 1118 349 1131 l 350 1047 q 394 1066 372 1059 q 438 1074 416 1074 q 479 1063 464 1074 q 494 1029 494 1052 q 482 997 494 1010 q 446 975 470 983 l 458 919 "},"ẫ":{"ha":667,"x_min":33,"x_max":656,"o":"m 243 -14 q 361 14 309 -14 q 451 86 413 42 q 483 32 465 54 q 533 -2 500 10 q 626 -14 566 -14 l 636 -14 l 656 86 l 643 86 q 591 102 607 86 q 570 149 574 117 q 565 229 565 181 l 565 368 q 541 563 565 491 q 464 664 517 634 q 325 694 411 694 q 197 675 258 694 q 94 624 135 655 l 113 522 q 210 572 167 560 q 292 583 253 583 q 402 553 364 583 q 440 426 440 524 q 332 418 388 426 q 222 395 275 411 q 127 351 169 378 q 59 282 84 324 q 33 183 33 241 q 59 82 33 126 q 133 12 85 38 q 243 -14 180 -14 m 267 86 q 191 111 220 86 q 161 190 161 135 q 190 273 161 241 q 280 321 218 305 q 440 340 341 337 l 440 178 q 364 111 410 136 q 267 86 317 86 m 149 754 l 325 846 l 501 754 l 501 839 l 325 964 l 149 839 l 149 754 m 440 1021 q 515 1057 488 1021 q 542 1160 542 1092 l 451 1160 q 404 1110 451 1110 q 345 1124 378 1110 q 277 1152 312 1138 q 210 1167 242 1167 q 135 1131 162 1167 q 108 1028 108 1096 l 199 1028 q 246 1078 199 1078 q 305 1064 272 1078 q 373 1035 338 1049 q 440 1021 408 1021 "},"ȁ":{"ha":667,"x_min":33,"x_max":656,"o":"m 243 -14 q 361 14 309 -14 q 451 86 413 42 q 483 32 465 54 q 533 -2 500 10 q 626 -14 566 -14 l 636 -14 l 656 86 l 643 86 q 591 102 607 86 q 570 149 574 117 q 565 229 565 181 l 565 368 q 541 563 565 491 q 464 664 517 634 q 325 694 411 694 q 197 675 258 694 q 94 624 135 655 l 113 522 q 210 572 167 560 q 292 583 253 583 q 402 553 364 583 q 440 426 440 524 q 332 418 388 426 q 222 395 275 411 q 127 351 169 378 q 59 282 84 324 q 33 183 33 241 q 59 82 33 126 q 133 12 85 38 q 243 -14 180 -14 m 267 86 q 191 111 220 86 q 161 190 161 135 q 190 273 161 241 q 280 321 218 305 q 440 340 341 337 l 440 178 q 364 111 410 136 q 267 86 317 86 m 469 803 l 378 1035 l 242 1035 l 378 803 l 469 803 m 275 803 l 176 1035 l 40 1035 l 183 803 l 275 803 "},"ä":{"ha":667,"x_min":33,"x_max":656,"o":"m 243 -14 q 361 14 309 -14 q 451 86 413 42 q 483 32 465 54 q 533 -2 500 10 q 626 -14 566 -14 l 636 -14 l 656 86 l 643 86 q 591 102 607 86 q 570 149 574 117 q 565 229 565 181 l 565 368 q 541 563 565 491 q 464 664 517 634 q 325 694 411 694 q 197 675 258 694 q 94 624 135 655 l 113 522 q 210 572 167 560 q 292 583 253 583 q 402 553 364 583 q 440 426 440 524 q 332 418 388 426 q 222 395 275 411 q 127 351 169 378 q 59 282 84 324 q 33 183 33 241 q 59 82 33 126 q 133 12 85 38 q 243 -14 180 -14 m 267 86 q 191 111 220 86 q 161 190 161 135 q 190 273 161 241 q 280 321 218 305 q 440 340 341 337 l 440 178 q 364 111 410 136 q 267 86 317 86 m 399 821 l 518 821 l 518 932 l 399 932 l 399 821 m 132 821 l 251 821 l 251 932 l 132 932 l 132 821 "},"ạ":{"ha":667,"x_min":33,"x_max":656,"o":"m 243 -14 q 361 14 309 -14 q 451 86 413 42 q 483 32 465 54 q 533 -2 500 10 q 626 -14 566 -14 l 636 -14 l 656 86 l 643 86 q 591 102 607 86 q 570 149 574 117 q 565 229 565 181 l 565 368 q 541 563 565 491 q 464 664 517 634 q 325 694 411 694 q 197 675 258 694 q 94 624 135 655 l 113 522 q 210 572 167 560 q 292 583 253 583 q 402 553 364 583 q 440 426 440 524 q 332 418 388 426 q 222 395 275 411 q 127 351 169 378 q 59 282 84 324 q 33 183 33 241 q 59 82 33 126 q 133 12 85 38 q 243 -14 180 -14 m 267 86 q 191 111 220 86 q 161 190 161 135 q 190 273 161 241 q 280 321 218 305 q 440 340 341 337 l 440 178 q 364 111 410 136 q 267 86 317 86 "},"à":{"ha":667,"x_min":33,"x_max":656,"o":"m 243 -14 q 361 14 309 -14 q 451 86 413 42 q 483 32 465 54 q 533 -2 500 10 q 626 -14 566 -14 l 636 -14 l 656 86 l 643 86 q 591 102 607 86 q 570 149 574 117 q 565 229 565 181 l 565 368 q 541 563 565 491 q 464 664 517 634 q 325 694 411 694 q 197 675 258 694 q 94 624 135 655 l 113 522 q 210 572 167 560 q 292 583 253 583 q 402 553 364 583 q 440 426 440 524 q 332 418 388 426 q 222 395 275 411 q 127 351 169 378 q 59 282 84 324 q 33 183 33 241 q 59 82 33 126 q 133 12 85 38 q 243 -14 180 -14 m 267 86 q 191 111 220 86 q 161 190 161 135 q 190 273 161 241 q 280 321 218 305 q 440 340 341 337 l 440 178 q 364 111 410 136 q 267 86 317 86 m 454 800 l 454 885 l 194 1038 l 194 901 l 454 800 "},"ả":{"ha":667,"x_min":33,"x_max":656,"o":"m 243 -14 q 361 14 309 -14 q 451 86 413 42 q 483 32 465 54 q 533 -2 500 10 q 626 -14 566 -14 l 636 -14 l 656 86 l 643 86 q 591 102 607 86 q 570 149 574 117 q 565 229 565 181 l 565 368 q 541 563 565 491 q 464 664 517 634 q 325 694 411 694 q 197 675 258 694 q 94 624 135 655 l 113 522 q 210 572 167 560 q 292 583 253 583 q 402 553 364 583 q 440 426 440 524 q 332 418 388 426 q 222 395 275 411 q 127 351 169 378 q 59 282 84 324 q 33 183 33 241 q 59 82 33 126 q 133 12 85 38 q 243 -14 180 -14 m 267 86 q 191 111 220 86 q 161 190 161 135 q 190 273 161 241 q 280 321 218 305 q 440 340 341 337 l 440 178 q 364 111 410 136 q 267 86 317 86 m 346 729 q 417 797 394 766 q 440 872 440 828 q 400 959 440 928 q 303 989 360 989 q 243 982 271 989 q 192 963 215 975 l 215 892 q 259 911 238 903 q 303 918 281 918 q 344 906 329 918 q 360 868 360 893 q 345 825 360 843 q 299 775 331 808 l 346 729 "},"ȃ":{"ha":667,"x_min":33,"x_max":656,"o":"m 243 -14 q 361 14 309 -14 q 451 86 413 42 q 483 32 465 54 q 533 -2 500 10 q 626 -14 566 -14 l 636 -14 l 656 86 l 643 86 q 591 102 607 86 q 570 149 574 117 q 565 229 565 181 l 565 368 q 541 563 565 491 q 464 664 517 634 q 325 694 411 694 q 197 675 258 694 q 94 624 135 655 l 113 522 q 210 572 167 560 q 292 583 253 583 q 402 553 364 583 q 440 426 440 524 q 332 418 388 426 q 222 395 275 411 q 127 351 169 378 q 59 282 84 324 q 33 183 33 241 q 59 82 33 126 q 133 12 85 38 q 243 -14 180 -14 m 267 86 q 191 111 220 86 q 161 190 161 135 q 190 273 161 241 q 280 321 218 305 q 440 340 341 337 l 440 178 q 364 111 410 136 q 267 86 317 86 m 325 976 q 211 951 256 976 q 144 886 166 926 q 122 800 122 846 l 233 800 q 260 864 233 843 q 325 885 288 885 q 390 864 363 885 q 417 800 417 843 l 528 800 q 506 886 528 846 q 439 951 484 926 q 325 976 394 976 "},"ā":{"ha":667,"x_min":33,"x_max":656,"o":"m 243 -14 q 361 14 309 -14 q 451 86 413 42 q 483 32 465 54 q 533 -2 500 10 q 626 -14 566 -14 l 636 -14 l 656 86 l 643 86 q 591 102 607 86 q 570 149 574 117 q 565 229 565 181 l 565 368 q 541 563 565 491 q 464 664 517 634 q 325 694 411 694 q 197 675 258 694 q 94 624 135 655 l 113 522 q 210 572 167 560 q 292 583 253 583 q 402 553 364 583 q 440 426 440 524 q 332 418 388 426 q 222 395 275 411 q 127 351 169 378 q 59 282 84 324 q 33 183 33 241 q 59 82 33 126 q 133 12 85 38 q 243 -14 180 -14 m 267 86 q 191 111 220 86 q 161 190 161 135 q 190 273 161 241 q 280 321 218 305 q 440 340 341 337 l 440 178 q 364 111 410 136 q 267 86 317 86 m 103 821 l 547 821 l 547 919 l 103 919 l 103 821 "},"ą":{"ha":667,"x_min":33,"x_max":690,"o":"m 243 -14 q 361 14 309 -14 q 451 86 413 42 q 483 32 465 54 q 533 -2 500 10 q 626 -14 566 -14 l 636 -14 l 656 86 l 643 86 q 591 102 607 86 q 570 149 574 117 q 565 229 565 181 l 565 368 q 541 563 565 491 q 464 664 517 634 q 325 694 411 694 q 197 675 258 694 q 94 624 135 655 l 113 522 q 210 572 167 560 q 292 583 253 583 q 402 553 364 583 q 440 426 440 524 q 332 418 388 426 q 222 395 275 411 q 127 351 169 378 q 59 282 84 324 q 33 183 33 241 q 59 82 33 126 q 133 12 85 38 q 243 -14 180 -14 m 267 86 q 191 111 220 86 q 161 190 161 135 q 190 273 161 241 q 280 321 218 305 q 440 340 341 337 l 440 178 q 364 111 410 136 q 267 86 317 86 m 550 0 q 472 -69 508 -24 q 435 -169 435 -114 q 476 -258 435 -228 q 575 -289 517 -289 q 642 -281 613 -289 q 690 -262 671 -273 l 669 -194 q 627 -212 649 -206 q 582 -218 606 -218 q 534 -200 552 -218 q 515 -147 515 -183 q 545 -73 515 -108 q 624 0 575 -37 l 550 0 "},"å":{"ha":667,"x_min":33,"x_max":656,"o":"m 243 -14 q 361 14 309 -14 q 451 86 413 42 q 483 32 465 54 q 533 -2 500 10 q 626 -14 566 -14 l 636 -14 l 656 86 l 643 86 q 591 102 607 86 q 570 149 574 117 q 565 229 565 181 l 565 368 q 541 563 565 491 q 464 664 517 634 q 325 694 411 694 q 197 675 258 694 q 94 624 135 655 l 113 522 q 210 572 167 560 q 292 583 253 583 q 402 553 364 583 q 440 426 440 524 q 332 418 388 426 q 222 395 275 411 q 127 351 169 378 q 59 282 84 324 q 33 183 33 241 q 59 82 33 126 q 133 12 85 38 q 243 -14 180 -14 m 267 86 q 191 111 220 86 q 161 190 161 135 q 190 273 161 241 q 280 321 218 305 q 440 340 341 337 l 440 178 q 364 111 410 136 q 267 86 317 86 m 325 789 q 434 831 398 789 q 469 928 469 874 q 433 1024 469 981 q 325 1067 397 1067 q 217 1024 254 1067 q 181 928 181 981 q 217 831 181 874 q 325 789 253 789 m 325 850 q 271 871 295 850 q 247 928 247 892 q 270 984 247 963 q 325 1006 294 1006 q 380 984 356 1006 q 403 928 403 963 q 379 871 403 892 q 325 850 356 850 "},"ǻ":{"ha":667,"x_min":33,"x_max":656,"o":"m 243 -14 q 361 14 309 -14 q 451 86 413 42 q 483 32 465 54 q 533 -2 500 10 q 626 -14 566 -14 l 636 -14 l 656 86 l 643 86 q 591 102 607 86 q 570 149 574 117 q 565 229 565 181 l 565 368 q 541 563 565 491 q 464 664 517 634 q 325 694 411 694 q 197 675 258 694 q 94 624 135 655 l 113 522 q 210 572 167 560 q 292 583 253 583 q 402 553 364 583 q 440 426 440 524 q 332 418 388 426 q 222 395 275 411 q 127 351 169 378 q 59 282 84 324 q 33 183 33 241 q 59 82 33 126 q 133 12 85 38 q 243 -14 180 -14 m 267 86 q 191 111 220 86 q 161 190 161 135 q 190 273 161 241 q 280 321 218 305 q 440 340 341 337 l 440 178 q 364 111 410 136 q 267 86 317 86 m 325 789 q 434 831 398 789 q 469 928 469 874 q 433 1024 469 981 q 325 1067 397 1067 q 217 1024 254 1067 q 181 928 181 981 q 217 831 181 874 q 325 789 253 789 m 325 850 q 271 871 295 850 q 247 928 247 892 q 270 984 247 963 q 325 1006 294 1006 q 380 984 356 1006 q 403 928 403 963 q 379 871 403 892 q 325 850 356 850 m 196 1121 l 456 1201 l 456 1333 l 196 1201 l 196 1121 "},"ã":{"ha":667,"x_min":33,"x_max":656,"o":"m 243 -14 q 361 14 309 -14 q 451 86 413 42 q 483 32 465 54 q 533 -2 500 10 q 626 -14 566 -14 l 636 -14 l 656 86 l 643 86 q 591 102 607 86 q 570 149 574 117 q 565 229 565 181 l 565 368 q 541 563 565 491 q 464 664 517 634 q 325 694 411 694 q 197 675 258 694 q 94 624 135 655 l 113 522 q 210 572 167 560 q 292 583 253 583 q 402 553 364 583 q 440 426 440 524 q 332 418 388 426 q 222 395 275 411 q 127 351 169 378 q 59 282 84 324 q 33 183 33 241 q 59 82 33 126 q 133 12 85 38 q 243 -14 180 -14 m 267 86 q 191 111 220 86 q 161 190 161 135 q 190 273 161 241 q 280 321 218 305 q 440 340 341 337 l 440 178 q 364 111 410 136 q 267 86 317 86 m 436 806 q 523 845 492 806 q 556 960 553 885 l 451 960 q 404 906 451 906 q 344 922 375 906 q 281 955 314 938 q 214 971 249 971 q 128 931 158 971 q 94 817 98 892 l 199 817 q 246 871 199 871 q 306 855 275 871 q 369 822 336 838 q 436 806 401 806 "},"æ":{"ha":1083,"x_min":33,"x_max":1042,"o":"m 257 -14 q 418 34 344 -14 q 531 154 492 83 l 489 213 q 399 119 453 152 q 281 86 345 86 q 194 111 228 86 q 161 190 161 135 q 229 303 161 267 q 456 340 297 340 l 1036 340 q 1041 375 1040 358 q 1042 407 1042 392 q 1010 555 1042 490 q 918 657 978 619 q 772 694 858 694 q 597 642 672 694 q 488 506 523 589 l 554 514 q 480 654 535 614 q 325 694 424 694 q 197 675 258 694 q 94 624 135 655 l 113 522 q 210 572 167 560 q 292 583 253 583 q 411 539 379 583 q 443 407 443 494 l 443 346 q 484 166 443 248 q 603 35 524 85 q 797 -14 682 -14 q 919 2 867 -14 q 1011 39 972 17 l 994 138 q 901 108 946 118 q 813 97 856 97 q 696 122 750 97 q 608 203 642 146 q 575 358 575 260 q 626 526 575 469 q 761 583 678 583 q 875 538 838 583 q 913 426 913 493 l 479 426 q 332 417 410 426 q 186 382 254 408 q 76 308 119 356 q 33 183 33 260 q 61 82 33 126 q 139 12 89 38 q 257 -14 190 -14 "},"ǽ":{"ha":1083,"x_min":33,"x_max":1042,"o":"m 257 -14 q 418 34 344 -14 q 531 154 492 83 l 489 213 q 399 119 453 152 q 281 86 345 86 q 194 111 228 86 q 161 190 161 135 q 229 303 161 267 q 456 340 297 340 l 1036 340 q 1041 375 1040 358 q 1042 407 1042 392 q 1010 555 1042 490 q 918 657 978 619 q 772 694 858 694 q 597 642 672 694 q 488 506 523 589 l 554 514 q 480 654 535 614 q 325 694 424 694 q 197 675 258 694 q 94 624 135 655 l 113 522 q 210 572 167 560 q 292 583 253 583 q 411 539 379 583 q 443 407 443 494 l 443 346 q 484 166 443 248 q 603 35 524 85 q 797 -14 682 -14 q 919 2 867 -14 q 1011 39 972 17 l 994 138 q 901 108 946 118 q 813 97 856 97 q 696 122 750 97 q 608 203 642 146 q 575 358 575 260 q 626 526 575 469 q 761 583 678 583 q 875 538 838 583 q 913 426 913 493 l 479 426 q 332 417 410 426 q 186 382 254 408 q 76 308 119 356 q 33 183 33 260 q 61 82 33 126 q 139 12 89 38 q 257 -14 190 -14 m 433 800 l 693 901 l 693 1038 l 433 885 l 433 800 "},"b":{"ha":771,"x_min":83,"x_max":726,"o":"m 419 -14 q 575 33 506 -14 q 685 161 644 81 q 726 340 726 241 q 689 514 726 433 q 583 645 652 595 q 419 694 515 694 q 281 659 346 694 q 182 567 217 623 l 208 547 l 208 1042 l 83 1042 l 83 0 l 194 0 l 218 144 l 188 122 q 281 20 214 55 q 419 -14 348 -14 m 404 97 q 305 123 351 97 q 230 201 258 148 q 201 340 201 255 q 230 476 201 422 q 305 557 258 530 q 404 583 351 583 q 508 551 464 583 q 575 465 551 519 q 599 340 599 410 q 575 218 599 274 q 508 130 551 163 q 404 97 464 97 "},"c":{"ha":631,"x_min":46,"x_max":593,"o":"m 397 -14 q 510 2 457 -14 q 592 38 564 18 l 575 138 q 492 107 535 118 q 401 96 449 96 q 230 163 286 96 q 174 342 174 231 q 233 519 174 456 q 404 583 292 583 q 493 573 450 583 q 574 544 535 563 l 593 654 q 508 684 556 673 q 407 694 460 694 q 203 647 283 694 q 84 519 123 600 q 46 336 46 438 q 86 159 46 239 q 204 33 126 80 q 397 -14 282 -14 "},"ć":{"ha":631,"x_min":46,"x_max":593,"o":"m 397 -14 q 510 2 457 -14 q 592 38 564 18 l 575 138 q 492 107 535 118 q 401 96 449 96 q 230 163 286 96 q 174 342 174 231 q 233 519 174 456 q 404 583 292 583 q 493 573 450 583 q 574 544 535 563 l 593 654 q 508 684 556 673 q 407 694 460 694 q 203 647 283 694 q 84 519 123 600 q 46 336 46 438 q 86 159 46 239 q 204 33 126 80 q 397 -14 282 -14 m 249 800 l 508 901 l 508 1038 l 249 885 l 249 800 "},"č":{"ha":631,"x_min":46,"x_max":593,"o":"m 397 -14 q 510 2 457 -14 q 592 38 564 18 l 575 138 q 492 107 535 118 q 401 96 449 96 q 230 163 286 96 q 174 342 174 231 q 233 519 174 456 q 404 583 292 583 q 493 573 450 583 q 574 544 535 563 l 593 654 q 508 684 556 673 q 407 694 460 694 q 203 647 283 694 q 84 519 123 600 q 46 336 46 438 q 86 159 46 239 q 204 33 126 80 q 397 -14 282 -14 m 378 775 l 554 928 l 554 1013 l 378 901 l 201 1013 l 201 928 l 378 775 "},"ç":{"ha":631,"x_min":46,"x_max":593,"o":"m 397 -14 q 510 2 457 -14 q 592 38 564 18 l 575 138 q 492 107 535 118 q 401 96 449 96 q 230 163 286 96 q 174 342 174 231 q 233 519 174 456 q 404 583 292 583 q 493 573 450 583 q 574 544 535 563 l 593 654 q 508 684 556 673 q 407 694 460 694 q 203 647 283 694 q 84 519 123 600 q 46 336 46 438 q 86 159 46 239 q 204 33 126 80 q 397 -14 282 -14 m 372 -110 l 407 0 l 338 0 l 301 -146 q 335 -137 319 -140 q 365 -135 350 -135 q 418 -150 401 -135 q 435 -190 435 -165 q 417 -230 435 -216 q 368 -243 399 -243 q 323 -237 344 -243 q 281 -219 301 -231 l 260 -287 q 306 -306 278 -298 q 368 -314 333 -314 q 473 -281 430 -314 q 515 -187 515 -249 q 483 -105 515 -135 q 394 -75 451 -75 q 359 -79 376 -75 q 326 -89 343 -83 l 372 -110 "},"ḉ":{"ha":631,"x_min":46,"x_max":593,"o":"m 397 -14 q 510 2 457 -14 q 592 38 564 18 l 575 138 q 492 107 535 118 q 401 96 449 96 q 230 163 286 96 q 174 342 174 231 q 233 519 174 456 q 404 583 292 583 q 493 573 450 583 q 574 544 535 563 l 593 654 q 508 684 556 673 q 407 694 460 694 q 203 647 283 694 q 84 519 123 600 q 46 336 46 438 q 86 159 46 239 q 204 33 126 80 q 397 -14 282 -14 m 372 -110 l 407 0 l 338 0 l 301 -146 q 335 -137 319 -140 q 365 -135 350 -135 q 418 -150 401 -135 q 435 -190 435 -165 q 417 -230 435 -216 q 368 -243 399 -243 q 323 -237 344 -243 q 281 -219 301 -231 l 260 -287 q 306 -306 278 -298 q 368 -314 333 -314 q 473 -281 430 -314 q 515 -187 515 -249 q 483 -105 515 -135 q 394 -75 451 -75 q 359 -79 376 -75 q 326 -89 343 -83 l 372 -110 m 249 800 l 508 901 l 508 1038 l 249 885 l 249 800 "},"ĉ":{"ha":631,"x_min":46,"x_max":593,"o":"m 397 -14 q 510 2 457 -14 q 592 38 564 18 l 575 138 q 492 107 535 118 q 401 96 449 96 q 230 163 286 96 q 174 342 174 231 q 233 519 174 456 q 404 583 292 583 q 493 573 450 583 q 574 544 535 563 l 593 654 q 508 684 556 673 q 407 694 460 694 q 203 647 283 694 q 84 519 123 600 q 46 336 46 438 q 86 159 46 239 q 204 33 126 80 q 397 -14 282 -14 m 201 783 l 378 894 l 554 783 l 554 868 l 378 1021 l 201 868 l 201 783 "},"ċ":{"ha":631,"x_min":46,"x_max":593,"o":"m 397 -14 q 510 2 457 -14 q 592 38 564 18 l 575 138 q 492 107 535 118 q 401 96 449 96 q 230 163 286 96 q 174 342 174 231 q 233 519 174 456 q 404 583 292 583 q 493 573 450 583 q 574 544 535 563 l 593 654 q 508 684 556 673 q 407 694 460 694 q 203 647 283 694 q 84 519 123 600 q 46 336 46 438 q 86 159 46 239 q 204 33 126 80 q 397 -14 282 -14 m 311 821 l 444 821 l 444 946 l 311 946 l 311 821 "},"d":{"ha":771,"x_min":44,"x_max":688,"o":"m 354 -14 q 491 20 427 -14 q 585 122 555 55 l 553 144 l 576 0 l 688 0 l 688 1042 l 563 1042 l 563 549 l 589 567 q 486 665 549 635 q 354 694 422 694 q 190 645 259 694 q 82 514 120 595 q 44 339 44 433 q 86 160 44 240 q 197 33 127 81 q 354 -14 267 -14 m 376 97 q 267 130 313 97 q 197 218 221 163 q 172 339 172 273 q 197 464 172 409 q 267 551 221 519 q 376 583 313 583 q 470 556 424 583 q 546 474 516 528 q 576 339 576 419 q 546 199 576 252 q 470 122 516 146 q 376 97 424 97 "},"ð":{"ha":718,"x_min":39,"x_max":672,"o":"m 346 -17 q 475 9 416 -17 q 579 83 535 35 q 648 201 623 132 q 672 357 672 270 q 640 570 672 465 q 547 763 607 675 q 402 907 486 851 q 217 974 319 964 l 196 908 q 368 819 298 885 q 478 663 439 753 q 524 475 517 573 l 536 488 q 464 561 515 531 q 338 592 413 592 q 183 549 250 592 q 77 437 115 507 q 39 285 39 367 q 75 136 39 205 q 181 25 112 67 q 346 -17 249 -17 m 351 99 q 216 156 266 99 q 167 292 167 213 q 189 382 167 340 q 253 450 211 424 q 353 476 294 476 q 484 424 435 476 q 532 289 532 372 q 482 153 532 207 q 351 99 433 99 m 242 693 l 593 897 l 549 972 l 196 768 l 242 693 "},"ď":{"ha":863,"x_min":44,"x_max":888,"o":"m 354 -14 q 491 20 427 -14 q 585 122 555 55 l 553 144 l 576 0 l 688 0 l 688 1042 l 563 1042 l 563 549 l 589 567 q 486 665 549 635 q 354 694 422 694 q 190 645 259 694 q 82 514 120 595 q 44 339 44 433 q 86 160 44 240 q 197 33 127 81 q 354 -14 267 -14 m 376 97 q 267 130 313 97 q 197 218 221 163 q 172 339 172 273 q 197 464 172 409 q 267 551 221 519 q 376 583 313 583 q 470 556 424 583 q 546 474 516 528 q 576 339 576 419 q 546 199 576 252 q 470 122 516 146 q 376 97 424 97 m 757 810 l 849 810 l 888 1042 l 757 1042 l 757 810 "},"đ":{"ha":771,"x_min":44,"x_max":793,"o":"m 354 815 l 793 815 l 793 913 l 354 913 l 354 815 m 354 -14 q 491 20 427 -14 q 585 122 555 55 l 553 144 l 576 0 l 688 0 l 688 1042 l 563 1042 l 563 549 l 589 567 q 486 665 549 635 q 354 694 422 694 q 190 645 259 694 q 82 514 120 595 q 44 339 44 433 q 86 160 44 240 q 197 33 127 81 q 354 -14 267 -14 m 376 97 q 267 130 313 97 q 197 218 221 163 q 172 339 172 273 q 197 464 172 409 q 267 551 221 519 q 376 583 313 583 q 470 556 424 583 q 546 474 516 528 q 576 339 576 419 q 546 199 576 252 q 470 122 516 146 q 376 97 424 97 "},"ḍ":{"ha":771,"x_min":44,"x_max":688,"o":"m 354 -14 q 491 20 427 -14 q 585 122 555 55 l 553 144 l 576 0 l 688 0 l 688 1042 l 563 1042 l 563 549 l 589 567 q 486 665 549 635 q 354 694 422 694 q 190 645 259 694 q 82 514 120 595 q 44 339 44 433 q 86 160 44 240 q 197 33 127 81 q 354 -14 267 -14 m 376 97 q 267 130 313 97 q 197 218 221 163 q 172 339 172 273 q 197 464 172 409 q 267 551 221 519 q 376 583 313 583 q 470 556 424 583 q 546 474 516 528 q 576 339 576 419 q 546 199 576 252 q 470 122 516 146 q 376 97 424 97 "},"ḏ":{"ha":771,"x_min":44,"x_max":688,"o":"m 354 -14 q 491 20 427 -14 q 585 122 555 55 l 553 144 l 576 0 l 688 0 l 688 1042 l 563 1042 l 563 549 l 589 567 q 486 665 549 635 q 354 694 422 694 q 190 645 259 694 q 82 514 120 595 q 44 339 44 433 q 86 160 44 240 q 197 33 127 81 q 354 -14 267 -14 m 376 97 q 267 130 313 97 q 197 218 221 163 q 172 339 172 273 q 197 464 172 409 q 267 551 221 519 q 376 583 313 583 q 470 556 424 583 q 546 474 516 528 q 576 339 576 419 q 546 199 576 252 q 470 122 516 146 q 376 97 424 97 "},"ǆ":{"ha":1425,"x_min":44,"x_max":1390,"o":"m 354 -14 q 491 20 427 -14 q 585 122 555 55 l 553 144 l 576 0 l 688 0 l 688 1042 l 563 1042 l 563 549 l 589 567 q 486 665 549 635 q 354 694 422 694 q 190 645 259 694 q 82 514 120 595 q 44 339 44 433 q 86 160 44 240 q 197 33 127 81 q 354 -14 267 -14 m 376 97 q 267 130 313 97 q 197 218 221 163 q 172 339 172 273 q 197 464 172 409 q 267 551 221 519 q 376 583 313 583 q 470 556 424 583 q 546 474 516 528 q 576 339 576 419 q 546 199 576 252 q 470 122 516 146 q 376 97 424 97 "},"e":{"ha":711,"x_min":43,"x_max":669,"o":"m 411 -14 q 542 4 485 -14 q 639 39 599 22 l 622 138 q 525 107 576 117 q 426 97 474 97 q 307 119 362 97 q 216 193 252 140 q 171 340 180 246 l 664 340 q 668 375 667 358 q 669 407 669 392 q 632 563 669 499 q 527 661 594 627 q 376 694 461 694 q 196 647 271 694 q 82 520 122 599 q 43 346 43 441 q 85 166 43 248 q 209 35 127 85 q 411 -14 291 -14 m 182 426 q 245 542 201 501 q 374 583 290 583 q 467 564 431 583 q 522 510 504 545 q 540 426 540 474 l 182 426 "},"é":{"ha":711,"x_min":43,"x_max":669,"o":"m 411 -14 q 542 4 485 -14 q 639 39 599 22 l 622 138 q 525 107 576 117 q 426 97 474 97 q 307 119 362 97 q 216 193 252 140 q 171 340 180 246 l 664 340 q 668 375 667 358 q 669 407 669 392 q 632 563 669 499 q 527 661 594 627 q 376 694 461 694 q 196 647 271 694 q 82 520 122 599 q 43 346 43 441 q 85 166 43 248 q 209 35 127 85 q 411 -14 291 -14 m 182 426 q 245 542 201 501 q 374 583 290 583 q 467 564 431 583 q 522 510 504 545 q 540 426 540 474 l 182 426 m 257 800 l 517 901 l 517 1038 l 257 885 l 257 800 "},"ĕ":{"ha":711,"x_min":43,"x_max":669,"o":"m 411 -14 q 542 4 485 -14 q 639 39 599 22 l 622 138 q 525 107 576 117 q 426 97 474 97 q 307 119 362 97 q 216 193 252 140 q 171 340 180 246 l 664 340 q 668 375 667 358 q 669 407 669 392 q 632 563 669 499 q 527 661 594 627 q 376 694 461 694 q 196 647 271 694 q 82 520 122 599 q 43 346 43 441 q 85 166 43 248 q 209 35 127 85 q 411 -14 291 -14 m 182 426 q 245 542 201 501 q 374 583 290 583 q 467 564 431 583 q 522 510 504 545 q 540 426 540 474 l 182 426 m 386 800 q 500 825 456 800 q 567 890 545 850 q 589 976 589 931 l 478 976 q 451 913 478 934 q 386 892 424 892 q 322 913 349 892 q 294 976 294 934 l 183 976 q 205 890 183 931 q 272 825 227 850 q 386 800 317 800 "},"ě":{"ha":711,"x_min":43,"x_max":669,"o":"m 411 -14 q 542 4 485 -14 q 639 39 599 22 l 622 138 q 525 107 576 117 q 426 97 474 97 q 307 119 362 97 q 216 193 252 140 q 171 340 180 246 l 664 340 q 668 375 667 358 q 669 407 669 392 q 632 563 669 499 q 527 661 594 627 q 376 694 461 694 q 196 647 271 694 q 82 520 122 599 q 43 346 43 441 q 85 166 43 248 q 209 35 127 85 q 411 -14 291 -14 m 182 426 q 245 542 201 501 q 374 583 290 583 q 467 564 431 583 q 522 510 504 545 q 540 426 540 474 l 182 426 "},"ḝ":{"ha":711,"x_min":43,"x_max":669,"o":"m 411 -14 q 542 4 485 -14 q 639 39 599 22 l 622 138 q 525 107 576 117 q 426 97 474 97 q 307 119 362 97 q 216 193 252 140 q 171 340 180 246 l 664 340 q 668 375 667 358 q 669 407 669 392 q 632 563 669 499 q 527 661 594 627 q 376 694 461 694 q 196 647 271 694 q 82 520 122 599 q 43 346 43 441 q 85 166 43 248 q 209 35 127 85 q 411 -14 291 -14 m 182 426 q 245 542 201 501 q 374 583 290 583 q 467 564 431 583 q 522 510 504 545 q 540 426 540 474 l 182 426 m 360 -110 l 394 0 l 325 0 l 289 -146 q 322 -137 307 -140 q 353 -135 338 -135 q 405 -150 388 -135 q 422 -190 422 -165 q 404 -230 422 -216 q 356 -243 386 -243 q 310 -237 332 -243 q 268 -219 289 -231 l 247 -287 q 293 -306 266 -298 q 356 -314 320 -314 q 460 -281 417 -314 q 503 -187 503 -249 q 470 -105 503 -135 q 382 -75 438 -75 q 347 -79 363 -75 q 314 -89 331 -83 l 360 -110 m 386 800 q 500 825 456 800 q 567 890 545 850 q 589 976 589 931 l 478 976 q 451 913 478 934 q 386 892 424 892 q 322 913 349 892 q 294 976 294 934 l 183 976 q 205 890 183 931 q 272 825 227 850 q 386 800 317 800 "},"ê":{"ha":711,"x_min":43,"x_max":669,"o":"m 411 -14 q 542 4 485 -14 q 639 39 599 22 l 622 138 q 525 107 576 117 q 426 97 474 97 q 307 119 362 97 q 216 193 252 140 q 171 340 180 246 l 664 340 q 668 375 667 358 q 669 407 669 392 q 632 563 669 499 q 527 661 594 627 q 376 694 461 694 q 196 647 271 694 q 82 520 122 599 q 43 346 43 441 q 85 166 43 248 q 209 35 127 85 q 411 -14 291 -14 m 182 426 q 245 542 201 501 q 374 583 290 583 q 467 564 431 583 q 522 510 504 545 q 540 426 540 474 l 182 426 m 210 783 l 386 894 l 563 783 l 563 868 l 386 1021 l 210 868 l 210 783 "},"ế":{"ha":711,"x_min":43,"x_max":718,"o":"m 411 -14 q 542 4 485 -14 q 639 39 599 22 l 622 138 q 525 107 576 117 q 426 97 474 97 q 307 119 362 97 q 216 193 252 140 q 171 340 180 246 l 664 340 q 668 375 667 358 q 669 407 669 392 q 632 563 669 499 q 527 661 594 627 q 376 694 461 694 q 196 647 271 694 q 82 520 122 599 q 43 346 43 441 q 85 166 43 248 q 209 35 127 85 q 411 -14 291 -14 m 182 426 q 245 542 201 501 q 374 583 290 583 q 467 564 431 583 q 522 510 504 545 q 540 426 540 474 l 182 426 m 210 754 l 386 846 l 563 754 l 563 839 l 386 964 l 210 839 l 210 754 m 490 957 l 582 957 l 718 1119 l 582 1119 l 490 957 "},"ệ":{"ha":711,"x_min":43,"x_max":669,"o":"m 411 -14 q 542 4 485 -14 q 639 39 599 22 l 622 138 q 525 107 576 117 q 426 97 474 97 q 307 119 362 97 q 216 193 252 140 q 171 340 180 246 l 664 340 q 668 375 667 358 q 669 407 669 392 q 632 563 669 499 q 527 661 594 627 q 376 694 461 694 q 196 647 271 694 q 82 520 122 599 q 43 346 43 441 q 85 166 43 248 q 209 35 127 85 q 411 -14 291 -14 m 182 426 q 245 542 201 501 q 374 583 290 583 q 467 564 431 583 q 522 510 504 545 q 540 426 540 474 l 182 426 m 210 783 l 386 894 l 563 783 l 563 868 l 386 1021 l 210 868 l 210 783 "},"ề":{"ha":711,"x_min":43,"x_max":669,"o":"m 411 -14 q 542 4 485 -14 q 639 39 599 22 l 622 138 q 525 107 576 117 q 426 97 474 97 q 307 119 362 97 q 216 193 252 140 q 171 340 180 246 l 664 340 q 668 375 667 358 q 669 407 669 392 q 632 563 669 499 q 527 661 594 627 q 376 694 461 694 q 196 647 271 694 q 82 520 122 599 q 43 346 43 441 q 85 166 43 248 q 209 35 127 85 q 411 -14 291 -14 m 182 426 q 245 542 201 501 q 374 583 290 583 q 467 564 431 583 q 522 510 504 545 q 540 426 540 474 l 182 426 m 210 754 l 386 846 l 563 754 l 563 839 l 386 964 l 210 839 l 210 754 m 510 957 l 599 957 l 521 1119 l 389 1119 l 510 957 "},"ể":{"ha":711,"x_min":43,"x_max":669,"o":"m 411 -14 q 542 4 485 -14 q 639 39 599 22 l 622 138 q 525 107 576 117 q 426 97 474 97 q 307 119 362 97 q 216 193 252 140 q 171 340 180 246 l 664 340 q 668 375 667 358 q 669 407 669 392 q 632 563 669 499 q 527 661 594 627 q 376 694 461 694 q 196 647 271 694 q 82 520 122 599 q 43 346 43 441 q 85 166 43 248 q 209 35 127 85 q 411 -14 291 -14 m 182 426 q 245 542 201 501 q 374 583 290 583 q 467 564 431 583 q 522 510 504 545 q 540 426 540 474 l 182 426 m 210 754 l 386 846 l 563 754 l 563 839 l 386 964 l 210 839 l 210 754 m 519 919 q 609 963 581 933 q 636 1038 636 992 q 596 1117 636 1089 q 499 1144 556 1144 q 439 1138 467 1144 q 388 1118 410 1131 l 411 1047 q 455 1066 433 1059 q 499 1074 477 1074 q 540 1063 525 1074 q 556 1029 556 1052 q 543 997 556 1010 q 507 975 531 983 l 519 919 "},"ễ":{"ha":711,"x_min":43,"x_max":669,"o":"m 411 -14 q 542 4 485 -14 q 639 39 599 22 l 622 138 q 525 107 576 117 q 426 97 474 97 q 307 119 362 97 q 216 193 252 140 q 171 340 180 246 l 664 340 q 668 375 667 358 q 669 407 669 392 q 632 563 669 499 q 527 661 594 627 q 376 694 461 694 q 196 647 271 694 q 82 520 122 599 q 43 346 43 441 q 85 166 43 248 q 209 35 127 85 q 411 -14 291 -14 m 182 426 q 245 542 201 501 q 374 583 290 583 q 467 564 431 583 q 522 510 504 545 q 540 426 540 474 l 182 426 m 210 754 l 386 846 l 563 754 l 563 839 l 386 964 l 210 839 l 210 754 m 501 1021 q 576 1057 549 1021 q 603 1160 603 1092 l 513 1160 q 465 1110 513 1110 q 406 1124 439 1110 q 338 1152 373 1138 q 271 1167 303 1167 q 196 1131 223 1167 q 169 1028 169 1096 l 260 1028 q 307 1078 260 1078 q 366 1064 333 1078 q 434 1035 399 1049 q 501 1021 469 1021 "},"ȅ":{"ha":711,"x_min":43,"x_max":669,"o":"m 411 -14 q 542 4 485 -14 q 639 39 599 22 l 622 138 q 525 107 576 117 q 426 97 474 97 q 307 119 362 97 q 216 193 252 140 q 171 340 180 246 l 664 340 q 668 375 667 358 q 669 407 669 392 q 632 563 669 499 q 527 661 594 627 q 376 694 461 694 q 196 647 271 694 q 82 520 122 599 q 43 346 43 441 q 85 166 43 248 q 209 35 127 85 q 411 -14 291 -14 m 182 426 q 245 542 201 501 q 374 583 290 583 q 467 564 431 583 q 522 510 504 545 q 540 426 540 474 l 182 426 m 531 803 l 439 1035 l 303 1035 l 439 803 l 531 803 m 336 803 l 238 1035 l 101 1035 l 244 803 l 336 803 "},"ë":{"ha":711,"x_min":43,"x_max":669,"o":"m 411 -14 q 542 4 485 -14 q 639 39 599 22 l 622 138 q 525 107 576 117 q 426 97 474 97 q 307 119 362 97 q 216 193 252 140 q 171 340 180 246 l 664 340 q 668 375 667 358 q 669 407 669 392 q 632 563 669 499 q 527 661 594 627 q 376 694 461 694 q 196 647 271 694 q 82 520 122 599 q 43 346 43 441 q 85 166 43 248 q 209 35 127 85 q 411 -14 291 -14 m 182 426 q 245 542 201 501 q 374 583 290 583 q 467 564 431 583 q 522 510 504 545 q 540 426 540 474 l 182 426 m 460 821 l 579 821 l 579 932 l 460 932 l 460 821 m 193 821 l 313 821 l 313 932 l 193 932 l 193 821 "},"ė":{"ha":711,"x_min":43,"x_max":669,"o":"m 411 -14 q 542 4 485 -14 q 639 39 599 22 l 622 138 q 525 107 576 117 q 426 97 474 97 q 307 119 362 97 q 216 193 252 140 q 171 340 180 246 l 664 340 q 668 375 667 358 q 669 407 669 392 q 632 563 669 499 q 527 661 594 627 q 376 694 461 694 q 196 647 271 694 q 82 520 122 599 q 43 346 43 441 q 85 166 43 248 q 209 35 127 85 q 411 -14 291 -14 m 182 426 q 245 542 201 501 q 374 583 290 583 q 467 564 431 583 q 522 510 504 545 q 540 426 540 474 l 182 426 m 319 821 l 453 821 l 453 946 l 319 946 l 319 821 "},"ẹ":{"ha":711,"x_min":43,"x_max":669,"o":"m 411 -14 q 542 4 485 -14 q 639 39 599 22 l 622 138 q 525 107 576 117 q 426 97 474 97 q 307 119 362 97 q 216 193 252 140 q 171 340 180 246 l 664 340 q 668 375 667 358 q 669 407 669 392 q 632 563 669 499 q 527 661 594 627 q 376 694 461 694 q 196 647 271 694 q 82 520 122 599 q 43 346 43 441 q 85 166 43 248 q 209 35 127 85 q 411 -14 291 -14 m 182 426 q 245 542 201 501 q 374 583 290 583 q 467 564 431 583 q 522 510 504 545 q 540 426 540 474 l 182 426 "},"è":{"ha":711,"x_min":43,"x_max":669,"o":"m 411 -14 q 542 4 485 -14 q 639 39 599 22 l 622 138 q 525 107 576 117 q 426 97 474 97 q 307 119 362 97 q 216 193 252 140 q 171 340 180 246 l 664 340 q 668 375 667 358 q 669 407 669 392 q 632 563 669 499 q 527 661 594 627 q 376 694 461 694 q 196 647 271 694 q 82 520 122 599 q 43 346 43 441 q 85 166 43 248 q 209 35 127 85 q 411 -14 291 -14 m 182 426 q 245 542 201 501 q 374 583 290 583 q 467 564 431 583 q 522 510 504 545 q 540 426 540 474 l 182 426 m 515 800 l 515 885 l 256 1038 l 256 901 l 515 800 "},"ẻ":{"ha":711,"x_min":43,"x_max":669,"o":"m 411 -14 q 542 4 485 -14 q 639 39 599 22 l 622 138 q 525 107 576 117 q 426 97 474 97 q 307 119 362 97 q 216 193 252 140 q 171 340 180 246 l 664 340 q 668 375 667 358 q 669 407 669 392 q 632 563 669 499 q 527 661 594 627 q 376 694 461 694 q 196 647 271 694 q 82 520 122 599 q 43 346 43 441 q 85 166 43 248 q 209 35 127 85 q 411 -14 291 -14 m 182 426 q 245 542 201 501 q 374 583 290 583 q 467 564 431 583 q 522 510 504 545 q 540 426 540 474 l 182 426 m 407 729 q 478 797 455 766 q 501 872 501 828 q 461 959 501 928 q 364 989 422 989 q 304 982 332 989 q 253 963 276 975 l 276 892 q 320 911 299 903 q 364 918 342 918 q 406 906 390 918 q 421 868 421 893 q 407 825 421 843 q 360 775 392 808 l 407 729 "},"ȇ":{"ha":711,"x_min":43,"x_max":669,"o":"m 411 -14 q 542 4 485 -14 q 639 39 599 22 l 622 138 q 525 107 576 117 q 426 97 474 97 q 307 119 362 97 q 216 193 252 140 q 171 340 180 246 l 664 340 q 668 375 667 358 q 669 407 669 392 q 632 563 669 499 q 527 661 594 627 q 376 694 461 694 q 196 647 271 694 q 82 520 122 599 q 43 346 43 441 q 85 166 43 248 q 209 35 127 85 q 411 -14 291 -14 m 182 426 q 245 542 201 501 q 374 583 290 583 q 467 564 431 583 q 522 510 504 545 q 540 426 540 474 l 182 426 m 386 976 q 272 951 317 976 q 205 886 227 926 q 183 800 183 846 l 294 800 q 322 864 294 843 q 386 885 349 885 q 451 864 424 885 q 478 800 478 843 l 589 800 q 567 886 589 846 q 500 951 545 926 q 386 976 456 976 "},"ē":{"ha":711,"x_min":43,"x_max":669,"o":"m 411 -14 q 542 4 485 -14 q 639 39 599 22 l 622 138 q 525 107 576 117 q 426 97 474 97 q 307 119 362 97 q 216 193 252 140 q 171 340 180 246 l 664 340 q 668 375 667 358 q 669 407 669 392 q 632 563 669 499 q 527 661 594 627 q 376 694 461 694 q 196 647 271 694 q 82 520 122 599 q 43 346 43 441 q 85 166 43 248 q 209 35 127 85 q 411 -14 291 -14 m 182 426 q 245 542 201 501 q 374 583 290 583 q 467 564 431 583 q 522 510 504 545 q 540 426 540 474 l 182 426 m 164 821 l 608 821 l 608 919 l 164 919 l 164 821 "},"ḗ":{"ha":711,"x_min":43,"x_max":669,"o":"m 411 -14 q 542 4 485 -14 q 639 39 599 22 l 622 138 q 525 107 576 117 q 426 97 474 97 q 307 119 362 97 q 216 193 252 140 q 171 340 180 246 l 664 340 q 668 375 667 358 q 669 407 669 392 q 632 563 669 499 q 527 661 594 627 q 376 694 461 694 q 196 647 271 694 q 82 520 122 599 q 43 346 43 441 q 85 166 43 248 q 209 35 127 85 q 411 -14 291 -14 m 182 426 q 245 542 201 501 q 374 583 290 583 q 467 564 431 583 q 522 510 504 545 q 540 426 540 474 l 182 426 m 164 810 l 608 810 l 608 904 l 164 904 l 164 810 m 257 1008 l 517 1089 l 517 1221 l 257 1089 l 257 1008 "},"ḕ":{"ha":711,"x_min":43,"x_max":669,"o":"m 411 -14 q 542 4 485 -14 q 639 39 599 22 l 622 138 q 525 107 576 117 q 426 97 474 97 q 307 119 362 97 q 216 193 252 140 q 171 340 180 246 l 664 340 q 668 375 667 358 q 669 407 669 392 q 632 563 669 499 q 527 661 594 627 q 376 694 461 694 q 196 647 271 694 q 82 520 122 599 q 43 346 43 441 q 85 166 43 248 q 209 35 127 85 q 411 -14 291 -14 m 182 426 q 245 542 201 501 q 374 583 290 583 q 467 564 431 583 q 522 510 504 545 q 540 426 540 474 l 182 426 m 164 810 l 608 810 l 608 904 l 164 904 l 164 810 m 515 1008 l 515 1089 l 256 1221 l 256 1089 l 515 1008 "},"ę":{"ha":711,"x_min":43,"x_max":706,"o":"m 411 -14 q 542 4 485 -14 q 639 39 599 22 l 622 138 q 525 107 576 117 q 426 97 474 97 q 307 119 362 97 q 216 193 252 140 q 171 340 180 246 l 664 340 q 668 375 667 358 q 669 407 669 392 q 632 563 669 499 q 527 661 594 627 q 376 694 461 694 q 196 647 271 694 q 82 520 122 599 q 43 346 43 441 q 85 166 43 248 q 209 35 127 85 q 411 -14 291 -14 m 182 426 q 245 542 201 501 q 374 583 290 583 q 467 564 431 583 q 522 510 504 545 q 540 426 540 474 l 182 426 m 565 39 q 487 -30 524 15 q 450 -131 450 -75 q 491 -219 450 -189 q 590 -250 532 -250 q 657 -242 628 -250 q 706 -224 686 -234 l 685 -156 q 643 -173 664 -167 q 597 -179 622 -179 q 549 -161 567 -179 q 531 -108 531 -144 q 560 -34 531 -69 q 639 39 590 1 l 565 39 "},"ẽ":{"ha":711,"x_min":43,"x_max":669,"o":"m 411 -14 q 542 4 485 -14 q 639 39 599 22 l 622 138 q 525 107 576 117 q 426 97 474 97 q 307 119 362 97 q 216 193 252 140 q 171 340 180 246 l 664 340 q 668 375 667 358 q 669 407 669 392 q 632 563 669 499 q 527 661 594 627 q 376 694 461 694 q 196 647 271 694 q 82 520 122 599 q 43 346 43 441 q 85 166 43 248 q 209 35 127 85 q 411 -14 291 -14 m 182 426 q 245 542 201 501 q 374 583 290 583 q 467 564 431 583 q 522 510 504 545 q 540 426 540 474 l 182 426 m 497 806 q 584 845 553 806 q 617 960 614 885 l 513 960 q 465 906 513 906 q 406 922 436 906 q 342 955 375 938 q 275 971 310 971 q 189 931 219 971 q 156 817 159 892 l 260 817 q 307 871 260 871 q 367 855 336 871 q 430 822 397 838 q 497 806 463 806 "},"ə":{"ha":711,"x_min":42,"x_max":668,"o":"m 300 694 q 169 677 226 694 q 72 642 112 659 l 89 543 q 186 574 135 564 q 285 583 238 583 q 404 562 349 583 q 495 488 459 540 q 540 340 531 435 l 47 340 q 43 305 44 322 q 42 274 42 288 q 80 118 42 182 q 184 20 117 53 q 335 -14 250 -14 q 515 34 440 -14 q 629 160 590 81 q 668 335 668 240 q 626 514 668 433 q 502 645 584 596 q 300 694 420 694 m 529 254 q 466 139 510 180 q 338 97 421 97 q 244 116 281 97 q 189 171 207 135 q 171 254 171 206 l 529 254 "},"f":{"ha":460,"x_min":14,"x_max":440,"o":"m 132 0 l 257 0 l 257 583 l 440 583 l 440 681 l 257 681 l 257 833 q 280 908 257 885 q 343 931 303 931 q 380 927 364 931 q 413 918 396 924 l 432 1024 q 384 1037 410 1032 q 324 1042 358 1042 q 181 987 229 1042 q 132 842 132 933 l 132 681 l 31 681 l 14 583 l 132 583 l 132 0 "},"g":{"ha":692,"x_min":36,"x_max":696,"o":"m 360 -347 q 538 -324 462 -347 q 655 -254 613 -301 q 696 -136 696 -207 q 636 -4 696 -51 q 465 60 576 42 l 283 89 q 225 107 243 95 q 207 133 207 118 q 239 169 207 159 q 283 160 260 163 q 331 157 306 157 q 482 193 419 157 q 579 290 545 228 q 613 429 613 351 q 597 516 613 474 q 553 590 581 557 q 599 598 574 596 q 631 600 624 600 q 647 600 639 600 q 663 600 654 600 l 678 683 q 673 683 675 683 q 667 683 670 683 q 571 672 614 683 q 497 642 528 660 q 420 681 462 667 q 331 694 378 694 q 180 659 242 694 q 83 564 117 624 q 50 429 50 503 q 81 295 50 356 q 168 200 111 235 q 107 158 126 183 q 88 101 88 133 q 105 53 88 75 q 154 15 122 31 q 68 -49 99 -9 q 36 -144 36 -89 q 78 -256 36 -211 q 193 -324 120 -301 q 360 -347 267 -347 m 371 -236 q 214 -210 273 -236 q 156 -125 156 -183 q 184 -59 156 -87 q 251 -15 213 -31 l 444 -47 q 537 -80 505 -58 q 569 -139 569 -101 q 518 -211 569 -187 q 371 -236 467 -236 m 331 257 q 210 305 251 257 q 169 428 169 352 q 210 548 169 501 q 331 594 251 594 q 451 548 410 594 q 493 428 493 501 q 451 305 493 352 q 331 257 410 257 "},"ğ":{"ha":692,"x_min":36,"x_max":696,"o":"m 360 -347 q 538 -324 462 -347 q 655 -254 613 -301 q 696 -136 696 -207 q 636 -4 696 -51 q 465 60 576 42 l 283 89 q 225 107 243 95 q 207 133 207 118 q 239 169 207 159 q 283 160 260 163 q 331 157 306 157 q 482 193 419 157 q 579 290 545 228 q 613 429 613 351 q 597 516 613 474 q 553 590 581 557 q 599 598 574 596 q 631 600 624 600 q 647 600 639 600 q 663 600 654 600 l 678 683 q 673 683 675 683 q 667 683 670 683 q 571 672 614 683 q 497 642 528 660 q 420 681 462 667 q 331 694 378 694 q 180 659 242 694 q 83 564 117 624 q 50 429 50 503 q 81 295 50 356 q 168 200 111 235 q 107 158 126 183 q 88 101 88 133 q 105 53 88 75 q 154 15 122 31 q 68 -49 99 -9 q 36 -144 36 -89 q 78 -256 36 -211 q 193 -324 120 -301 q 360 -347 267 -347 m 371 -236 q 214 -210 273 -236 q 156 -125 156 -183 q 184 -59 156 -87 q 251 -15 213 -31 l 444 -47 q 537 -80 505 -58 q 569 -139 569 -101 q 518 -211 569 -187 q 371 -236 467 -236 m 331 257 q 210 305 251 257 q 169 428 169 352 q 210 548 169 501 q 331 594 251 594 q 451 548 410 594 q 493 428 493 501 q 451 305 493 352 q 331 257 410 257 m 351 800 q 466 825 421 800 q 532 890 510 850 q 554 976 554 931 l 443 976 q 416 913 443 934 q 351 892 389 892 q 287 913 314 892 q 260 976 260 934 l 149 976 q 170 890 149 931 q 237 825 192 850 q 351 800 282 800 "},"ǧ":{"ha":692,"x_min":36,"x_max":696,"o":"m 360 -347 q 538 -324 462 -347 q 655 -254 613 -301 q 696 -136 696 -207 q 636 -4 696 -51 q 465 60 576 42 l 283 89 q 225 107 243 95 q 207 133 207 118 q 239 169 207 159 q 283 160 260 163 q 331 157 306 157 q 482 193 419 157 q 579 290 545 228 q 613 429 613 351 q 597 516 613 474 q 553 590 581 557 q 599 598 574 596 q 631 600 624 600 q 647 600 639 600 q 663 600 654 600 l 678 683 q 673 683 675 683 q 667 683 670 683 q 571 672 614 683 q 497 642 528 660 q 420 681 462 667 q 331 694 378 694 q 180 659 242 694 q 83 564 117 624 q 50 429 50 503 q 81 295 50 356 q 168 200 111 235 q 107 158 126 183 q 88 101 88 133 q 105 53 88 75 q 154 15 122 31 q 68 -49 99 -9 q 36 -144 36 -89 q 78 -256 36 -211 q 193 -324 120 -301 q 360 -347 267 -347 m 371 -236 q 214 -210 273 -236 q 156 -125 156 -183 q 184 -59 156 -87 q 251 -15 213 -31 l 444 -47 q 537 -80 505 -58 q 569 -139 569 -101 q 518 -211 569 -187 q 371 -236 467 -236 m 331 257 q 210 305 251 257 q 169 428 169 352 q 210 548 169 501 q 331 594 251 594 q 451 548 410 594 q 493 428 493 501 q 451 305 493 352 q 331 257 410 257 m 351 775 l 528 928 l 528 1013 l 351 901 l 175 1013 l 175 928 l 351 775 "},"ĝ":{"ha":692,"x_min":36,"x_max":696,"o":"m 360 -347 q 538 -324 462 -347 q 655 -254 613 -301 q 696 -136 696 -207 q 636 -4 696 -51 q 465 60 576 42 l 283 89 q 225 107 243 95 q 207 133 207 118 q 239 169 207 159 q 283 160 260 163 q 331 157 306 157 q 482 193 419 157 q 579 290 545 228 q 613 429 613 351 q 597 516 613 474 q 553 590 581 557 q 599 598 574 596 q 631 600 624 600 q 647 600 639 600 q 663 600 654 600 l 678 683 q 673 683 675 683 q 667 683 670 683 q 571 672 614 683 q 497 642 528 660 q 420 681 462 667 q 331 694 378 694 q 180 659 242 694 q 83 564 117 624 q 50 429 50 503 q 81 295 50 356 q 168 200 111 235 q 107 158 126 183 q 88 101 88 133 q 105 53 88 75 q 154 15 122 31 q 68 -49 99 -9 q 36 -144 36 -89 q 78 -256 36 -211 q 193 -324 120 -301 q 360 -347 267 -347 m 371 -236 q 214 -210 273 -236 q 156 -125 156 -183 q 184 -59 156 -87 q 251 -15 213 -31 l 444 -47 q 537 -80 505 -58 q 569 -139 569 -101 q 518 -211 569 -187 q 371 -236 467 -236 m 331 257 q 210 305 251 257 q 169 428 169 352 q 210 548 169 501 q 331 594 251 594 q 451 548 410 594 q 493 428 493 501 q 451 305 493 352 q 331 257 410 257 m 175 783 l 351 894 l 528 783 l 528 868 l 351 1021 l 175 868 l 175 783 "},"ģ":{"ha":692,"x_min":36,"x_max":696,"o":"m 360 -347 q 538 -324 462 -347 q 655 -254 613 -301 q 696 -136 696 -207 q 636 -4 696 -51 q 465 60 576 42 l 283 89 q 225 107 243 95 q 207 133 207 118 q 239 169 207 159 q 283 160 260 163 q 331 157 306 157 q 482 193 419 157 q 579 290 545 228 q 613 429 613 351 q 597 516 613 474 q 553 590 581 557 q 599 598 574 596 q 631 600 624 600 q 647 600 639 600 q 663 600 654 600 l 678 683 q 673 683 675 683 q 667 683 670 683 q 571 672 614 683 q 497 642 528 660 q 420 681 462 667 q 331 694 378 694 q 180 659 242 694 q 83 564 117 624 q 50 429 50 503 q 81 295 50 356 q 168 200 111 235 q 107 158 126 183 q 88 101 88 133 q 105 53 88 75 q 154 15 122 31 q 68 -49 99 -9 q 36 -144 36 -89 q 78 -256 36 -211 q 193 -324 120 -301 q 360 -347 267 -347 m 371 -236 q 214 -210 273 -236 q 156 -125 156 -183 q 184 -59 156 -87 q 251 -15 213 -31 l 444 -47 q 537 -80 505 -58 q 569 -139 569 -101 q 518 -211 569 -187 q 371 -236 467 -236 m 331 257 q 210 305 251 257 q 169 428 169 352 q 210 548 169 501 q 331 594 251 594 q 451 548 410 594 q 493 428 493 501 q 451 305 493 352 q 331 257 410 257 "},"ġ":{"ha":692,"x_min":36,"x_max":696,"o":"m 360 -347 q 538 -324 462 -347 q 655 -254 613 -301 q 696 -136 696 -207 q 636 -4 696 -51 q 465 60 576 42 l 283 89 q 225 107 243 95 q 207 133 207 118 q 239 169 207 159 q 283 160 260 163 q 331 157 306 157 q 482 193 419 157 q 579 290 545 228 q 613 429 613 351 q 597 516 613 474 q 553 590 581 557 q 599 598 574 596 q 631 600 624 600 q 647 600 639 600 q 663 600 654 600 l 678 683 q 673 683 675 683 q 667 683 670 683 q 571 672 614 683 q 497 642 528 660 q 420 681 462 667 q 331 694 378 694 q 180 659 242 694 q 83 564 117 624 q 50 429 50 503 q 81 295 50 356 q 168 200 111 235 q 107 158 126 183 q 88 101 88 133 q 105 53 88 75 q 154 15 122 31 q 68 -49 99 -9 q 36 -144 36 -89 q 78 -256 36 -211 q 193 -324 120 -301 q 360 -347 267 -347 m 371 -236 q 214 -210 273 -236 q 156 -125 156 -183 q 184 -59 156 -87 q 251 -15 213 -31 l 444 -47 q 537 -80 505 -58 q 569 -139 569 -101 q 518 -211 569 -187 q 371 -236 467 -236 m 331 257 q 210 305 251 257 q 169 428 169 352 q 210 548 169 501 q 331 594 251 594 q 451 548 410 594 q 493 428 493 501 q 451 305 493 352 q 331 257 410 257 m 285 821 l 418 821 l 418 946 l 285 946 l 285 821 "},"ḡ":{"ha":692,"x_min":36,"x_max":696,"o":"m 360 -347 q 538 -324 462 -347 q 655 -254 613 -301 q 696 -136 696 -207 q 636 -4 696 -51 q 465 60 576 42 l 283 89 q 225 107 243 95 q 207 133 207 118 q 239 169 207 159 q 283 160 260 163 q 331 157 306 157 q 482 193 419 157 q 579 290 545 228 q 613 429 613 351 q 597 516 613 474 q 553 590 581 557 q 599 598 574 596 q 631 600 624 600 q 647 600 639 600 q 663 600 654 600 l 678 683 q 673 683 675 683 q 667 683 670 683 q 571 672 614 683 q 497 642 528 660 q 420 681 462 667 q 331 694 378 694 q 180 659 242 694 q 83 564 117 624 q 50 429 50 503 q 81 295 50 356 q 168 200 111 235 q 107 158 126 183 q 88 101 88 133 q 105 53 88 75 q 154 15 122 31 q 68 -49 99 -9 q 36 -144 36 -89 q 78 -256 36 -211 q 193 -324 120 -301 q 360 -347 267 -347 m 371 -236 q 214 -210 273 -236 q 156 -125 156 -183 q 184 -59 156 -87 q 251 -15 213 -31 l 444 -47 q 537 -80 505 -58 q 569 -139 569 -101 q 518 -211 569 -187 q 371 -236 467 -236 m 331 257 q 210 305 251 257 q 169 428 169 352 q 210 548 169 501 q 331 594 251 594 q 451 548 410 594 q 493 428 493 501 q 451 305 493 352 q 331 257 410 257 m 129 821 l 574 821 l 574 919 l 129 919 l 129 821 "},"h":{"ha":753,"x_min":83,"x_max":675,"o":"m 83 0 l 210 0 l 210 532 l 189 456 q 268 549 218 514 q 382 583 317 583 q 509 530 467 583 q 550 364 550 476 l 550 0 l 675 0 l 675 379 q 645 544 675 474 q 557 655 616 615 q 410 694 498 694 q 268 660 324 694 q 165 565 213 626 l 210 563 l 210 1042 l 83 1042 l 83 0 "},"ħ":{"ha":753,"x_min":-22,"x_max":675,"o":"m 83 0 l 210 0 l 210 547 l 189 456 q 267 553 219 522 q 388 583 314 583 q 514 534 478 583 q 550 364 550 485 l 550 0 l 675 0 l 675 364 q 650 536 675 462 q 569 652 625 610 q 419 694 513 694 q 282 665 338 694 q 186 574 226 636 l 210 574 l 210 1042 l 83 1042 l 83 0 m -22 815 l 418 815 l 418 913 l -22 913 l -22 815 "},"ḫ":{"ha":753,"x_min":83,"x_max":675,"o":"m 83 0 l 210 0 l 210 532 l 189 456 q 268 549 218 514 q 382 583 317 583 q 509 530 467 583 q 550 364 550 476 l 550 0 l 675 0 l 675 379 q 645 544 675 474 q 557 655 616 615 q 410 694 498 694 q 268 660 324 694 q 165 565 213 626 l 210 563 l 210 1042 l 83 1042 l 83 0 "},"ĥ":{"ha":753,"x_min":-29,"x_max":675,"o":"m 83 0 l 210 0 l 210 532 l 189 456 q 268 549 218 514 q 382 583 317 583 q 509 530 467 583 q 550 364 550 476 l 550 0 l 675 0 l 675 379 q 645 544 675 474 q 557 655 616 615 q 410 694 498 694 q 268 660 324 694 q 165 565 213 626 l 210 563 l 210 1042 l 83 1042 l 83 0 m -29 1088 l 147 1179 l 324 1088 l 324 1172 l 147 1297 l -29 1172 l -29 1088 "},"ḥ":{"ha":753,"x_min":83,"x_max":675,"o":"m 83 0 l 210 0 l 210 532 l 189 456 q 268 549 218 514 q 382 583 317 583 q 509 530 467 583 q 550 364 550 476 l 550 0 l 675 0 l 675 379 q 645 544 675 474 q 557 655 616 615 q 410 694 498 694 q 268 660 324 694 q 165 565 213 626 l 210 563 l 210 1042 l 83 1042 l 83 0 "},"i":{"ha":294,"x_min":85,"x_max":210,"o":"m 85 0 l 210 0 l 210 681 l 85 681 l 85 0 m 85 833 l 210 833 l 210 972 l 85 972 l 85 833 "},"ı":{"ha":294,"x_min":85,"x_max":210,"o":"m 85 0 l 210 0 l 210 681 l 85 681 l 85 0 "},"í":{"ha":294,"x_min":18,"x_max":278,"o":"m 85 0 l 210 0 l 210 681 l 85 681 l 85 0 m 18 800 l 278 901 l 278 1038 l 18 885 l 18 800 "},"ĭ":{"ha":294,"x_min":-56,"x_max":350,"o":"m 85 0 l 210 0 l 210 681 l 85 681 l 85 0 m 147 800 q 261 825 217 800 q 328 890 306 850 q 350 976 350 931 l 239 976 q 212 913 239 934 q 147 892 185 892 q 83 913 110 892 q 56 976 56 934 l -56 976 q -34 890 -56 931 q 33 825 -12 850 q 147 800 78 800 "},"î":{"ha":294,"x_min":-29,"x_max":324,"o":"m 85 0 l 210 0 l 210 681 l 85 681 l 85 0 m -29 783 l 147 894 l 324 783 l 324 868 l 147 1021 l -29 868 l -29 783 "},"ȉ":{"ha":294,"x_min":-137,"x_max":292,"o":"m 85 0 l 210 0 l 210 681 l 85 681 l 85 0 m 292 803 l 200 1035 l 64 1035 l 200 803 l 292 803 m 97 803 l -1 1035 l -137 1035 l 6 803 l 97 803 "},"ï":{"ha":294,"x_min":-46,"x_max":340,"o":"m 85 0 l 210 0 l 210 681 l 85 681 l 85 0 m 221 821 l 340 821 l 340 932 l 221 932 l 221 821 m -46 821 l 74 821 l 74 932 l -46 932 l -46 821 "},"ḯ":{"ha":294,"x_min":-46,"x_max":340,"o":"m 85 0 l 210 0 l 210 681 l 85 681 l 85 0 m -46 811 l 74 811 l 74 915 l -46 915 l -46 811 m 221 811 l 340 811 l 340 915 l 221 915 l 221 811 m 18 992 l 278 1072 l 278 1204 l 18 1072 l 18 992 "},"ị":{"ha":294,"x_min":81,"x_max":214,"o":"m 85 0 l 210 0 l 210 681 l 85 681 l 85 0 m 85 833 l 210 833 l 210 972 l 85 972 l 85 833 "},"ì":{"ha":294,"x_min":17,"x_max":276,"o":"m 85 0 l 210 0 l 210 681 l 85 681 l 85 0 m 276 800 l 276 885 l 17 1038 l 17 901 l 276 800 "},"ỉ":{"ha":294,"x_min":14,"x_max":263,"o":"m 85 0 l 210 0 l 210 681 l 85 681 l 85 0 m 168 729 q 239 797 216 766 q 263 872 263 828 q 223 959 263 928 q 125 989 183 989 q 65 982 93 989 q 14 963 37 975 l 38 892 q 82 911 60 903 q 125 918 103 918 q 167 906 151 918 q 182 868 182 893 q 168 825 182 843 q 121 775 153 808 l 168 729 "},"ȋ":{"ha":294,"x_min":-56,"x_max":350,"o":"m 85 0 l 210 0 l 210 681 l 85 681 l 85 0 m 147 976 q 33 951 78 976 q -34 886 -12 926 q -56 800 -56 846 l 56 800 q 83 864 56 843 q 147 885 110 885 q 212 864 185 885 q 239 800 239 843 l 350 800 q 328 886 350 846 q 261 951 306 926 q 147 976 217 976 "},"ĳ":{"ha":589,"x_min":85,"x_max":504,"o":"m 85 0 l 210 0 l 210 681 l 85 681 l 85 0 m 85 833 l 210 833 l 210 972 l 85 972 l 85 833 m 292 -336 l 333 -329 q 408 -306 369 -324 q 476 -251 448 -289 q 504 -149 504 -214 l 504 681 l 379 681 l 379 -101 q 371 -185 379 -156 q 341 -225 363 -213 q 278 -240 319 -236 l 292 -336 m 379 833 l 504 833 l 504 972 l 379 972 l 379 833 "},"ī":{"ha":294,"x_min":-75,"x_max":369,"o":"m 85 0 l 210 0 l 210 681 l 85 681 l 85 0 m -75 821 l 369 821 l 369 919 l -75 919 l -75 821 "},"į":{"ha":294,"x_min":21,"x_max":276,"o":"m 85 0 l 210 0 l 210 681 l 85 681 l 85 0 m 85 833 l 210 833 l 210 972 l 85 972 l 85 833 m 136 0 q 58 -69 94 -24 q 21 -169 21 -114 q 62 -258 21 -228 q 161 -289 103 -289 q 228 -281 199 -289 q 276 -262 257 -273 l 256 -194 q 214 -212 235 -206 q 168 -218 192 -218 q 120 -200 138 -218 q 101 -147 101 -183 q 131 -73 101 -108 q 210 0 161 -37 l 136 0 "},"ĩ":{"ha":294,"x_min":-83,"x_max":378,"o":"m 85 0 l 210 0 l 210 681 l 85 681 l 85 0 m 258 806 q 345 845 315 806 q 378 960 375 885 l 274 960 q 226 906 274 906 q 167 922 197 906 q 103 955 136 938 q 36 971 71 971 q -50 931 -20 971 q -83 817 -80 892 l 21 817 q 68 871 21 871 q 128 855 97 871 q 191 822 158 838 q 258 806 224 806 "},"j":{"ha":294,"x_min":-17,"x_max":210,"o":"m -3 -336 l 39 -329 q 114 -306 74 -324 q 182 -251 153 -289 q 210 -149 210 -214 l 210 681 l 85 681 l 85 -101 q 76 -185 85 -156 q 46 -225 68 -213 q -17 -240 24 -236 l -3 -336 m 85 833 l 210 833 l 210 972 l 85 972 l 85 833 "},"ȷ":{"ha":294,"x_min":-17,"x_max":210,"o":"m -3 -336 l 39 -329 q 114 -306 74 -324 q 182 -251 153 -289 q 210 -149 210 -214 l 210 681 l 85 681 l 85 -101 q 76 -185 85 -156 q 46 -225 68 -213 q -17 -240 24 -236 l -3 -336 "},"ĵ":{"ha":294,"x_min":-29,"x_max":324,"o":"m -3 -336 l 39 -329 q 114 -306 74 -324 q 182 -251 153 -289 q 210 -149 210 -214 l 210 681 l 85 681 l 85 -101 q 76 -185 85 -156 q 46 -225 68 -213 q -17 -240 24 -236 l -3 -336 m -29 783 l 147 894 l 324 783 l 324 868 l 147 1021 l -29 868 l -29 783 "},"k":{"ha":622,"x_min":83,"x_max":618,"o":"m 83 0 l 208 0 l 208 346 l 465 0 l 618 0 l 340 364 l 611 681 l 458 681 l 208 374 l 208 1042 l 83 1042 l 83 0 "},"ķ":{"ha":622,"x_min":83,"x_max":618,"o":"m 83 0 l 208 0 l 208 346 l 465 0 l 618 0 l 340 364 l 611 681 l 458 681 l 208 374 l 208 1042 l 83 1042 l 83 0 m 342 -422 l 414 -260 l 414 -126 l 264 -126 l 264 -274 l 313 -274 l 263 -422 l 342 -422 "},"ĸ":{"ha":697,"x_min":85,"x_max":689,"o":"m 85 0 l 210 0 l 210 336 l 536 0 l 689 0 l 332 353 l 682 681 l 529 681 l 210 364 l 210 681 l 85 681 l 85 0 "},"l":{"ha":328,"x_min":83,"x_max":318,"o":"m 260 -14 l 300 -14 l 318 86 q 247 96 270 86 q 216 135 224 106 q 208 222 208 164 l 208 1042 l 83 1042 l 83 150 q 100 72 83 109 q 155 10 117 34 q 260 -14 194 -14 "},"ĺ":{"ha":328,"x_min":17,"x_max":318,"o":"m 260 -14 l 300 -14 l 318 86 q 247 96 270 86 q 216 135 224 106 q 208 222 208 164 l 208 1042 l 83 1042 l 83 150 q 100 72 83 109 q 155 10 117 34 q 260 -14 194 -14 m 17 1131 l 276 1211 l 276 1343 l 17 1211 l 17 1131 "},"ľ":{"ha":386,"x_min":83,"x_max":408,"o":"m 260 -14 l 300 -14 l 318 86 q 247 96 270 86 q 216 135 224 106 q 208 222 208 164 l 208 1042 l 83 1042 l 83 150 q 100 72 83 109 q 155 10 117 34 q 260 -14 194 -14 m 278 810 l 369 810 l 408 1042 l 278 1042 l 278 810 "},"ļ":{"ha":328,"x_min":83,"x_max":318,"o":"m 260 -14 l 300 -14 l 318 86 q 247 96 270 86 q 216 135 224 106 q 208 222 208 164 l 208 1042 l 83 1042 l 83 150 q 100 72 83 109 q 155 10 117 34 q 260 -14 194 -14 m 213 -422 l 285 -260 l 285 -126 l 135 -126 l 135 -274 l 183 -274 l 133 -422 l 213 -422 "},"ŀ":{"ha":390,"x_min":83,"x_max":404,"o":"m 260 -14 l 300 -14 l 318 86 q 247 96 270 86 q 216 135 224 106 q 208 222 208 164 l 208 1042 l 83 1042 l 83 150 q 100 72 83 109 q 155 10 117 34 q 260 -14 194 -14 m 279 514 l 404 514 l 404 639 l 279 639 l 279 514 "},"ḷ":{"ha":328,"x_min":83,"x_max":318,"o":"m 260 -14 l 300 -14 l 318 86 q 247 96 270 86 q 216 135 224 106 q 208 222 208 164 l 208 1042 l 83 1042 l 83 150 q 100 72 83 109 q 155 10 117 34 q 260 -14 194 -14 "},"ǉ":{"ha":622,"x_min":83,"x_max":538,"o":"m 260 -14 l 300 -14 l 318 86 q 247 96 270 86 q 216 135 224 106 q 208 222 208 164 l 208 1042 l 83 1042 l 83 150 q 100 72 83 109 q 155 10 117 34 q 260 -14 194 -14 m 325 -336 l 367 -329 q 442 -306 402 -324 q 509 -251 481 -289 q 538 -149 538 -214 l 538 681 l 413 681 l 413 -101 q 404 -185 413 -156 q 374 -225 396 -213 q 311 -240 352 -236 l 325 -336 m 413 833 l 538 833 l 538 972 l 413 972 l 413 833 "},"ḻ":{"ha":328,"x_min":-14,"x_max":431,"o":"m 260 -14 l 300 -14 l 318 86 q 247 96 270 86 q 216 135 224 106 q 208 222 208 164 l 208 1042 l 83 1042 l 83 150 q 100 72 83 109 q 155 10 117 34 q 260 -14 194 -14 "},"ł":{"ha":328,"x_min":-14,"x_max":319,"o":"m 260 -14 l 300 -14 l 318 86 q 247 96 270 86 q 216 135 224 106 q 208 222 208 164 l 208 1042 l 83 1042 l 83 150 q 100 72 83 109 q 155 10 117 34 q 260 -14 194 -14 m -14 550 l 319 639 l 319 733 l -14 644 l -14 550 "},"m":{"ha":1218,"x_min":85,"x_max":1140,"o":"m 85 0 l 210 0 l 210 525 l 194 457 q 267 553 213 523 q 390 583 322 583 q 474 566 438 583 q 530 503 510 549 q 550 375 550 458 l 550 0 l 675 0 l 675 394 q 681 456 675 423 q 705 517 687 488 q 760 565 724 547 q 856 583 796 583 q 978 540 940 583 q 1015 400 1015 496 l 1015 0 l 1140 0 l 1140 401 q 1111 566 1140 501 q 1023 663 1081 631 q 879 694 965 694 q 709 649 772 694 q 615 524 646 603 l 650 508 q 591 621 628 581 q 507 678 553 662 q 411 694 461 694 q 284 668 344 694 q 160 572 224 641 l 207 550 l 182 681 l 85 681 l 85 0 "},"ṃ":{"ha":1218,"x_min":85,"x_max":1140,"o":"m 85 0 l 210 0 l 210 525 l 194 457 q 267 553 213 523 q 390 583 322 583 q 474 566 438 583 q 530 503 510 549 q 550 375 550 458 l 550 0 l 675 0 l 675 394 q 681 456 675 423 q 705 517 687 488 q 760 565 724 547 q 856 583 796 583 q 978 540 940 583 q 1015 400 1015 496 l 1015 0 l 1140 0 l 1140 401 q 1111 566 1140 501 q 1023 663 1081 631 q 879 694 965 694 q 709 649 772 694 q 615 524 646 603 l 650 508 q 591 621 628 581 q 507 678 553 662 q 411 694 461 694 q 284 668 344 694 q 160 572 224 641 l 207 550 l 182 681 l 85 681 l 85 0 "},"n":{"ha":776,"x_min":85,"x_max":699,"o":"m 85 0 l 210 0 l 210 533 l 194 457 q 270 553 213 523 q 396 583 327 583 q 533 533 493 583 q 574 375 574 483 l 574 0 l 699 0 l 699 375 q 634 608 699 522 q 421 694 570 694 q 293 671 358 694 q 158 571 227 647 l 207 550 l 182 681 l 85 681 l 85 0 "},"ń":{"ha":776,"x_min":85,"x_max":699,"o":"m 85 0 l 210 0 l 210 533 l 194 457 q 270 553 213 523 q 396 583 327 583 q 533 533 493 583 q 574 375 574 483 l 574 0 l 699 0 l 699 375 q 634 608 699 522 q 421 694 570 694 q 293 671 358 694 q 158 571 227 647 l 207 550 l 182 681 l 85 681 l 85 0 m 279 800 l 539 901 l 539 1038 l 279 885 l 279 800 "},"ŉ":{"ha":965,"x_min":75,"x_max":888,"o":"m 274 0 l 399 0 l 399 533 l 383 457 q 459 553 401 523 q 585 583 516 583 q 722 533 682 583 q 763 375 763 483 l 763 0 l 888 0 l 888 375 q 823 608 888 522 q 610 694 759 694 q 482 671 547 694 q 347 571 416 647 l 396 550 l 371 681 l 274 681 l 274 0 "},"ň":{"ha":776,"x_min":85,"x_max":699,"o":"m 85 0 l 210 0 l 210 533 l 194 457 q 270 553 213 523 q 396 583 327 583 q 533 533 493 583 q 574 375 574 483 l 574 0 l 699 0 l 699 375 q 634 608 699 522 q 421 694 570 694 q 293 671 358 694 q 158 571 227 647 l 207 550 l 182 681 l 85 681 l 85 0 m 408 775 l 585 928 l 585 1013 l 408 901 l 232 1013 l 232 928 l 408 775 "},"ņ":{"ha":776,"x_min":85,"x_max":699,"o":"m 85 0 l 210 0 l 210 533 l 194 457 q 270 553 213 523 q 396 583 327 583 q 533 533 493 583 q 574 375 574 483 l 574 0 l 699 0 l 699 375 q 634 608 699 522 q 421 694 570 694 q 293 671 358 694 q 158 571 227 647 l 207 550 l 182 681 l 85 681 l 85 0 m 396 -422 l 468 -260 l 468 -126 l 318 -126 l 318 -274 l 367 -274 l 317 -422 l 396 -422 "},"ṅ":{"ha":776,"x_min":85,"x_max":699,"o":"m 85 0 l 210 0 l 210 533 l 194 457 q 270 553 213 523 q 396 583 327 583 q 533 533 493 583 q 574 375 574 483 l 574 0 l 699 0 l 699 375 q 634 608 699 522 q 421 694 570 694 q 293 671 358 694 q 158 571 227 647 l 207 550 l 182 681 l 85 681 l 85 0 m 342 821 l 475 821 l 475 946 l 342 946 l 342 821 "},"ṇ":{"ha":776,"x_min":85,"x_max":699,"o":"m 85 0 l 210 0 l 210 533 l 194 457 q 270 553 213 523 q 396 583 327 583 q 533 533 493 583 q 574 375 574 483 l 574 0 l 699 0 l 699 375 q 634 608 699 522 q 421 694 570 694 q 293 671 358 694 q 158 571 227 647 l 207 550 l 182 681 l 85 681 l 85 0 "},"ŋ":{"ha":776,"x_min":85,"x_max":699,"o":"m 699 33 l 699 375 q 634 608 699 522 q 421 694 570 694 q 310 677 367 694 q 196 608 254 660 l 182 681 l 85 681 l 85 0 l 210 0 l 210 494 q 287 562 236 540 q 396 583 338 583 q 533 533 493 583 q 574 375 574 483 l 574 19 q 533 -99 574 -60 q 425 -137 492 -137 q 322 -125 372 -137 l 304 -233 q 359 -244 331 -240 q 417 -249 388 -249 q 562 -218 499 -249 q 662 -124 626 -187 q 699 33 699 -62 "},"ǌ":{"ha":1071,"x_min":85,"x_max":986,"o":"m 85 0 l 210 0 l 210 533 l 194 457 q 270 553 213 523 q 396 583 327 583 q 533 533 493 583 q 574 375 574 483 l 574 0 l 699 0 l 699 375 q 634 608 699 522 q 421 694 570 694 q 293 671 358 694 q 158 571 227 647 l 207 550 l 182 681 l 85 681 l 85 0 m 774 -336 l 815 -329 q 890 -306 851 -324 q 958 -251 930 -289 q 986 -149 986 -214 l 986 681 l 861 681 l 861 -101 q 853 -185 861 -156 q 823 -225 844 -213 q 760 -240 801 -236 l 774 -336 m 861 833 l 986 833 l 986 972 l 861 972 l 861 833 "},"ṉ":{"ha":776,"x_min":85,"x_max":699,"o":"m 85 0 l 210 0 l 210 533 l 194 457 q 270 553 213 523 q 396 583 327 583 q 533 533 493 583 q 574 375 574 483 l 574 0 l 699 0 l 699 375 q 634 608 699 522 q 421 694 570 694 q 293 671 358 694 q 158 571 227 647 l 207 550 l 182 681 l 85 681 l 85 0 "},"ñ":{"ha":776,"x_min":85,"x_max":699,"o":"m 85 0 l 210 0 l 210 533 l 194 457 q 270 553 213 523 q 396 583 327 583 q 533 533 493 583 q 574 375 574 483 l 574 0 l 699 0 l 699 375 q 634 608 699 522 q 421 694 570 694 q 293 671 358 694 q 158 571 227 647 l 207 550 l 182 681 l 85 681 l 85 0 m 519 806 q 606 845 576 806 q 639 960 636 885 l 535 960 q 488 906 535 906 q 428 922 458 906 q 365 955 397 938 q 297 971 332 971 q 211 931 241 971 q 178 817 181 892 l 282 817 q 329 871 282 871 q 389 855 358 871 q 452 822 419 838 q 519 806 485 806 "},"o":{"ha":764,"x_min":44,"x_max":719,"o":"m 382 -14 q 564 34 488 -14 q 680 161 640 81 q 719 340 719 242 q 680 519 719 439 q 564 647 640 599 q 382 694 488 694 q 200 647 275 694 q 84 519 124 599 q 44 340 44 439 q 84 161 44 242 q 200 34 124 81 q 382 -14 275 -14 m 382 97 q 227 161 281 97 q 172 340 172 226 q 227 519 172 455 q 382 583 281 583 q 538 519 483 583 q 592 340 592 455 q 538 161 592 226 q 382 97 483 97 "},"ó":{"ha":764,"x_min":44,"x_max":719,"o":"m 382 -14 q 564 34 488 -14 q 680 161 640 81 q 719 340 719 242 q 680 519 719 439 q 564 647 640 599 q 382 694 488 694 q 200 647 275 694 q 84 519 124 599 q 44 340 44 439 q 84 161 44 242 q 200 34 124 81 q 382 -14 275 -14 m 382 97 q 227 161 281 97 q 172 340 172 226 q 227 519 172 455 q 382 583 281 583 q 538 519 483 583 q 592 340 592 455 q 538 161 592 226 q 382 97 483 97 m 253 800 l 513 901 l 513 1038 l 253 885 l 253 800 "},"ŏ":{"ha":764,"x_min":44,"x_max":719,"o":"m 382 -14 q 564 34 488 -14 q 680 161 640 81 q 719 340 719 242 q 680 519 719 439 q 564 647 640 599 q 382 694 488 694 q 200 647 275 694 q 84 519 124 599 q 44 340 44 439 q 84 161 44 242 q 200 34 124 81 q 382 -14 275 -14 m 382 97 q 227 161 281 97 q 172 340 172 226 q 227 519 172 455 q 382 583 281 583 q 538 519 483 583 q 592 340 592 455 q 538 161 592 226 q 382 97 483 97 m 382 800 q 496 825 451 800 q 563 890 541 850 q 585 976 585 931 l 474 976 q 447 913 474 934 q 382 892 419 892 q 317 913 344 892 q 290 976 290 934 l 179 976 q 201 890 179 931 q 268 825 223 850 q 382 800 313 800 "},"ô":{"ha":764,"x_min":44,"x_max":719,"o":"m 382 -14 q 564 34 488 -14 q 680 161 640 81 q 719 340 719 242 q 680 519 719 439 q 564 647 640 599 q 382 694 488 694 q 200 647 275 694 q 84 519 124 599 q 44 340 44 439 q 84 161 44 242 q 200 34 124 81 q 382 -14 275 -14 m 382 97 q 227 161 281 97 q 172 340 172 226 q 227 519 172 455 q 382 583 281 583 q 538 519 483 583 q 592 340 592 455 q 538 161 592 226 q 382 97 483 97 m 206 783 l 382 894 l 558 783 l 558 868 l 382 1021 l 206 868 l 206 783 "},"ố":{"ha":764,"x_min":44,"x_max":719,"o":"m 382 -14 q 564 34 488 -14 q 680 161 640 81 q 719 340 719 242 q 680 519 719 439 q 564 647 640 599 q 382 694 488 694 q 200 647 275 694 q 84 519 124 599 q 44 340 44 439 q 84 161 44 242 q 200 34 124 81 q 382 -14 275 -14 m 382 97 q 227 161 281 97 q 172 340 172 226 q 227 519 172 455 q 382 583 281 583 q 538 519 483 583 q 592 340 592 455 q 538 161 592 226 q 382 97 483 97 m 206 754 l 382 846 l 558 754 l 558 839 l 382 964 l 206 839 l 206 754 m 486 957 l 578 957 l 714 1119 l 578 1119 l 486 957 "},"ộ":{"ha":764,"x_min":44,"x_max":719,"o":"m 382 -14 q 564 34 488 -14 q 680 161 640 81 q 719 340 719 242 q 680 519 719 439 q 564 647 640 599 q 382 694 488 694 q 200 647 275 694 q 84 519 124 599 q 44 340 44 439 q 84 161 44 242 q 200 34 124 81 q 382 -14 275 -14 m 382 97 q 227 161 281 97 q 172 340 172 226 q 227 519 172 455 q 382 583 281 583 q 538 519 483 583 q 592 340 592 455 q 538 161 592 226 q 382 97 483 97 m 206 783 l 382 894 l 558 783 l 558 868 l 382 1021 l 206 868 l 206 783 "},"ồ":{"ha":764,"x_min":44,"x_max":719,"o":"m 382 -14 q 564 34 488 -14 q 680 161 640 81 q 719 340 719 242 q 680 519 719 439 q 564 647 640 599 q 382 694 488 694 q 200 647 275 694 q 84 519 124 599 q 44 340 44 439 q 84 161 44 242 q 200 34 124 81 q 382 -14 275 -14 m 382 97 q 227 161 281 97 q 172 340 172 226 q 227 519 172 455 q 382 583 281 583 q 538 519 483 583 q 592 340 592 455 q 538 161 592 226 q 382 97 483 97 m 206 754 l 382 846 l 558 754 l 558 839 l 382 964 l 206 839 l 206 754 m 506 957 l 594 957 l 517 1119 l 385 1119 l 506 957 "},"ổ":{"ha":764,"x_min":44,"x_max":719,"o":"m 382 -14 q 564 34 488 -14 q 680 161 640 81 q 719 340 719 242 q 680 519 719 439 q 564 647 640 599 q 382 694 488 694 q 200 647 275 694 q 84 519 124 599 q 44 340 44 439 q 84 161 44 242 q 200 34 124 81 q 382 -14 275 -14 m 382 97 q 227 161 281 97 q 172 340 172 226 q 227 519 172 455 q 382 583 281 583 q 538 519 483 583 q 592 340 592 455 q 538 161 592 226 q 382 97 483 97 m 206 754 l 382 846 l 558 754 l 558 839 l 382 964 l 206 839 l 206 754 m 515 919 q 605 963 577 933 q 632 1038 632 992 q 592 1117 632 1089 q 494 1144 552 1144 q 434 1138 463 1144 q 383 1118 406 1131 l 407 1047 q 451 1066 429 1059 q 494 1074 473 1074 q 536 1063 521 1074 q 551 1029 551 1052 q 539 997 551 1010 q 503 975 527 983 l 515 919 "},"ỗ":{"ha":764,"x_min":44,"x_max":719,"o":"m 382 -14 q 564 34 488 -14 q 680 161 640 81 q 719 340 719 242 q 680 519 719 439 q 564 647 640 599 q 382 694 488 694 q 200 647 275 694 q 84 519 124 599 q 44 340 44 439 q 84 161 44 242 q 200 34 124 81 q 382 -14 275 -14 m 382 97 q 227 161 281 97 q 172 340 172 226 q 227 519 172 455 q 382 583 281 583 q 538 519 483 583 q 592 340 592 455 q 538 161 592 226 q 382 97 483 97 m 206 754 l 382 846 l 558 754 l 558 839 l 382 964 l 206 839 l 206 754 m 497 1021 q 572 1057 545 1021 q 599 1160 599 1092 l 508 1160 q 461 1110 508 1110 q 402 1124 435 1110 q 334 1152 369 1138 q 267 1167 299 1167 q 192 1131 219 1167 q 165 1028 165 1096 l 256 1028 q 303 1078 256 1078 q 362 1064 329 1078 q 430 1035 395 1049 q 497 1021 465 1021 "},"ȍ":{"ha":764,"x_min":44,"x_max":719,"o":"m 382 -14 q 564 34 488 -14 q 680 161 640 81 q 719 340 719 242 q 680 519 719 439 q 564 647 640 599 q 382 694 488 694 q 200 647 275 694 q 84 519 124 599 q 44 340 44 439 q 84 161 44 242 q 200 34 124 81 q 382 -14 275 -14 m 382 97 q 227 161 281 97 q 172 340 172 226 q 227 519 172 455 q 382 583 281 583 q 538 519 483 583 q 592 340 592 455 q 538 161 592 226 q 382 97 483 97 m 526 803 l 435 1035 l 299 1035 l 435 803 l 526 803 m 332 803 l 233 1035 l 97 1035 l 240 803 l 332 803 "},"ö":{"ha":764,"x_min":44,"x_max":719,"o":"m 382 -14 q 564 34 488 -14 q 680 161 640 81 q 719 340 719 242 q 680 519 719 439 q 564 647 640 599 q 382 694 488 694 q 200 647 275 694 q 84 519 124 599 q 44 340 44 439 q 84 161 44 242 q 200 34 124 81 q 382 -14 275 -14 m 382 97 q 227 161 281 97 q 172 340 172 226 q 227 519 172 455 q 382 583 281 583 q 538 519 483 583 q 592 340 592 455 q 538 161 592 226 q 382 97 483 97 m 456 821 l 575 821 l 575 932 l 456 932 l 456 821 m 189 821 l 308 821 l 308 932 l 189 932 l 189 821 "},"ȫ":{"ha":764,"x_min":44,"x_max":719,"o":"m 382 -14 q 564 34 488 -14 q 680 161 640 81 q 719 340 719 242 q 680 519 719 439 q 564 647 640 599 q 382 694 488 694 q 200 647 275 694 q 84 519 124 599 q 44 340 44 439 q 84 161 44 242 q 200 34 124 81 q 382 -14 275 -14 m 382 97 q 227 161 281 97 q 172 340 172 226 q 227 519 172 455 q 382 583 281 583 q 538 519 483 583 q 592 340 592 455 q 538 161 592 226 q 382 97 483 97 m 189 811 l 308 811 l 308 915 l 189 915 l 189 811 m 456 811 l 575 811 l 575 915 l 456 915 l 456 811 m 160 1032 l 604 1032 l 604 1126 l 160 1126 l 160 1032 "},"ȱ":{"ha":764,"x_min":44,"x_max":719,"o":"m 382 -14 q 564 34 488 -14 q 680 161 640 81 q 719 340 719 242 q 680 519 719 439 q 564 647 640 599 q 382 694 488 694 q 200 647 275 694 q 84 519 124 599 q 44 340 44 439 q 84 161 44 242 q 200 34 124 81 q 382 -14 275 -14 m 382 97 q 227 161 281 97 q 172 340 172 226 q 227 519 172 455 q 382 583 281 583 q 538 519 483 583 q 592 340 592 455 q 538 161 592 226 q 382 97 483 97 m 315 807 l 449 807 l 449 932 l 315 932 l 315 807 m 160 1040 l 604 1040 l 604 1135 l 160 1135 l 160 1040 "},"ọ":{"ha":764,"x_min":44,"x_max":719,"o":"m 382 -14 q 564 34 488 -14 q 680 161 640 81 q 719 340 719 242 q 680 519 719 439 q 564 647 640 599 q 382 694 488 694 q 200 647 275 694 q 84 519 124 599 q 44 340 44 439 q 84 161 44 242 q 200 34 124 81 q 382 -14 275 -14 m 382 97 q 227 161 281 97 q 172 340 172 226 q 227 519 172 455 q 382 583 281 583 q 538 519 483 583 q 592 340 592 455 q 538 161 592 226 q 382 97 483 97 "},"ò":{"ha":764,"x_min":44,"x_max":719,"o":"m 382 -14 q 564 34 488 -14 q 680 161 640 81 q 719 340 719 242 q 680 519 719 439 q 564 647 640 599 q 382 694 488 694 q 200 647 275 694 q 84 519 124 599 q 44 340 44 439 q 84 161 44 242 q 200 34 124 81 q 382 -14 275 -14 m 382 97 q 227 161 281 97 q 172 340 172 226 q 227 519 172 455 q 382 583 281 583 q 538 519 483 583 q 592 340 592 455 q 538 161 592 226 q 382 97 483 97 m 511 800 l 511 885 l 251 1038 l 251 901 l 511 800 "},"ỏ":{"ha":764,"x_min":44,"x_max":719,"o":"m 382 -14 q 564 34 488 -14 q 680 161 640 81 q 719 340 719 242 q 680 519 719 439 q 564 647 640 599 q 382 694 488 694 q 200 647 275 694 q 84 519 124 599 q 44 340 44 439 q 84 161 44 242 q 200 34 124 81 q 382 -14 275 -14 m 382 97 q 227 161 281 97 q 172 340 172 226 q 227 519 172 455 q 382 583 281 583 q 538 519 483 583 q 592 340 592 455 q 538 161 592 226 q 382 97 483 97 m 403 729 q 474 797 451 766 q 497 872 497 828 q 457 959 497 928 q 360 989 417 989 q 300 982 328 989 q 249 963 272 975 l 272 892 q 316 911 294 903 q 360 918 338 918 q 401 906 386 918 q 417 868 417 893 q 402 825 417 843 q 356 775 388 808 l 403 729 "},"ơ":{"ha":764,"x_min":44,"x_max":719,"o":"m 382 -14 q 564 34 488 -14 q 680 161 640 81 q 719 340 719 242 q 680 519 719 439 q 564 647 640 599 q 382 694 488 694 q 200 647 275 694 q 84 519 124 599 q 44 340 44 439 q 84 161 44 242 q 200 34 124 81 q 382 -14 275 -14 m 382 97 q 227 161 281 97 q 172 340 172 226 q 227 519 172 455 q 382 583 281 583 q 538 519 483 583 q 592 340 592 455 q 538 161 592 226 q 382 97 483 97 m 471 585 q 588 613 536 585 q 671 685 640 640 q 701 783 701 731 l 582 783 q 552 705 582 728 q 471 681 523 681 l 471 585 "},"ớ":{"ha":764,"x_min":44,"x_max":719,"o":"m 382 -14 q 564 34 488 -14 q 680 161 640 81 q 719 340 719 242 q 680 519 719 439 q 564 647 640 599 q 382 694 488 694 q 200 647 275 694 q 84 519 124 599 q 44 340 44 439 q 84 161 44 242 q 200 34 124 81 q 382 -14 275 -14 m 382 97 q 227 161 281 97 q 172 340 172 226 q 227 519 172 455 q 382 583 281 583 q 538 519 483 583 q 592 340 592 455 q 538 161 592 226 q 382 97 483 97 m 471 585 q 588 613 536 585 q 671 685 640 640 q 701 783 701 731 l 582 783 q 552 705 582 728 q 471 681 523 681 l 471 585 m 253 800 l 513 901 l 513 1038 l 253 885 l 253 800 "},"ợ":{"ha":764,"x_min":44,"x_max":719,"o":"m 382 -14 q 564 34 488 -14 q 680 161 640 81 q 719 340 719 242 q 680 519 719 439 q 564 647 640 599 q 382 694 488 694 q 200 647 275 694 q 84 519 124 599 q 44 340 44 439 q 84 161 44 242 q 200 34 124 81 q 382 -14 275 -14 m 382 97 q 227 161 281 97 q 172 340 172 226 q 227 519 172 455 q 382 583 281 583 q 538 519 483 583 q 592 340 592 455 q 538 161 592 226 q 382 97 483 97 m 471 585 q 588 613 536 585 q 671 685 640 640 q 701 783 701 731 l 582 783 q 552 705 582 728 q 471 681 523 681 l 471 585 "},"ờ":{"ha":764,"x_min":44,"x_max":719,"o":"m 382 -14 q 564 34 488 -14 q 680 161 640 81 q 719 340 719 242 q 680 519 719 439 q 564 647 640 599 q 382 694 488 694 q 200 647 275 694 q 84 519 124 599 q 44 340 44 439 q 84 161 44 242 q 200 34 124 81 q 382 -14 275 -14 m 382 97 q 227 161 281 97 q 172 340 172 226 q 227 519 172 455 q 382 583 281 583 q 538 519 483 583 q 592 340 592 455 q 538 161 592 226 q 382 97 483 97 m 471 585 q 588 613 536 585 q 671 685 640 640 q 701 783 701 731 l 582 783 q 552 705 582 728 q 471 681 523 681 l 471 585 m 511 800 l 511 885 l 251 1038 l 251 901 l 511 800 "},"ở":{"ha":764,"x_min":44,"x_max":719,"o":"m 382 -14 q 564 34 488 -14 q 680 161 640 81 q 719 340 719 242 q 680 519 719 439 q 564 647 640 599 q 382 694 488 694 q 200 647 275 694 q 84 519 124 599 q 44 340 44 439 q 84 161 44 242 q 200 34 124 81 q 382 -14 275 -14 m 382 97 q 227 161 281 97 q 172 340 172 226 q 227 519 172 455 q 382 583 281 583 q 538 519 483 583 q 592 340 592 455 q 538 161 592 226 q 382 97 483 97 m 471 585 q 588 613 536 585 q 671 685 640 640 q 701 783 701 731 l 582 783 q 552 705 582 728 q 471 681 523 681 l 471 585 m 403 729 q 474 797 451 766 q 497 872 497 828 q 457 959 497 928 q 360 989 417 989 q 300 982 328 989 q 249 963 272 975 l 272 892 q 316 911 294 903 q 360 918 338 918 q 401 906 386 918 q 417 868 417 893 q 402 825 417 843 q 356 775 388 808 l 403 729 "},"ỡ":{"ha":764,"x_min":44,"x_max":719,"o":"m 382 -14 q 564 34 488 -14 q 680 161 640 81 q 719 340 719 242 q 680 519 719 439 q 564 647 640 599 q 382 694 488 694 q 200 647 275 694 q 84 519 124 599 q 44 340 44 439 q 84 161 44 242 q 200 34 124 81 q 382 -14 275 -14 m 382 97 q 227 161 281 97 q 172 340 172 226 q 227 519 172 455 q 382 583 281 583 q 538 519 483 583 q 592 340 592 455 q 538 161 592 226 q 382 97 483 97 m 471 585 q 588 613 536 585 q 671 685 640 640 q 701 783 701 731 l 582 783 q 552 705 582 728 q 471 681 523 681 l 471 585 m 493 806 q 580 845 549 806 q 613 960 610 885 l 508 960 q 461 906 508 906 q 401 922 432 906 q 338 955 371 938 q 271 971 306 971 q 185 931 215 971 q 151 817 155 892 l 256 817 q 303 871 256 871 q 363 855 332 871 q 426 822 393 838 q 493 806 458 806 "},"ő":{"ha":764,"x_min":44,"x_max":719,"o":"m 382 -14 q 564 34 488 -14 q 680 161 640 81 q 719 340 719 242 q 680 519 719 439 q 564 647 640 599 q 382 694 488 694 q 200 647 275 694 q 84 519 124 599 q 44 340 44 439 q 84 161 44 242 q 200 34 124 81 q 382 -14 275 -14 m 382 97 q 227 161 281 97 q 172 340 172 226 q 227 519 172 455 q 382 583 281 583 q 538 519 483 583 q 592 340 592 455 q 538 161 592 226 q 382 97 483 97 m 432 803 l 524 803 l 683 1035 l 547 1035 l 432 803 m 238 803 l 329 803 l 482 1035 l 346 1035 l 238 803 "},"ȏ":{"ha":764,"x_min":44,"x_max":719,"o":"m 382 -14 q 564 34 488 -14 q 680 161 640 81 q 719 340 719 242 q 680 519 719 439 q 564 647 640 599 q 382 694 488 694 q 200 647 275 694 q 84 519 124 599 q 44 340 44 439 q 84 161 44 242 q 200 34 124 81 q 382 -14 275 -14 m 382 97 q 227 161 281 97 q 172 340 172 226 q 227 519 172 455 q 382 583 281 583 q 538 519 483 583 q 592 340 592 455 q 538 161 592 226 q 382 97 483 97 m 382 976 q 268 951 313 976 q 201 886 223 926 q 179 800 179 846 l 290 800 q 317 864 290 843 q 382 885 344 885 q 447 864 419 885 q 474 800 474 843 l 585 800 q 563 886 585 846 q 496 951 541 926 q 382 976 451 976 "},"ō":{"ha":764,"x_min":44,"x_max":719,"o":"m 382 -14 q 564 34 488 -14 q 680 161 640 81 q 719 340 719 242 q 680 519 719 439 q 564 647 640 599 q 382 694 488 694 q 200 647 275 694 q 84 519 124 599 q 44 340 44 439 q 84 161 44 242 q 200 34 124 81 q 382 -14 275 -14 m 382 97 q 227 161 281 97 q 172 340 172 226 q 227 519 172 455 q 382 583 281 583 q 538 519 483 583 q 592 340 592 455 q 538 161 592 226 q 382 97 483 97 m 160 821 l 604 821 l 604 919 l 160 919 l 160 821 "},"ṓ":{"ha":764,"x_min":44,"x_max":719,"o":"m 382 -14 q 564 34 488 -14 q 680 161 640 81 q 719 340 719 242 q 680 519 719 439 q 564 647 640 599 q 382 694 488 694 q 200 647 275 694 q 84 519 124 599 q 44 340 44 439 q 84 161 44 242 q 200 34 124 81 q 382 -14 275 -14 m 382 97 q 227 161 281 97 q 172 340 172 226 q 227 519 172 455 q 382 583 281 583 q 538 519 483 583 q 592 340 592 455 q 538 161 592 226 q 382 97 483 97 m 160 810 l 604 810 l 604 904 l 160 904 l 160 810 m 253 1008 l 513 1089 l 513 1221 l 253 1089 l 253 1008 "},"ṑ":{"ha":764,"x_min":44,"x_max":719,"o":"m 382 -14 q 564 34 488 -14 q 680 161 640 81 q 719 340 719 242 q 680 519 719 439 q 564 647 640 599 q 382 694 488 694 q 200 647 275 694 q 84 519 124 599 q 44 340 44 439 q 84 161 44 242 q 200 34 124 81 q 382 -14 275 -14 m 382 97 q 227 161 281 97 q 172 340 172 226 q 227 519 172 455 q 382 583 281 583 q 538 519 483 583 q 592 340 592 455 q 538 161 592 226 q 382 97 483 97 m 160 810 l 604 810 l 604 904 l 160 904 l 160 810 m 511 1008 l 511 1089 l 251 1221 l 251 1089 l 511 1008 "},"ǫ":{"ha":764,"x_min":44,"x_max":719,"o":"m 382 -14 q 564 34 488 -14 q 680 161 640 81 q 719 340 719 242 q 680 519 719 439 q 564 647 640 599 q 382 694 488 694 q 200 647 275 694 q 84 519 124 599 q 44 340 44 439 q 84 161 44 242 q 200 34 124 81 q 382 -14 275 -14 m 382 97 q 227 161 281 97 q 172 340 172 226 q 227 519 172 455 q 382 583 281 583 q 538 519 483 583 q 592 340 592 455 q 538 161 592 226 q 382 97 483 97 m 410 0 q 331 -69 368 -24 q 294 -169 294 -114 q 335 -258 294 -228 q 435 -289 376 -289 q 501 -281 472 -289 q 550 -262 531 -273 l 529 -194 q 487 -212 508 -206 q 442 -218 466 -218 q 393 -200 412 -218 q 375 -147 375 -183 q 405 -73 375 -108 q 483 0 435 -37 l 410 0 "},"ø":{"ha":764,"x_min":44,"x_max":719,"o":"m 571 736 l 81 -56 l 193 -56 l 683 736 l 571 736 m 382 -14 q 564 34 488 -14 q 680 161 640 81 q 719 340 719 242 q 680 519 719 439 q 564 647 640 599 q 382 694 488 694 q 200 647 275 694 q 84 519 124 599 q 44 340 44 439 q 84 161 44 242 q 200 34 124 81 q 382 -14 275 -14 m 382 97 q 227 161 281 97 q 172 340 172 226 q 227 519 172 455 q 382 583 281 583 q 538 519 483 583 q 592 340 592 455 q 538 161 592 226 q 382 97 483 97 "},"ǿ":{"ha":764,"x_min":44,"x_max":719,"o":"m 571 736 l 81 -56 l 193 -56 l 683 736 l 571 736 m 382 -14 q 564 34 488 -14 q 680 161 640 81 q 719 340 719 242 q 680 519 719 439 q 564 647 640 599 q 382 694 488 694 q 200 647 275 694 q 84 519 124 599 q 44 340 44 439 q 84 161 44 242 q 200 34 124 81 q 382 -14 275 -14 m 382 97 q 227 161 281 97 q 172 340 172 226 q 227 519 172 455 q 382 583 281 583 q 538 519 483 583 q 592 340 592 455 q 538 161 592 226 q 382 97 483 97 m 253 800 l 513 901 l 513 1038 l 253 885 l 253 800 "},"õ":{"ha":764,"x_min":44,"x_max":719,"o":"m 382 -14 q 564 34 488 -14 q 680 161 640 81 q 719 340 719 242 q 680 519 719 439 q 564 647 640 599 q 382 694 488 694 q 200 647 275 694 q 84 519 124 599 q 44 340 44 439 q 84 161 44 242 q 200 34 124 81 q 382 -14 275 -14 m 382 97 q 227 161 281 97 q 172 340 172 226 q 227 519 172 455 q 382 583 281 583 q 538 519 483 583 q 592 340 592 455 q 538 161 592 226 q 382 97 483 97 m 493 806 q 580 845 549 806 q 613 960 610 885 l 508 960 q 461 906 508 906 q 401 922 432 906 q 338 955 371 938 q 271 971 306 971 q 185 931 215 971 q 151 817 155 892 l 256 817 q 303 871 256 871 q 363 855 332 871 q 426 822 393 838 q 493 806 458 806 "},"ṍ":{"ha":764,"x_min":44,"x_max":719,"o":"m 382 -14 q 564 34 488 -14 q 680 161 640 81 q 719 340 719 242 q 680 519 719 439 q 564 647 640 599 q 382 694 488 694 q 200 647 275 694 q 84 519 124 599 q 44 340 44 439 q 84 161 44 242 q 200 34 124 81 q 382 -14 275 -14 m 382 97 q 227 161 281 97 q 172 340 172 226 q 227 519 172 455 q 382 583 281 583 q 538 519 483 583 q 592 340 592 455 q 538 161 592 226 q 382 97 483 97 m 497 803 q 572 839 545 803 q 599 942 599 874 l 508 942 q 461 892 508 892 q 402 906 435 892 q 334 934 369 920 q 267 949 299 949 q 192 913 219 949 q 165 810 165 878 l 256 810 q 303 860 256 860 q 362 845 329 860 q 430 817 395 831 q 497 803 465 803 m 253 1014 l 513 1094 l 513 1226 l 253 1094 l 253 1014 "},"ṏ":{"ha":764,"x_min":44,"x_max":719,"o":"m 382 -14 q 564 34 488 -14 q 680 161 640 81 q 719 340 719 242 q 680 519 719 439 q 564 647 640 599 q 382 694 488 694 q 200 647 275 694 q 84 519 124 599 q 44 340 44 439 q 84 161 44 242 q 200 34 124 81 q 382 -14 275 -14 m 382 97 q 227 161 281 97 q 172 340 172 226 q 227 519 172 455 q 382 583 281 583 q 538 519 483 583 q 592 340 592 455 q 538 161 592 226 q 382 97 483 97 m 497 803 q 572 839 545 803 q 599 942 599 874 l 508 942 q 461 892 508 892 q 402 906 435 892 q 334 934 369 920 q 267 949 299 949 q 192 913 219 949 q 165 810 165 878 l 256 810 q 303 860 256 860 q 362 845 329 860 q 430 817 395 831 q 497 803 465 803 m 189 1056 l 308 1056 l 308 1160 l 189 1160 l 189 1056 m 456 1056 l 575 1056 l 575 1160 l 456 1160 l 456 1056 "},"ȭ":{"ha":764,"x_min":44,"x_max":719,"o":"m 382 -14 q 564 34 488 -14 q 680 161 640 81 q 719 340 719 242 q 680 519 719 439 q 564 647 640 599 q 382 694 488 694 q 200 647 275 694 q 84 519 124 599 q 44 340 44 439 q 84 161 44 242 q 200 34 124 81 q 382 -14 275 -14 m 382 97 q 227 161 281 97 q 172 340 172 226 q 227 519 172 455 q 382 583 281 583 q 538 519 483 583 q 592 340 592 455 q 538 161 592 226 q 382 97 483 97 m 497 803 q 572 839 545 803 q 599 942 599 874 l 508 942 q 461 892 508 892 q 402 906 435 892 q 334 934 369 920 q 267 949 299 949 q 192 913 219 949 q 165 810 165 878 l 256 810 q 303 860 256 860 q 362 845 329 860 q 430 817 395 831 q 497 803 465 803 m 160 1054 l 604 1054 l 604 1149 l 160 1149 l 160 1054 "},"œ":{"ha":1253,"x_min":44,"x_max":1211,"o":"m 382 -14 q 566 41 490 -14 q 678 183 642 95 l 629 185 q 750 41 668 97 q 953 -14 831 -14 q 1084 4 1027 -14 q 1181 39 1141 22 l 1164 138 q 1067 107 1118 117 q 968 97 1015 97 q 849 119 903 97 q 758 193 794 140 q 713 340 722 246 l 1206 340 q 1210 375 1209 358 q 1211 407 1211 392 q 1173 563 1211 499 q 1069 661 1135 627 q 918 694 1003 694 q 742 644 815 694 q 632 513 669 594 l 668 517 q 557 646 630 597 q 382 694 484 694 q 200 647 275 694 q 84 519 124 599 q 44 340 44 439 q 84 161 44 242 q 200 34 124 81 q 382 -14 275 -14 m 382 97 q 227 161 281 97 q 172 340 172 226 q 227 519 172 455 q 382 583 281 583 q 538 519 483 583 q 592 340 592 455 q 538 161 592 226 q 382 97 483 97 m 724 426 q 787 542 742 501 q 915 583 832 583 q 1009 564 972 583 q 1064 510 1046 545 q 1082 426 1082 474 l 724 426 "},"p":{"ha":774,"x_min":85,"x_max":728,"o":"m 85 -336 l 210 -336 l 210 146 l 189 121 q 284 20 218 53 q 431 -14 349 -14 q 595 33 529 -14 q 694 161 661 81 q 728 340 728 241 q 692 520 728 440 q 590 647 657 600 q 431 694 524 694 q 276 656 339 694 q 169 550 213 617 l 204 525 l 182 681 l 85 681 l 85 -336 m 407 97 q 305 123 351 97 q 231 201 258 148 q 203 340 203 255 q 231 476 203 422 q 305 557 258 530 q 407 583 351 583 q 549 519 498 583 q 600 340 600 455 q 549 161 600 226 q 407 97 498 97 "},"þ":{"ha":807,"x_min":83,"x_max":761,"o":"m 83 -335 l 208 -335 l 208 138 l 188 118 q 288 19 223 53 q 442 -14 352 -14 q 616 35 545 -14 q 724 165 688 84 q 761 340 761 245 q 723 517 761 436 q 614 646 685 597 q 442 694 542 694 q 297 663 363 694 q 181 563 232 631 l 208 549 l 208 1042 l 83 1042 l 83 -335 m 421 86 q 302 118 352 86 q 226 207 253 149 q 199 340 199 264 q 226 470 199 416 q 302 554 253 525 q 421 583 352 583 q 581 516 526 583 q 635 340 635 449 q 581 159 635 231 q 421 86 526 86 "},"q":{"ha":774,"x_min":46,"x_max":689,"o":"m 564 -336 l 689 -336 l 689 681 l 592 681 l 569 525 l 604 550 q 503 657 562 619 q 349 694 444 694 q 186 645 253 694 q 82 514 118 595 q 46 340 46 433 q 80 161 46 241 q 182 33 114 81 q 350 -14 249 -14 q 494 20 431 -14 q 585 121 557 53 l 564 146 l 564 -336 m 367 97 q 225 161 276 97 q 174 340 174 226 q 225 519 174 455 q 367 583 276 583 q 511 523 451 583 q 571 340 571 463 q 543 201 571 255 q 469 123 515 148 q 367 97 423 97 "},"r":{"ha":439,"x_min":85,"x_max":436,"o":"m 85 0 l 218 0 l 218 481 q 282 533 237 509 q 382 557 328 557 q 405 556 394 557 q 424 553 415 555 l 436 690 q 404 694 422 694 q 302 664 350 694 q 203 568 255 633 l 188 681 l 85 681 l 85 0 "},"ŕ":{"ha":439,"x_min":85,"x_max":436,"o":"m 85 0 l 218 0 l 218 481 q 282 533 237 509 q 382 557 328 557 q 405 556 394 557 q 424 553 415 555 l 436 690 q 404 694 422 694 q 302 664 350 694 q 203 568 255 633 l 188 681 l 85 681 l 85 0 m 164 800 l 424 901 l 424 1038 l 164 885 l 164 800 "},"ř":{"ha":439,"x_min":85,"x_max":469,"o":"m 85 0 l 218 0 l 218 481 q 282 533 237 509 q 382 557 328 557 q 405 556 394 557 q 424 553 415 555 l 436 690 q 404 694 422 694 q 302 664 350 694 q 203 568 255 633 l 188 681 l 85 681 l 85 0 m 293 775 l 469 928 l 469 1013 l 293 901 l 117 1013 l 117 928 l 293 775 "},"ŗ":{"ha":439,"x_min":76,"x_max":436,"o":"m 85 0 l 218 0 l 218 481 q 282 533 237 509 q 382 557 328 557 q 405 556 394 557 q 424 553 415 555 l 436 690 q 404 694 422 694 q 302 664 350 694 q 203 568 255 633 l 188 681 l 85 681 l 85 0 m 156 -422 l 228 -260 l 228 -126 l 78 -126 l 78 -274 l 126 -274 l 76 -422 l 156 -422 "},"ȑ":{"ha":439,"x_min":8,"x_max":438,"o":"m 85 0 l 218 0 l 218 481 q 282 533 237 509 q 382 557 328 557 q 405 556 394 557 q 424 553 415 555 l 436 690 q 404 694 422 694 q 302 664 350 694 q 203 568 255 633 l 188 681 l 85 681 l 85 0 m 438 803 l 346 1035 l 210 1035 l 346 803 l 438 803 m 243 803 l 144 1035 l 8 1035 l 151 803 l 243 803 "},"ṛ":{"ha":439,"x_min":85,"x_max":436,"o":"m 85 0 l 218 0 l 218 481 q 282 533 237 509 q 382 557 328 557 q 405 556 394 557 q 424 553 415 555 l 436 690 q 404 694 422 694 q 302 664 350 694 q 203 568 255 633 l 188 681 l 85 681 l 85 0 "},"ȓ":{"ha":439,"x_min":85,"x_max":496,"o":"m 85 0 l 218 0 l 218 481 q 282 533 237 509 q 382 557 328 557 q 405 556 394 557 q 424 553 415 555 l 436 690 q 404 694 422 694 q 302 664 350 694 q 203 568 255 633 l 188 681 l 85 681 l 85 0 m 293 976 q 179 951 224 976 q 112 886 134 926 q 90 800 90 846 l 201 800 q 228 864 201 843 q 293 885 256 885 q 358 864 331 885 q 385 800 385 843 l 496 800 q 474 886 496 846 q 407 951 452 926 q 293 976 363 976 "},"ṟ":{"ha":439,"x_min":-71,"x_max":436,"o":"m 85 0 l 218 0 l 218 481 q 282 533 237 509 q 382 557 328 557 q 405 556 394 557 q 424 553 415 555 l 436 690 q 404 694 422 694 q 302 664 350 694 q 203 568 255 633 l 188 681 l 85 681 l 85 0 "},"s":{"ha":575,"x_min":44,"x_max":538,"o":"m 278 -14 q 438 18 382 -14 q 516 97 494 50 q 538 189 538 144 q 517 278 538 242 q 465 336 497 314 q 401 372 434 358 q 343 392 368 385 q 224 436 263 416 q 185 504 185 456 q 222 574 185 552 q 317 596 258 596 q 414 578 374 596 q 483 536 453 561 l 499 650 q 425 680 467 666 q 314 694 382 694 q 165 665 221 694 q 83 589 108 636 q 58 490 58 542 q 92 383 58 422 q 176 326 126 345 q 272 294 226 307 q 332 274 300 287 q 386 239 363 261 q 408 182 408 217 q 373 119 408 142 q 272 97 338 97 q 138 122 194 97 q 60 167 82 147 l 44 46 q 128 8 69 29 q 278 -14 188 -14 "},"ś":{"ha":575,"x_min":44,"x_max":538,"o":"m 278 -14 q 438 18 382 -14 q 516 97 494 50 q 538 189 538 144 q 517 278 538 242 q 465 336 497 314 q 401 372 434 358 q 343 392 368 385 q 224 436 263 416 q 185 504 185 456 q 222 574 185 552 q 317 596 258 596 q 414 578 374 596 q 483 536 453 561 l 499 650 q 425 680 467 666 q 314 694 382 694 q 165 665 221 694 q 83 589 108 636 q 58 490 58 542 q 92 383 58 422 q 176 326 126 345 q 272 294 226 307 q 332 274 300 287 q 386 239 363 261 q 408 182 408 217 q 373 119 408 142 q 272 97 338 97 q 138 122 194 97 q 60 167 82 147 l 44 46 q 128 8 69 29 q 278 -14 188 -14 m 179 800 l 439 901 l 439 1038 l 179 885 l 179 800 "},"ṥ":{"ha":575,"x_min":44,"x_max":538,"o":"m 278 -14 q 438 18 382 -14 q 516 97 494 50 q 538 189 538 144 q 517 278 538 242 q 465 336 497 314 q 401 372 434 358 q 343 392 368 385 q 224 436 263 416 q 185 504 185 456 q 222 574 185 552 q 317 596 258 596 q 414 578 374 596 q 483 536 453 561 l 499 650 q 425 680 467 666 q 314 694 382 694 q 165 665 221 694 q 83 589 108 636 q 58 490 58 542 q 92 383 58 422 q 176 326 126 345 q 272 294 226 307 q 332 274 300 287 q 386 239 363 261 q 408 182 408 217 q 373 119 408 142 q 272 97 338 97 q 138 122 194 97 q 60 167 82 147 l 44 46 q 128 8 69 29 q 278 -14 188 -14 m 179 769 l 439 850 l 439 982 l 179 850 l 179 769 m 242 1046 l 375 1046 l 375 1171 l 242 1171 l 242 1046 "},"š":{"ha":575,"x_min":44,"x_max":538,"o":"m 278 -14 q 438 18 382 -14 q 516 97 494 50 q 538 189 538 144 q 517 278 538 242 q 465 336 497 314 q 401 372 434 358 q 343 392 368 385 q 224 436 263 416 q 185 504 185 456 q 222 574 185 552 q 317 596 258 596 q 414 578 374 596 q 483 536 453 561 l 499 650 q 425 680 467 666 q 314 694 382 694 q 165 665 221 694 q 83 589 108 636 q 58 490 58 542 q 92 383 58 422 q 176 326 126 345 q 272 294 226 307 q 332 274 300 287 q 386 239 363 261 q 408 182 408 217 q 373 119 408 142 q 272 97 338 97 q 138 122 194 97 q 60 167 82 147 l 44 46 q 128 8 69 29 q 278 -14 188 -14 m 308 775 l 485 928 l 485 1013 l 308 901 l 132 1013 l 132 928 l 308 775 "},"ṧ":{"ha":575,"x_min":44,"x_max":538,"o":"m 278 -14 q 438 18 382 -14 q 516 97 494 50 q 538 189 538 144 q 517 278 538 242 q 465 336 497 314 q 401 372 434 358 q 343 392 368 385 q 224 436 263 416 q 185 504 185 456 q 222 574 185 552 q 317 596 258 596 q 414 578 374 596 q 483 536 453 561 l 499 650 q 425 680 467 666 q 314 694 382 694 q 165 665 221 694 q 83 589 108 636 q 58 490 58 542 q 92 383 58 422 q 176 326 126 345 q 272 294 226 307 q 332 274 300 287 q 386 239 363 261 q 408 182 408 217 q 373 119 408 142 q 272 97 338 97 q 138 122 194 97 q 60 167 82 147 l 44 46 q 128 8 69 29 q 278 -14 188 -14 m 242 1064 l 375 1064 l 375 1189 l 242 1189 l 242 1064 "},"ş":{"ha":575,"x_min":44,"x_max":538,"o":"m 278 -14 q 438 18 382 -14 q 516 97 494 50 q 538 189 538 144 q 517 278 538 242 q 465 336 497 314 q 401 372 434 358 q 343 392 368 385 q 224 436 263 416 q 185 504 185 456 q 222 574 185 552 q 317 596 258 596 q 414 578 374 596 q 483 536 453 561 l 499 650 q 425 680 467 666 q 314 694 382 694 q 165 665 221 694 q 83 589 108 636 q 58 490 58 542 q 92 383 58 422 q 176 326 126 345 q 272 294 226 307 q 332 274 300 287 q 386 239 363 261 q 408 182 408 217 q 373 119 408 142 q 272 97 338 97 q 138 122 194 97 q 60 167 82 147 l 44 46 q 128 8 69 29 q 278 -14 188 -14 m 293 -110 l 328 0 l 258 0 l 222 -146 q 256 -137 240 -140 q 286 -135 271 -135 q 339 -150 322 -135 q 356 -190 356 -165 q 338 -230 356 -216 q 289 -243 319 -243 q 244 -237 265 -243 q 201 -219 222 -231 l 181 -287 q 226 -306 199 -298 q 289 -314 253 -314 q 393 -281 351 -314 q 436 -187 436 -249 q 404 -105 436 -135 q 315 -75 372 -75 q 280 -79 297 -75 q 247 -89 264 -83 l 293 -110 "},"ŝ":{"ha":575,"x_min":44,"x_max":538,"o":"m 278 -14 q 438 18 382 -14 q 516 97 494 50 q 538 189 538 144 q 517 278 538 242 q 465 336 497 314 q 401 372 434 358 q 343 392 368 385 q 224 436 263 416 q 185 504 185 456 q 222 574 185 552 q 317 596 258 596 q 414 578 374 596 q 483 536 453 561 l 499 650 q 425 680 467 666 q 314 694 382 694 q 165 665 221 694 q 83 589 108 636 q 58 490 58 542 q 92 383 58 422 q 176 326 126 345 q 272 294 226 307 q 332 274 300 287 q 386 239 363 261 q 408 182 408 217 q 373 119 408 142 q 272 97 338 97 q 138 122 194 97 q 60 167 82 147 l 44 46 q 128 8 69 29 q 278 -14 188 -14 m 132 783 l 308 894 l 485 783 l 485 868 l 308 1021 l 132 868 l 132 783 "},"ș":{"ha":575,"x_min":44,"x_max":538,"o":"m 278 -14 q 438 18 382 -14 q 516 97 494 50 q 538 189 538 144 q 517 278 538 242 q 465 336 497 314 q 401 372 434 358 q 343 392 368 385 q 224 436 263 416 q 185 504 185 456 q 222 574 185 552 q 317 596 258 596 q 414 578 374 596 q 483 536 453 561 l 499 650 q 425 680 467 666 q 314 694 382 694 q 165 665 221 694 q 83 589 108 636 q 58 490 58 542 q 92 383 58 422 q 176 326 126 345 q 272 294 226 307 q 332 274 300 287 q 386 239 363 261 q 408 182 408 217 q 373 119 408 142 q 272 97 338 97 q 138 122 194 97 q 60 167 82 147 l 44 46 q 128 8 69 29 q 278 -14 188 -14 m 293 -422 l 365 -260 l 365 -126 l 215 -126 l 215 -274 l 264 -274 l 214 -422 l 293 -422 "},"ṡ":{"ha":575,"x_min":44,"x_max":538,"o":"m 278 -14 q 438 18 382 -14 q 516 97 494 50 q 538 189 538 144 q 517 278 538 242 q 465 336 497 314 q 401 372 434 358 q 343 392 368 385 q 224 436 263 416 q 185 504 185 456 q 222 574 185 552 q 317 596 258 596 q 414 578 374 596 q 483 536 453 561 l 499 650 q 425 680 467 666 q 314 694 382 694 q 165 665 221 694 q 83 589 108 636 q 58 490 58 542 q 92 383 58 422 q 176 326 126 345 q 272 294 226 307 q 332 274 300 287 q 386 239 363 261 q 408 182 408 217 q 373 119 408 142 q 272 97 338 97 q 138 122 194 97 q 60 167 82 147 l 44 46 q 128 8 69 29 q 278 -14 188 -14 m 242 821 l 375 821 l 375 946 l 242 946 l 242 821 "},"ṣ":{"ha":575,"x_min":44,"x_max":538,"o":"m 278 -14 q 438 18 382 -14 q 516 97 494 50 q 538 189 538 144 q 517 278 538 242 q 465 336 497 314 q 401 372 434 358 q 343 392 368 385 q 224 436 263 416 q 185 504 185 456 q 222 574 185 552 q 317 596 258 596 q 414 578 374 596 q 483 536 453 561 l 499 650 q 425 680 467 666 q 314 694 382 694 q 165 665 221 694 q 83 589 108 636 q 58 490 58 542 q 92 383 58 422 q 176 326 126 345 q 272 294 226 307 q 332 274 300 287 q 386 239 363 261 q 408 182 408 217 q 373 119 408 142 q 272 97 338 97 q 138 122 194 97 q 60 167 82 147 l 44 46 q 128 8 69 29 q 278 -14 188 -14 "}}}
